<?xml version="1.0" encoding="UTF-8" standalone="no"?>
<svg
   xmlns:dc="http://purl.org/dc/elements/1.1/"
   xmlns:cc="http://creativecommons.org/ns#"
   xmlns:rdf="http://www.w3.org/1999/02/22-rdf-syntax-ns#"
   xmlns:svg="http://www.w3.org/2000/svg"
   xmlns="http://www.w3.org/2000/svg"
   xmlns:sodipodi="http://sodipodi.sourceforge.net/DTD/sodipodi-0.dtd"
   xmlns:inkscape="http://www.inkscape.org/namespaces/inkscape"
   sodipodi:docname="c_polyam2.svg"
   width="300mm"
   height="180mm"
   viewBox="0 0 300 180"
   version="1.1"
   id="svg8"
   inkscape:version="1.0.1 (3bc2e813f5, 2020-09-07)">
  <defs
     id="defs2">
    <clipPath
       id="clipPath905"
       clipPathUnits="userSpaceOnUse">
      <path
         d="M 270.00015,23.000146 C 246.01447,23.000146 230,43.6054 230,65.000166 c 0,44.073344 75.00008,89.999674 75.00008,89.999674 0,0 75.00006,-45.92633 75.00006,-89.999674 0,-21.394766 -16.01446,-42.00002 -40.00013,-42.00002 -27.95442,0 -34.99993,21.99969 -34.99993,21.99969 0,0 -7.04551,-21.99969 -34.99993,-21.99969 z"
         style="fill:#000000;fill-opacity:1;stroke-width:3.96899"
         id="path907" />
    </clipPath>
  </defs>
  <sodipodi:namedview
     inkscape:window-maximized="1"
     inkscape:window-y="-8"
     inkscape:window-x="-8"
     inkscape:window-height="1017"
     inkscape:window-width="1920"
     id="base"
     pagecolor="#000000"
     bordercolor="#666666"
     borderopacity="1.0"
     inkscape:pageopacity="0"
     inkscape:pageshadow="2"
     inkscape:zoom="0.7"
     inkscape:cx="459.43197"
     inkscape:cy="325.46463"
     inkscape:document-units="mm"
     inkscape:current-layer="layer3"
     inkscape:document-rotation="0"
     showgrid="false"
     inkscape:pagecheckerboard="true" />
  <metadata
     id="metadata5">
    <rdf:RDF>
      <cc:Work
         rdf:about="">
        <dc:format>image/svg+xml</dc:format>
        <dc:type
           rdf:resource="http://purl.org/dc/dcmitype/StillImage" />
        <dc:title />
      </cc:Work>
    </rdf:RDF>
  </metadata>
  <g
     inkscape:label="Layer 1"
     id="layer3"
     inkscape:groupmode="layer"
     style="display:inline">
    <rect
       style="fill:#383feb;fill-opacity:1;stroke-width:0.609158;stroke-linecap:round;stroke-linejoin:round;stroke-opacity:0"
       id="rect845"
       width="300"
       height="65"
       x="0"
       y="0" />
    <rect
       style="fill:#eb3838;fill-opacity:1;stroke-width:0.609158;stroke-linecap:round;stroke-linejoin:round;stroke-opacity:0"
       id="rect839"
       width="300"
       height="65"
       x="0"
       y="60" />
    <rect
       style="fill:#1a1219;fill-opacity:1;stroke-width:0.58526;stroke-linecap:round;stroke-linejoin:round;stroke-opacity:0"
       id="rect841"
       width="300"
       height="60"
       x="0"
       y="120" />
    <path
       d="M 126.66674,46 C 110.6763,46 100,59.736826 100,73.999985 c 0,29.382215 50.00001,59.999725 50.00001,59.999725 0,0 49.99999,-30.61751 49.99999,-59.999725 C 200,59.736826 189.3237,46 173.33327,46 154.69701,46 150.00001,60.666445 150.00001,60.666445 150.00001,60.666445 145.303,46 126.66674,46 Z"
       style="display:inline;fill:none;fill-opacity:0.265487;stroke:#ffffff;stroke-width:5;stroke-opacity:1;stroke-miterlimit:4;stroke-dasharray:none;stroke-linejoin:round;stroke-linecap:butt"
       id="path907-6" />
    <path
       id="path867"
       d="m 150,83.705983 c 5.09925,-4.906031 10.00497,-9.069759 14.71709,-12.491196 4.71196,-3.485833 8.68171,-5.809777 11.90922,-6.971831 3.22735,-1.161887 6.74526,-1.742871 10.55371,-1.742956 8.00393,8.5e-5 14.45879,2.679071 19.36459,8.036971 4.97012,5.2935 7.45525,11.716614 7.45539,19.269365 -1.4e-4,5.164372 -1.09745,9.941365 -3.29198,14.330984 -2.1948,4.38971 -5.32538,7.71424 -9.39183,9.97359 -4.00214,2.25943 -8.61736,3.38912 -13.84569,3.38909 -6.77771,3e-5 -12.71618,-1.45243 -17.81544,-4.3574 -5.03487,-2.90489 -11.58655,-8.39197 -19.65506,-16.461261 -8.39138,8.327501 -15.07217,13.879141 -20.04235,16.654921 -4.97029,2.77586 -10.74739,4.16377 -17.33134,4.16374 -8.39133,3e-5 -14.943027,-2.61441 -19.655057,-7.84331 C 88.323753,104.42786 86,97.811081 86,89.806336 86,82.31814 88.452863,75.895024 93.358543,70.536971 98.328783,65.179071 104.81591,62.500085 112.81997,62.5 c 3.87287,8.5e-5 7.42307,0.581069 10.65052,1.742956 3.22741,1.162054 7.16486,3.485998 11.81243,6.971831 4.71196,3.421437 9.61767,7.585165 14.71708,12.491196 m 6.29349,6.003522 c 6.84207,6.778221 12.4578,11.393825 16.84721,13.846835 4.45376,2.38854 8.87534,3.58278 13.26476,3.58274 5.4865,4e-5 9.77899,-1.6138 12.87742,-4.84155 3.09825,-3.292199 4.64739,-7.262267 4.64751,-11.910207 -1.2e-4,-5.099702 -1.54926,-9.295707 -4.64751,-12.58803 -3.03389,-3.356732 -7.06818,-5.035136 -12.10286,-5.035209 -2.84022,7.3e-5 -5.58356,0.516505 -8.22996,1.549294 -2.64657,0.968385 -5.80945,2.711338 -9.48862,5.228874 -3.67937,2.453119 -8.06869,5.8422 -13.16795,10.167253 m -12.58699,0 c -4.64755,-3.937731 -8.81093,-7.165426 -12.49017,-9.683097 -3.6793,-2.582091 -6.90673,-4.421878 -9.6823,-5.519368 -2.77562,-1.09734 -5.80939,-1.646052 -9.10134,-1.646125 -4.71208,7.3e-5 -8.61728,1.646198 -11.71558,4.938378 -3.098347,3.292323 -4.647527,7.488328 -4.647497,12.58803 -3e-5,3.550524 0.80683,6.55228 2.42057,9.005278 1.613687,2.453099 3.582417,4.357439 5.906197,5.713029 2.38828,1.35568 5.3575,2.03349 8.90769,2.03345 4.64748,4e-5 9.16588,-1.22648 13.55522,-3.67957 4.38927,-2.45301 10.00501,-7.036336 16.84721,-13.750005"
       style="font-style:normal;font-variant:normal;font-weight:normal;font-stretch:normal;font-size:256px;line-height:100%;font-family:'Palatino Linotype';text-align:start;writing-mode:lr-tb;text-anchor:start;fill:none;fill-opacity:1;stroke:#eb3838;stroke-width:2.5;stroke-linecap:round;stroke-linejoin:round;stroke-opacity:1;stroke-miterlimit:4;stroke-dasharray:none;paint-order:normal" />
    <path
       id="text1326"
       d="m 150,83.705983 c 5.09925,-4.906031 10.00497,-9.069759 14.71709,-12.491196 4.71196,-3.485833 8.68171,-5.809777 11.90922,-6.971831 3.22735,-1.161887 6.74526,-1.742871 10.55371,-1.742956 8.00393,8.5e-5 14.45879,2.679071 19.36459,8.036971 4.97012,5.2935 7.45525,11.716614 7.45539,19.269365 -1.4e-4,5.164372 -1.09745,9.941365 -3.29198,14.330984 -2.1948,4.38971 -5.32538,7.71424 -9.39183,9.97359 -4.00214,2.25943 -8.61736,3.38912 -13.84569,3.38909 -6.77771,3e-5 -12.71618,-1.45243 -17.81544,-4.3574 -5.03487,-2.90489 -11.58655,-8.39197 -19.65506,-16.461261 -8.39138,8.327501 -15.07217,13.879141 -20.04235,16.654921 -4.97029,2.77586 -10.74739,4.16377 -17.33134,4.16374 -8.39133,3e-5 -14.943027,-2.61441 -19.655057,-7.84331 C 88.323753,104.42786 86,97.811081 86,89.806336 86,82.31814 88.452863,75.895024 93.358543,70.536971 98.328783,65.179071 104.81591,62.500085 112.81997,62.5 c 3.87287,8.5e-5 7.42307,0.581069 10.65052,1.742956 3.22741,1.162054 7.16486,3.485998 11.81243,6.971831 4.71196,3.421437 9.61767,7.585165 14.71708,12.491196 m 6.29349,6.003522 c 6.84207,6.778221 12.4578,11.393825 16.84721,13.846835 4.45376,2.38854 8.87534,3.58278 13.26476,3.58274 5.4865,4e-5 9.77899,-1.6138 12.87742,-4.84155 3.09825,-3.292199 4.64739,-7.262267 4.64751,-11.910207 -1.2e-4,-5.099702 -1.54926,-9.295707 -4.64751,-12.58803 -3.03389,-3.356732 -7.06818,-5.035136 -12.10286,-5.035209 -2.84022,7.3e-5 -5.58356,0.516505 -8.22996,1.549294 -2.64657,0.968385 -5.80945,2.711338 -9.48862,5.228874 -3.67937,2.453119 -8.06869,5.8422 -13.16795,10.167253 m -12.58699,0 c -4.64755,-3.937731 -8.81093,-7.165426 -12.49017,-9.683097 -3.6793,-2.582091 -6.90673,-4.421878 -9.6823,-5.519368 -2.77562,-1.09734 -5.80939,-1.646052 -9.10134,-1.646125 -4.71208,7.3e-5 -8.61728,1.646198 -11.71558,4.938378 -3.098347,3.292323 -4.647527,7.488328 -4.647497,12.58803 -3e-5,3.550524 0.80683,6.55228 2.42057,9.005278 1.613687,2.453099 3.582417,4.357439 5.906197,5.713029 2.38828,1.35568 5.3575,2.03349 8.90769,2.03345 4.64748,4e-5 9.16588,-1.22648 13.55522,-3.67957 4.38927,-2.45301 10.00501,-7.036336 16.84721,-13.750005"
       style="font-style:normal;font-variant:normal;font-weight:normal;font-stretch:normal;font-size:256px;line-height:100%;font-family:'Palatino Linotype';text-align:start;writing-mode:lr-tb;text-anchor:start;fill:#ffd872;fill-opacity:1;stroke:none;stroke-width:0.774615px;stroke-linecap:butt;stroke-linejoin:miter;stroke-opacity:1" />
  </g>
</svg>
