<?xml version="1.0" encoding="UTF-8" standalone="no"?>
<svg
   xmlns:dc="http://purl.org/dc/elements/1.1/"
   xmlns:cc="http://creativecommons.org/ns#"
   xmlns:rdf="http://www.w3.org/1999/02/22-rdf-syntax-ns#"
   xmlns:svg="http://www.w3.org/2000/svg"
   xmlns="http://www.w3.org/2000/svg"
   xmlns:sodipodi="http://sodipodi.sourceforge.net/DTD/sodipodi-0.dtd"
   xmlns:inkscape="http://www.inkscape.org/namespaces/inkscape"
   sodipodi:docname="id_art.svg"
   width="300mm"
   height="180mm"
   viewBox="0 0 300 180"
   version="1.1"
   id="svg8"
   inkscape:version="1.0.1 (3bc2e813f5, 2020-09-07)">
  <defs
     id="defs2">
    <clipPath
       id="clipPath905"
       clipPathUnits="userSpaceOnUse">
      <path
         d="M 270.00015,23.000146 C 246.01447,23.000146 230,43.6054 230,65.000166 c 0,44.073344 75.00008,89.999674 75.00008,89.999674 0,0 75.00006,-45.92633 75.00006,-89.999674 0,-21.394766 -16.01446,-42.00002 -40.00013,-42.00002 -27.95442,0 -34.99993,21.99969 -34.99993,21.99969 0,0 -7.04551,-21.99969 -34.99993,-21.99969 z"
         style="fill:#000000;fill-opacity:1;stroke-width:3.96899"
         id="path907" />
    </clipPath>
  </defs>
  <sodipodi:namedview
     inkscape:window-maximized="1"
     inkscape:window-y="-8"
     inkscape:window-x="-8"
     inkscape:window-height="1017"
     inkscape:window-width="1920"
     id="base"
     pagecolor="#000000"
     bordercolor="#666666"
     borderopacity="1.0"
     inkscape:pageopacity="0"
     inkscape:pageshadow="2"
     inkscape:zoom="0.7"
     inkscape:cx="598.52631"
     inkscape:cy="378.47688"
     inkscape:document-units="mm"
     inkscape:current-layer="layer2"
     inkscape:document-rotation="0"
     showgrid="false"
     inkscape:pagecheckerboard="true" />
  <metadata
     id="metadata5">
    <rdf:RDF>
      <cc:Work
         rdf:about="">
        <dc:format>image/svg+xml</dc:format>
        <dc:type
           rdf:resource="http://purl.org/dc/dcmitype/StillImage" />
        <dc:title />
      </cc:Work>
    </rdf:RDF>
  </metadata>
  <g
     style="display:inline"
     inkscape:label="Bkgd"
     id="layer2"
     inkscape:groupmode="layer">
    <rect
       style="fill:#bfbfbf;fill-opacity:1;stroke-width:0.264459;stroke-linecap:round;stroke-linejoin:round;stroke-opacity:0"
       id="rect845"
       width="300"
       height="180"
       x="0"
       y="0" />
  </g>
  <g
     inkscape:groupmode="layer"
     id="layer1"
     inkscape:label="Text">
    <g
       id="g863"
       transform="matrix(1.4999967,0,0,1.4999967,-24.999918,-33.749604)"
       style="display:inline">
      <path
         style="fill:#ffffff;fill-opacity:1;stroke:none;stroke-width:0.264;stroke-linecap:round;stroke-linejoin:round;stroke-opacity:0"
         d="m 25,120 c 0,0 21.162266,-75 60,-75 v 75 H 75 V 60 c -18.571958,0 -40,60 -40,60 z"
         id="path851"
         sodipodi:nodetypes="ccccccc" />
      <path
         id="path853"
         style="fill:#ffffff;fill-opacity:1;stroke:none;stroke-width:0.997795;stroke-linecap:round;stroke-linejoin:round;stroke-opacity:0"
         d="m 340.1582,170.07812 v 283.46485 h 37.79492 V 340.1582 c 126.38626,33.8651 151.18165,113.38477 151.18165,113.38477 h 37.79492 c 0,0 -27.69305,-80.29682 -151.18165,-113.38549 33.74094,0 151.18165,17.5414 151.18165,-75.59107 0,-93.13247 -130.52022,-94.48829 -226.77149,-94.48829 z m 37.79492,56.69336 c 56.16806,0 151.18074,-3.25031 151.18074,37.79493 0,41.04524 -96.33756,37.79492 -151.18074,37.79492 z"
         transform="scale(0.26458333)"
         sodipodi:nodetypes="ccccccczcczcc" />
      <path
         style="fill:#ffffff;fill-opacity:1;stroke:none;stroke-width:0.264;stroke-linecap:round;stroke-linejoin:round;stroke-opacity:0"
         d="m 208.33374,45 v 10 h -26.66673 v 65 H 170.00032 L 170,55 H 155 V 45 Z"
         id="path858"
         sodipodi:nodetypes="ccccccccc" />
    </g>
  </g>
</svg>
