<?xml version="1.0" encoding="UTF-8" standalone="no"?>
<svg
   xmlns:dc="http://purl.org/dc/elements/1.1/"
   xmlns:cc="http://creativecommons.org/ns#"
   xmlns:rdf="http://www.w3.org/1999/02/22-rdf-syntax-ns#"
   xmlns:svg="http://www.w3.org/2000/svg"
   xmlns="http://www.w3.org/2000/svg"
   xmlns:xlink="http://www.w3.org/1999/xlink"
   xmlns:sodipodi="http://sodipodi.sourceforge.net/DTD/sodipodi-0.dtd"
   xmlns:inkscape="http://www.inkscape.org/namespaces/inkscape"
   sodipodi:docname="id_games.svg"
   width="300mm"
   height="180mm"
   viewBox="0 0 300 180"
   version="1.1"
   id="svg8"
   inkscape:version="1.0.1 (3bc2e813f5, 2020-09-07)">
  <defs
     id="defs2">
    <inkscape:perspective
       sodipodi:type="inkscape:persp3d"
       inkscape:vp_x="108.16653 : 108.16653 : 0"
       inkscape:vp_y="-1.8369095e-13 : 1000 : 0"
       inkscape:vp_z="359.62325 : -57.248261 : 1"
       inkscape:persp3d-origin="93.8734 : -87.916984 : 1"
       id="perspective998" />
    <linearGradient
       inkscape:collect="always"
       id="linearGradient980">
      <stop
         style="stop-color:#3d5275;stop-opacity:1"
         offset="0"
         id="stop976" />
      <stop
         style="stop-color:#b3d6f5;stop-opacity:1"
         offset="1"
         id="stop978" />
    </linearGradient>
    <clipPath
       id="clipPath905"
       clipPathUnits="userSpaceOnUse">
      <path
         d="M 270.00015,23.000146 C 246.01447,23.000146 230,43.6054 230,65.000166 c 0,44.073344 75.00008,89.999674 75.00008,89.999674 0,0 75.00006,-45.92633 75.00006,-89.999674 0,-21.394766 -16.01446,-42.00002 -40.00013,-42.00002 -27.95442,0 -34.99993,21.99969 -34.99993,21.99969 0,0 -7.04551,-21.99969 -34.99993,-21.99969 z"
         style="fill:#000000;fill-opacity:1;stroke-width:3.96899"
         id="path907" />
    </clipPath>
    <linearGradient
       inkscape:collect="always"
       xlink:href="#linearGradient980"
       id="linearGradient982"
       x1="247.51105"
       y1="55.082237"
       x2="247.51105"
       y2="109.89513"
       gradientUnits="userSpaceOnUse"
       gradientTransform="matrix(3.75,0,0,1.5454545,-806.25,-84.999997)" />
  </defs>
  <sodipodi:namedview
     inkscape:window-maximized="1"
     inkscape:window-y="-8"
     inkscape:window-x="-8"
     inkscape:window-height="1017"
     inkscape:window-width="1920"
     id="base"
     pagecolor="#000000"
     bordercolor="#666666"
     borderopacity="1.0"
     inkscape:pageopacity="0"
     inkscape:pageshadow="2"
     inkscape:zoom="0.70710678"
     inkscape:cx="526.03115"
     inkscape:cy="167.9893"
     inkscape:document-units="mm"
     inkscape:current-layer="layer1"
     inkscape:document-rotation="0"
     showgrid="false"
     inkscape:pagecheckerboard="true" />
  <metadata
     id="metadata5">
    <rdf:RDF>
      <cc:Work
         rdf:about="">
        <dc:format>image/svg+xml</dc:format>
        <dc:type
           rdf:resource="http://purl.org/dc/dcmitype/StillImage" />
        <dc:title />
      </cc:Work>
    </rdf:RDF>
  </metadata>
  <g
     inkscape:groupmode="layer"
     id="layer1"
     inkscape:label="Layer 1"
     style="display:inline">
    <rect
       style="fill:#69625d;fill-opacity:1;stroke-width:0.636362;stroke-linecap:round;stroke-linejoin:round;stroke-opacity:0"
       id="rect970"
       width="300"
       height="85"
       x="0"
       y="95" />
    <rect
       style="fill:url(#linearGradient982);fill-opacity:1;stroke-width:0.636363;stroke-linecap:round;stroke-linejoin:round;stroke-opacity:0"
       id="rect974"
       width="300"
       height="85"
       x="0"
       y="0" />
    <rect
       style="fill:#eaffff;fill-opacity:1;stroke-width:0.239105;stroke-linecap:round;stroke-linejoin:round;stroke-opacity:0"
       id="rect972"
       width="300"
       height="12"
       x="0"
       y="84" />
    <g
       id="g1042"
       style="fill:#3d5275;fill-opacity:1;stroke-width:0.07745967;stroke-linecap:round;stroke-linejoin:round;stroke-opacity:1;stroke:#000000;stroke-miterlimit:4;stroke-dasharray:none"
       transform="matrix(1.6666667,0,0,1,-265.58269,-28.132886)">
      <path
         d="m 249.34961,64.899088 -30,25 30,25.000002 30,-25.000002 z"
         style="fill:#dae1e5;fill-opacity:1;fill-rule:evenodd;stroke:#000000;stroke-linejoin:round;stroke-opacity:1;stroke-width:0.07745967;stroke-miterlimit:4;stroke-dasharray:none"
         id="path1062"
         sodipodi:nodetypes="ccccc" />
      <path
         d="M 219.34961,89.899088 V 150 l 30,25 v -60.10091 z"
         style="fill:#caccca;fill-opacity:1;fill-rule:evenodd;stroke:#000000;stroke-linejoin:round;stroke-opacity:1;stroke-width:0.07745967;stroke-miterlimit:4;stroke-dasharray:none"
         id="path1064"
         sodipodi:nodetypes="ccccc" />
      <path
         d="m 279.34961,89.899088 -30,25.000002 V 175 l 30,-25 z"
         style="fill:#7e8999;fill-opacity:1;fill-rule:evenodd;stroke:#000000;stroke-linejoin:round;stroke-opacity:1;stroke-width:0.07745967;stroke-miterlimit:4;stroke-dasharray:none"
         id="path1066"
         sodipodi:nodetypes="ccccc" />
    </g>
    <g
       id="g1084"
       transform="matrix(1.6618372,0,0,1.6618372,-273.76848,-88.879802)"
       style="stroke:#000000;stroke-width:0.1;stroke-linecap:round;stroke-linejoin:round;stroke-miterlimit:4;stroke-dasharray:none;stroke-opacity:1">
      <path
         style="fill:#b4ff02;fill-opacity:1;stroke:#000000;stroke-width:0.1;stroke-linecap:round;stroke-linejoin:round;stroke-miterlimit:4;stroke-dasharray:none;stroke-opacity:1"
         d="m 254,110 h 2 c 0,0 0,-24.504462 0,-25 0.49687,0 1,-0.5 1,-0.5 L 255,80.561322 253,84.5 c 0,0 0.49726,0.5 1,0.5 0,0.509164 0,25 0,25 z"
         id="path1072"
         sodipodi:nodetypes="cccccccc" />
      <path
         style="fill:#005dff;fill-opacity:1;stroke:#000000;stroke-width:0.1;stroke-linecap:round;stroke-linejoin:round;stroke-miterlimit:4;stroke-dasharray:none;stroke-opacity:1"
         d="M 254.9235,108.22598 254,110 c 0,0 21.73572,11.3149 22.17526,11.54371 -0.22943,0.44074 -0.0183,1.11789 -0.0183,1.11789 l 4.41714,0.0446 -2.57016,-3.59269 c 0,0 -0.67312,0.21013 -0.90525,0.65614 -0.45162,-0.23511 -22.17526,-11.54372 -22.17526,-11.54372 z"
         id="path1074"
         sodipodi:nodetypes="cccccccc" />
      <path
         style="fill:#ff4500;fill-opacity:1;stroke:#000000;stroke-width:0.1;stroke-linecap:round;stroke-linejoin:round;stroke-miterlimit:4;stroke-dasharray:none;stroke-opacity:1"
         d="m 256.00004,110.00001 -0.9235,-1.77402 c 0,0 -21.73571,11.31489 -22.17524,11.5437 -0.22944,-0.44072 -0.90526,-0.65613 -0.90526,-0.65613 l -2.57015,3.59272 4.41714,-0.0447 c 0,0 0.21396,-0.67192 -0.0183,-1.11786 C 234.27636,121.30861 256,110 256,110 Z"
         id="path1076"
         sodipodi:nodetypes="cccccccc" />
      <circle
         style="fill:#ffffff;fill-opacity:1;stroke:#000000;stroke-width:0.1;stroke-linecap:round;stroke-linejoin:round;stroke-miterlimit:4;stroke-dasharray:none;stroke-opacity:1"
         id="path1078"
         cx="255"
         cy="109.54104"
         r="1.8512528" />
    </g>
    <g
       aria-label="game design"
       id="text891"
       style="font-style:normal;font-variant:normal;font-weight:normal;font-stretch:normal;font-size:50.8px;line-height:1.25;font-family:'Exo 2';-inkscape-font-specification:'Exo 2, ';letter-spacing:0px;word-spacing:0px;writing-mode:lr-tb;fill:#ffffff;fill-opacity:1;stroke:none;stroke-width:0.264583"
       transform="matrix(0.69901905,0,0,0.69901905,42.903318,1.838031)">
      <g
         id="g996"
         style="opacity:1;fill:#ffffff;fill-opacity:1;stroke:none">
        <path
           style="color:#000000;font-style:normal;font-variant:normal;font-weight:normal;font-stretch:normal;font-size:medium;line-height:1.25;font-family:'Exo 2';-inkscape-font-specification:'Exo 2, ';font-variant-ligatures:normal;font-variant-position:normal;font-variant-caps:normal;font-variant-numeric:normal;font-variant-alternates:normal;font-variant-east-asian:normal;font-feature-settings:normal;font-variation-settings:normal;text-indent:0;text-align:start;text-decoration:none;text-decoration-line:none;text-decoration-style:solid;text-decoration-color:#000000;letter-spacing:0px;word-spacing:0px;text-transform:none;writing-mode:lr-tb;direction:ltr;text-orientation:mixed;dominant-baseline:auto;baseline-shift:baseline;text-anchor:start;white-space:normal;shape-padding:0;shape-margin:0;inline-size:0;clip-rule:nonzero;display:inline;overflow:visible;visibility:visible;isolation:auto;mix-blend-mode:normal;color-interpolation:sRGB;color-interpolation-filters:linearRGB;solid-color:#000000;solid-opacity:1;vector-effect:none;fill:#ffffff;fill-opacity:1;fill-rule:nonzero;stroke:none;stroke-width:0.264583;stroke-linecap:butt;stroke-linejoin:miter;stroke-miterlimit:4;stroke-dasharray:none;stroke-dashoffset:0;stroke-opacity:1;color-rendering:auto;image-rendering:auto;shape-rendering:auto;text-rendering:auto;enable-background:accumulate;stop-color:#000000;stop-opacity:1"
           d="m 35.176884,17.864668 -3.6576,0.3048 c 0.677333,1.117599 1.016,2.641599 1.016,4.571999 0,2.777067 -0.795867,4.792133 -2.3876,6.0452 -1.591733,1.2192 -4.334933,1.8288 -8.2296,1.8288 -1.896533,0 -3.6068,-0.169333 -5.1308,-0.508 -0.643467,0.778933 -0.829733,1.642533 -0.5588,2.5908 0.270933,0.9144 1.032933,1.4732 2.286,1.6764 l 9.2456,1.4732 c 2.302933,0.338667 3.9116,1.0668 4.826,2.1844 0.948267,1.083733 1.4224,2.675467 1.4224,4.7752 0,2.878667 -0.8636,4.8768 -2.5908,5.9944 -1.693333,1.1176 -4.758267,1.6764 -9.1948,1.6764 -4.4704,0 -7.586133,-0.5588 -9.3472,-1.6764 -1.727199,-1.083733 -2.590799,-3.031067 -2.590799,-5.842 0,-1.456267 0.3048,-2.624667 0.914399,-3.5052 0.6096,-0.880533 1.642533,-1.710267 3.0988,-2.4892 -1.253067,-0.982133 -1.8288,-2.286 -1.7272,-3.9116 0.1016,-1.6256 0.745067,-2.8956 1.9304,-3.81 -2.099733,-1.1176 -3.1496,-3.268133 -3.1496,-6.4516 0,-2.844799 0.778933,-4.876799 2.3368,-6.095999 1.591733,-1.2192 4.351867,-1.8288 8.2804,-1.8288 2.3368,0 4.250267,0.2032 5.7404,0.6096 h 7.7216 z m -18.3896,8.432799 c 0.982133,0.677333 2.6924,1.016 5.1308,1.016 2.4384,0 4.148667,-0.338667 5.1308,-1.016 0.982133,-0.7112 1.4732,-1.896533 1.4732,-3.556 0,-1.659467 -0.491067,-2.827867 -1.4732,-3.5052 -0.948267,-0.711199 -2.658533,-1.066799 -5.1308,-1.066799 -2.4384,0 -4.148667,0.3556 -5.1308,1.066799 -0.982133,0.677333 -1.4732,1.845733 -1.4732,3.5052 0,1.659467 0.491067,2.8448 1.4732,3.556 z m 8.7376,12.7508 -8.4328,-1.1684 c -1.7272,1.3208 -2.5908,2.8956 -2.5908,4.7244 0,1.7272 0.508,2.861733 1.524,3.4036 1.016,0.541867 3.064933,0.8128 6.1468,0.8128 3.014133,0 5.0292,-0.287867 6.0452,-0.8636 1.049867,-0.541867 1.5748,-1.659467 1.5748,-3.3528 0,-1.2192 -0.270933,-2.048933 -0.8128,-2.4892 -0.508,-0.440267 -1.659467,-0.795867 -3.4544,-1.0668 z"
           id="path998" />
        <path
           style="color:#000000;font-style:normal;font-variant:normal;font-weight:normal;font-stretch:normal;font-size:medium;line-height:1.25;font-family:'Exo 2';-inkscape-font-specification:'Exo 2, ';font-variant-ligatures:normal;font-variant-position:normal;font-variant-caps:normal;font-variant-numeric:normal;font-variant-alternates:normal;font-variant-east-asian:normal;font-feature-settings:normal;font-variation-settings:normal;text-indent:0;text-align:start;text-decoration:none;text-decoration-line:none;text-decoration-style:solid;text-decoration-color:#000000;letter-spacing:0px;word-spacing:0px;text-transform:none;writing-mode:lr-tb;direction:ltr;text-orientation:mixed;dominant-baseline:auto;baseline-shift:baseline;text-anchor:start;white-space:normal;shape-padding:0;shape-margin:0;inline-size:0;clip-rule:nonzero;display:inline;overflow:visible;visibility:visible;isolation:auto;mix-blend-mode:normal;color-interpolation:sRGB;color-interpolation-filters:linearRGB;solid-color:#000000;solid-opacity:1;vector-effect:none;fill:#ffffff;fill-opacity:1;fill-rule:nonzero;stroke:none;stroke-width:0.264583;stroke-linecap:butt;stroke-linejoin:miter;stroke-miterlimit:4;stroke-dasharray:none;stroke-dashoffset:0;stroke-opacity:1;color-rendering:auto;image-rendering:auto;shape-rendering:auto;text-rendering:auto;enable-background:accumulate;stop-color:#000000;stop-opacity:1"
           d="m 21.96875,14.734375 c -3.942219,0 -6.727885,0.606274 -8.361328,1.857422 -1.597194,1.249978 -2.388672,3.332224 -2.388672,6.201172 0,3.140025 1.043768,5.309102 3.09375,6.472656 -1.127785,0.928436 -1.773469,2.186043 -1.873047,3.779297 -0.100144,1.60231 0.487391,2.906858 1.677735,3.90039 -1.381787,0.759345 -2.423818,1.561834 -3.027344,2.433594 -0.629027,0.908596 -0.9375,2.105352 -0.9375,3.580078 0,2.83803 0.881526,4.843977 2.652344,5.955078 1.803825,1.144736 4.936544,1.697266 9.417968,1.697266 4.447642,0 7.529914,-0.55236 9.267578,-1.699219 1.770694,-1.145743 2.650391,-3.200343 2.650391,-6.105468 0,-2.117661 -0.478824,-3.741912 -1.453125,-4.857422 -0.944431,-1.154305 -2.586211,-1.890938 -4.90625,-2.232422 h -0.002 l -9.244141,-1.472656 c -1.222831,-0.198297 -1.923378,-0.719313 -2.179687,-1.582032 v -0.002 c -0.253829,-0.890475 -0.07992,-1.677969 0.505859,-2.414062 1.511806,0.327618 3.190418,0.501953 5.056641,0.501953 3.908471,0 6.677463,-0.604596 8.310547,-1.855469 v -0.002 h 0.002 c 1.629055,-1.282447 2.4375,-3.346096 2.4375,-6.148437 0,-1.856662 -0.332854,-3.326028 -0.964844,-4.455079 l 3.59375,-0.298828 0.01172,-0.109375 0.269531,-2.533203 h -7.869141 c -1.502934,-0.406 -3.410043,-0.611328 -5.740234,-0.611328 z m 0,0.265625 c 2.329131,0 4.23188,0.203688 5.705078,0.605469 l 0.01758,0.0039 h 7.591797 l -0.226562,2.132813 -3.761719,0.3125 0.111328,0.183593 c 0.659835,1.088727 0.996094,2.588979 0.996094,4.503907 0,2.75106 -0.782349,4.715698 -2.335938,5.939453 -1.550383,1.187527 -4.267575,1.800781 -8.148437,1.800781 -1.888659,0 -3.588907,-0.167761 -5.101563,-0.503906 l -0.08008,-0.01758 -0.05078,0.0625 c -0.666061,0.806283 -0.865147,1.72687 -0.583985,2.710937 v 0.002 c 0.285957,0.965104 1.110049,1.561554 2.392579,1.769531 l 9.246093,1.472657 c 2.284703,0.335985 3.860061,1.056176 4.744141,2.136718 v 0.002 l 0.002,0.002 c 0.920385,1.051868 1.390625,2.607681 1.390625,4.6875 0,2.852208 -0.847544,4.795308 -2.53125,5.884765 -1.649002,1.088342 -4.697622,1.654297 -9.123047,1.654297 -4.459375,0 -7.557083,-0.565785 -9.27539,-1.65625 h -0.002 c -1.683581,-1.056365 -2.527343,-2.946631 -2.527343,-5.730469 0,-1.437807 0.300453,-2.577216 0.890625,-3.429687 0.591929,-0.855009 1.607979,-1.67449 3.052734,-2.447266 l 0.177734,-0.0957 -0.160156,-0.125 c -1.223809,-0.959202 -1.775165,-2.208677 -1.675781,-3.798828 0.0997,-1.595175 0.722145,-2.822485 1.878906,-3.714844 l 0.16211,-0.125 -0.181641,-0.0957 c -2.053744,-1.093122 -3.078125,-3.179603 -3.078125,-6.333984 0,-2.820651 0.766617,-4.803765 2.285156,-5.992188 C 15.319555,15.613529 18.053902,15 21.96875,15 Z m -0.05078,3.037109 c -2.448868,0 -4.180439,0.349629 -5.205078,1.089844 -1.0237,0.706 -1.53125,1.92967 -1.53125,3.615235 0,1.685564 0.505621,2.922241 1.527343,3.662109 l 0.002,0.002 h 0.002 c 1.024255,0.706383 2.754429,1.039063 5.205078,1.039062 2.450649,0 4.180822,-0.332679 5.205078,-1.039062 h 0.002 l 0.002,-0.002 c 1.021722,-0.739868 1.527344,-1.976545 1.527344,-3.662109 0,-1.68431 -0.507129,-2.907039 -1.529297,-3.613282 -0.992894,-0.742797 -2.72453,-1.091797 -5.207031,-1.091797 z m 0,0.265625 c 2.459581,0 4.146662,0.360974 5.050781,1.039063 l 0.002,0.002 0.0039,0.002 c 0.940567,0.648667 1.416016,1.763116 1.416016,3.396485 0,1.633368 -0.477377,2.764733 -1.419922,3.447265 h 0.0039 c -0.940011,0.648284 -2.630489,0.992188 -5.05664,0.992188 -2.425096,0 -4.112481,-0.344451 -5.052735,-0.992188 -0.942544,-0.682532 -1.417968,-1.813897 -1.417968,-3.447265 0,-1.633369 0.475449,-2.747818 1.416015,-3.396485 v -0.002 h 0.002 c 0.94001,-0.680696 2.627196,-1.041016 5.052735,-1.041016 z m -4.863281,19.439454 -0.04297,0.0332 c -1.750604,1.338697 -2.642578,2.957677 -2.642578,4.828125 0,1.753139 0.526252,2.952152 1.59375,3.521484 1.065006,0.568004 3.119364,0.828125 6.208984,0.828125 3.018696,0 5.039564,-0.27711 6.105469,-0.878906 1.099774,-0.567626 1.646484,-1.75003 1.646484,-3.470703 0,-1.236021 -0.271899,-2.109232 -0.857422,-2.587891 -2.81e-4,-2.44e-4 -0.0017,2.44e-4 -0.002,0 -0.556456,-0.481591 -1.716874,-0.825557 -3.519531,-1.097656 h -0.002 z m 0.08398,0.279296 8.367187,1.158204 c 1.786298,0.269629 2.926844,0.636597 3.386719,1.035156 l 0.002,0.002 h 0.002 c 0.495483,0.402579 0.763672,1.187117 0.763672,2.386719 0,1.665993 -0.503947,2.72022 -1.503906,3.236328 h -0.002 l -0.002,0.002 c -0.96718,0.548069 -2.974759,0.845703 -5.980469,0.845703 -3.074113,0 -5.116991,-0.281145 -6.083984,-0.796875 -0.964503,-0.514401 -1.455079,-1.585849 -1.455079,-3.287109 0,-1.771589 0.831898,-3.286565 2.50586,-4.582032 z"
           id="path1000" />
      </g>
      <g
         id="g1002"
         style="opacity:1;fill:#ffffff;fill-opacity:1;stroke:none">
        <path
           style="color:#000000;font-style:normal;font-variant:normal;font-weight:normal;font-stretch:normal;font-size:medium;line-height:1.25;font-family:'Exo 2';-inkscape-font-specification:'Exo 2, ';font-variant-ligatures:normal;font-variant-position:normal;font-variant-caps:normal;font-variant-numeric:normal;font-variant-alternates:normal;font-variant-east-asian:normal;font-feature-settings:normal;font-variation-settings:normal;text-indent:0;text-align:start;text-decoration:none;text-decoration-line:none;text-decoration-style:solid;text-decoration-color:#000000;letter-spacing:0px;word-spacing:0px;text-transform:none;writing-mode:lr-tb;direction:ltr;text-orientation:mixed;dominant-baseline:auto;baseline-shift:baseline;text-anchor:start;white-space:normal;shape-padding:0;shape-margin:0;inline-size:0;clip-rule:nonzero;display:inline;overflow:visible;visibility:visible;isolation:auto;mix-blend-mode:normal;color-interpolation:sRGB;color-interpolation-filters:linearRGB;solid-color:#000000;solid-opacity:1;vector-effect:none;fill:#ffffff;fill-opacity:1;fill-rule:nonzero;stroke:none;stroke-width:0.264583;stroke-linecap:butt;stroke-linejoin:miter;stroke-miterlimit:4;stroke-dasharray:none;stroke-dashoffset:0;stroke-opacity:1;color-rendering:auto;image-rendering:auto;shape-rendering:auto;text-rendering:auto;enable-background:accumulate;stop-color:#000000;stop-opacity:1"
           d="m 40.409162,19.185467 -0.4064,-3.200399 c 4.538133,-0.745067 8.517467,-1.1176 11.938,-1.1176 2.878667,0 5.012267,0.6096 6.4008,1.8288 1.388533,1.185333 2.0828,3.217333 2.0828,6.095999 v 17.4244 h -3.4036 l -0.508,-4.064 c -1.185333,1.185333 -2.675467,2.2352 -4.4704,3.1496 -1.761067,0.9144 -3.674533,1.3716 -5.7404,1.3716 -2.269067,0 -4.080933,-0.592667 -5.4356,-1.778 -1.3208,-1.2192 -1.9812,-2.929467 -1.9812,-5.1308 v -2.6924 c 0,-1.9304 0.592667,-3.420533 1.778,-4.4704 1.2192,-1.083733 2.912533,-1.6256 5.08,-1.6256 h 10.3124 v -2.1844 c 0,-1.557867 -0.3556,-2.658533 -1.0668,-3.302 -0.7112,-0.643466 -2.032,-0.965199 -3.9624,-0.965199 -2.4384,0 -5.977467,0.220133 -10.6172,0.660399 z m 2.8956,12.4968 v 1.5748 c 0,1.286933 0.3048,2.2352 0.9144,2.8448 0.6096,0.575733 1.591733,0.8636 2.9464,0.8636 1.286933,0.03387 2.7432,-0.270933 4.3688,-0.9144 1.659467,-0.643467 3.166533,-1.5748 4.5212,-2.794 v -4.9784 h -9.5504 c -1.151467,0.03387 -1.9812,0.338667 -2.4892,0.9144 -0.474133,0.575733 -0.7112,1.405467 -0.7112,2.4892 z"
           id="path1004" />
        <path
           style="color:#000000;font-style:normal;font-variant:normal;font-weight:normal;font-stretch:normal;font-size:medium;line-height:1.25;font-family:'Exo 2';-inkscape-font-specification:'Exo 2, ';font-variant-ligatures:normal;font-variant-position:normal;font-variant-caps:normal;font-variant-numeric:normal;font-variant-alternates:normal;font-variant-east-asian:normal;font-feature-settings:normal;font-variation-settings:normal;text-indent:0;text-align:start;text-decoration:none;text-decoration-line:none;text-decoration-style:solid;text-decoration-color:#000000;letter-spacing:0px;word-spacing:0px;text-transform:none;writing-mode:lr-tb;direction:ltr;text-orientation:mixed;dominant-baseline:auto;baseline-shift:baseline;text-anchor:start;white-space:normal;shape-padding:0;shape-margin:0;inline-size:0;clip-rule:nonzero;display:inline;overflow:visible;visibility:visible;isolation:auto;mix-blend-mode:normal;color-interpolation:sRGB;color-interpolation-filters:linearRGB;solid-color:#000000;solid-opacity:1;vector-effect:none;fill:#ffffff;fill-opacity:1;fill-rule:nonzero;stroke:none;stroke-width:0.264583;stroke-linecap:butt;stroke-linejoin:miter;stroke-miterlimit:4;stroke-dasharray:none;stroke-dashoffset:0;stroke-opacity:1;color-rendering:auto;image-rendering:auto;shape-rendering:auto;text-rendering:auto;enable-background:accumulate;stop-color:#000000;stop-opacity:1"
           d="m 51.941406,14.734375 c -3.430138,0 -7.41756,0.375166 -11.960937,1.121094 l -0.125,0.01953 0.439453,3.455078 0.126953,-0.01367 c 4.637564,-0.44006 8.173078,-0.658203 10.603516,-0.658203 1.915701,0 3.207956,0.326173 3.875,0.929688 0.671813,0.607831 1.023437,1.667342 1.023437,3.205078 v 2.050781 h -10.18164 c -2.189516,0 -3.917722,0.550561 -5.166016,1.660156 -1.21546,1.07655 -1.824219,2.610882 -1.824219,4.56836 v 2.693359 c 0,2.227792 0.675432,3.980446 2.025391,5.226563 v 0.002 l 0.002,0.002 c 1.382214,1.209437 3.231335,1.810547 5.523437,1.810547 2.084744,0 4.019438,-0.463139 5.798828,-1.386719 1.726045,-0.879306 3.136581,-1.902291 4.306641,-3.035156 l 0.496094,3.964843 h 3.652344 v -17.55664 c 0,-2.898605 -0.699524,-4.975417 -2.126953,-6.195313 -1.422594,-1.249106 -3.590939,-1.863281 -6.488282,-1.863281 z m 0,0.265625 c 2.85999,0 4.958027,0.605628 6.3125,1.794922 l 0.002,0.002 c 1.348313,1.150998 2.03711,3.138698 2.03711,5.996094 v 17.291015 h -3.15625 l -0.525391,-4.216796 -0.191406,0.191406 c -1.173752,1.173751 -2.652673,2.215748 -4.4375,3.125 v 0.002 h -0.002 c -1.742291,0.904651 -3.631386,1.355469 -5.677735,1.355469 -2.244197,0 -4.018936,-0.582849 -5.345703,-1.742188 C 39.66539,37.606544 39.017578,35.9405 39.017578,33.765625 v -2.693359 c 0,-1.903323 0.577215,-3.347911 1.732422,-4.371094 h 0.002 c 1.190106,-1.057872 2.844816,-1.591797 4.990235,-1.591797 H 56.1875 v -2.316406 c 0,-1.577998 -0.358789,-2.721289 -1.109375,-3.400391 -0.755357,-0.683417 -2.107635,-1 -4.052734,-1 -2.416696,0 -5.940753,0.224437 -10.5,0.654297 L 40.152344,16.103516 C 44.624234,15.375327 48.567362,15 51.941406,15 Z m -5.439453,13.146484 c -1.172915,0.0345 -2.04598,0.347034 -2.585937,0.958985 v 0.002 l -0.002,0.002 c -0.500027,0.607176 -0.742187,1.46924 -0.742187,2.572266 v 1.576171 c 0,1.307822 0.310611,2.294987 0.953125,2.9375 l 0.002,0.002 h 0.002 c 0.645163,0.60932 1.663702,0.90039 3.03711,0.90039 1.309034,0.03386 2.780787,-0.276781 4.416015,-0.923828 1.674412,-0.649262 3.19647,-1.588932 4.5625,-2.818359 l 0.04297,-0.03906 v -5.169922 h -9.683594 z m 0.0039,0.263672 h 9.417969 v 4.775391 c -1.333177,1.191795 -2.808878,2.110681 -4.4375,2.742187 -1.613753,0.638778 -3.052963,0.939499 -4.316406,0.90625 h -0.002 -0.002 c -1.334562,0 -2.279307,-0.285103 -2.853516,-0.826172 l -0.002,-0.002 c -0.575372,-0.576728 -0.8729,-1.483261 -0.8729,-2.748 v -1.576171 c 0,-1.062613 0.231004,-1.856171 0.677734,-2.400391 9.6e-5,-1.16e-4 0.0019,1.16e-4 0.002,0 0.475521,-0.538072 1.261848,-0.837233 2.388671,-0.871094 z"
           id="path1006" />
      </g>
      <g
         id="g1008"
         style="opacity:1;fill:#ffffff;fill-opacity:1;stroke:none">
        <path
           style="color:#000000;font-style:normal;font-variant:normal;font-weight:normal;font-stretch:normal;font-size:medium;line-height:1.25;font-family:'Exo 2';-inkscape-font-specification:'Exo 2, ';font-variant-ligatures:normal;font-variant-position:normal;font-variant-caps:normal;font-variant-numeric:normal;font-variant-alternates:normal;font-variant-east-asian:normal;font-feature-settings:normal;font-variation-settings:normal;text-indent:0;text-align:start;text-decoration:none;text-decoration-line:none;text-decoration-style:solid;text-decoration-color:#000000;letter-spacing:0px;word-spacing:0px;text-transform:none;writing-mode:lr-tb;direction:ltr;text-orientation:mixed;dominant-baseline:auto;baseline-shift:baseline;text-anchor:start;white-space:normal;shape-padding:0;shape-margin:0;inline-size:0;clip-rule:nonzero;display:inline;overflow:visible;visibility:visible;isolation:auto;mix-blend-mode:normal;color-interpolation:sRGB;color-interpolation-filters:linearRGB;solid-color:#000000;solid-opacity:1;vector-effect:none;fill:#ffffff;fill-opacity:1;fill-rule:nonzero;stroke:none;stroke-width:0.264583;stroke-linecap:butt;stroke-linejoin:miter;stroke-miterlimit:4;stroke-dasharray:none;stroke-dashoffset:0;stroke-opacity:1;color-rendering:auto;image-rendering:auto;shape-rendering:auto;text-rendering:auto;enable-background:accumulate;stop-color:#000000;stop-opacity:1"
           d="m 71.701953,15.477068 0.254,3.911599 c 3.488267,-3.014133 6.858,-4.521199 10.109199,-4.521199 3.4544,0 5.5372,1.456266 6.2484,4.368799 3.3528,-2.912533 6.671733,-4.368799 9.9568,-4.368799 2.133598,0 3.759198,0.575733 4.876798,1.7272 1.15147,1.151467 1.7272,2.8448 1.7272,5.079999 v 18.542 h -4.2672 v -17.3228 c -0.0339,-1.524 -0.3556,-2.624667 -0.965198,-3.302 -0.575733,-0.711199 -1.540933,-1.066799 -2.8956,-1.066799 -1.185333,0 -2.3368,0.270933 -3.4544,0.812799 -1.083733,0.541867 -2.6416,1.557867 -4.6736,3.048 v 17.8308 h -4.1656 v -17.3228 c 0,-1.557867 -0.321733,-2.675467 -0.9652,-3.3528 -0.6096,-0.677333 -1.5748,-1.015999 -2.8956,-1.015999 -1.185333,0 -2.336799,0.270933 -3.454399,0.812799 -1.083733,0.541867 -2.6416,1.540933 -4.6736,2.9972 v 17.8816 h -4.318 V 15.477068 Z"
           id="path1010" />
        <path
           style="color:#000000;font-style:normal;font-variant:normal;font-weight:normal;font-stretch:normal;font-size:medium;line-height:1.25;font-family:'Exo 2';-inkscape-font-specification:'Exo 2, ';font-variant-ligatures:normal;font-variant-position:normal;font-variant-caps:normal;font-variant-numeric:normal;font-variant-alternates:normal;font-variant-east-asian:normal;font-feature-settings:normal;font-variation-settings:normal;text-indent:0;text-align:start;text-decoration:none;text-decoration-line:none;text-decoration-style:solid;text-decoration-color:#000000;letter-spacing:0px;word-spacing:0px;text-transform:none;writing-mode:lr-tb;direction:ltr;text-orientation:mixed;dominant-baseline:auto;baseline-shift:baseline;text-anchor:start;white-space:normal;shape-padding:0;shape-margin:0;inline-size:0;clip-rule:nonzero;display:inline;overflow:visible;visibility:visible;isolation:auto;mix-blend-mode:normal;color-interpolation:sRGB;color-interpolation-filters:linearRGB;solid-color:#000000;solid-opacity:1;vector-effect:none;fill:#ffffff;fill-opacity:1;fill-rule:nonzero;stroke:none;stroke-width:0.264583;stroke-linecap:butt;stroke-linejoin:miter;stroke-miterlimit:4;stroke-dasharray:none;stroke-dashoffset:0;stroke-opacity:1;color-rendering:auto;image-rendering:auto;shape-rendering:auto;text-rendering:auto;enable-background:accumulate;stop-color:#000000;stop-opacity:1"
           d="m 82.064453,14.734375 c -3.227374,0 -6.561399,1.509874 -9.992187,4.419922 l -0.246094,-3.808594 h -0.125 -3.6875 v 25.003906 h 4.582031 V 22.408203 c 1.993808,-1.426152 3.541315,-2.421896 4.599609,-2.951172 1.10108,-0.533856 2.231311,-0.798828 3.396485,-0.798828 1.298186,0 2.219056,0.328683 2.796875,0.970703 l 0.002,0.002 0.002,0.002 c 0.608585,0.640616 0.927734,1.722067 0.927734,3.261719 V 40.349609 H 88.75 V 22.457031 c 1.994702,-1.459911 3.541916,-2.471016 4.599609,-3 1.10108,-0.533856 2.23131,-0.798828 3.396485,-0.798828 1.331515,0 2.249162,0.345818 2.792968,1.017578 l 0.002,0.002 0.002,0.002 c 0.577408,0.641568 0.898148,1.709987 0.931638,3.216796 v 17.453125 h 4.53125 V 21.673828 c 0,-2.257916 -0.58389,-3.990144 -1.76563,-5.171875 -1.14686,-1.18087 -2.81402,-1.767578 -4.970696,-1.767578 -3.275876,0 -6.577005,1.464164 -9.896484,4.306641 -0.374918,-1.389331 -1.055532,-2.473104 -2.080078,-3.189454 -1.069548,-0.747813 -2.482726,-1.117187 -4.228516,-1.117187 z m 0,0.265625 c 1.70861,0 3.064873,0.359907 4.078125,1.068359 1.013252,0.708453 1.693223,1.766927 2.042969,3.199219 l 0.05078,0.210938 0.164063,-0.142578 C 91.737042,16.437433 95.023561,15 98.269531,15 c 2.109799,0 3.694909,0.566225 4.783199,1.6875 1.12121,1.121202 1.68946,2.773846 1.68946,4.986328 v 18.410156 h -4.00196 v -17.191406 -0.002 c -0.0342,-1.539889 -0.35733,-2.67156 -0.998042,-3.384766 -0.607847,-0.749233 -1.619549,-1.113281 -2.996094,-1.113281 -1.205492,0 -2.377598,0.276296 -3.511719,0.826172 h -0.002 c -1.097538,0.548769 -2.656529,1.568303 -4.691406,3.060547 l -0.05469,0.03906 v 17.765625 h -3.90039 V 22.894531 c 0,-1.573917 -0.323556,-2.72713 -1,-3.441406 -0.641382,-0.712645 -1.650727,-1.060547 -2.994141,-1.060547 -1.205491,0 -2.377598,0.276296 -3.511719,0.826172 h -0.002 c -1.096552,0.548276 -2.65667,1.549585 -4.691406,3.007812 l -0.05469,0.04102 V 40.083984 H 68.277344 V 15.609375 h 3.300781 l 0.263672,4.052734 0.201172,-0.173828 C 75.51585,16.487442 78.854136,15 82.064453,15 Z"
           id="path1012" />
      </g>
      <g
         id="g1014"
         style="opacity:1;fill:#ffffff;fill-opacity:1;stroke:none">
        <path
           style="color:#000000;font-style:normal;font-variant:normal;font-weight:normal;font-stretch:normal;font-size:medium;line-height:1.25;font-family:'Exo 2';-inkscape-font-specification:'Exo 2, ';font-variant-ligatures:normal;font-variant-position:normal;font-variant-caps:normal;font-variant-numeric:normal;font-variant-alternates:normal;font-variant-east-asian:normal;font-feature-settings:normal;font-variation-settings:normal;text-indent:0;text-align:start;text-decoration:none;text-decoration-line:none;text-decoration-style:solid;text-decoration-color:#000000;letter-spacing:0px;word-spacing:0px;text-transform:none;writing-mode:lr-tb;direction:ltr;text-orientation:mixed;dominant-baseline:auto;baseline-shift:baseline;text-anchor:start;white-space:normal;shape-padding:0;shape-margin:0;inline-size:0;clip-rule:nonzero;display:inline;overflow:visible;visibility:visible;isolation:auto;mix-blend-mode:normal;color-interpolation:sRGB;color-interpolation-filters:linearRGB;solid-color:#000000;solid-opacity:1;vector-effect:none;fill:#ffffff;fill-opacity:1;fill-rule:nonzero;stroke:none;stroke-width:0.264583;stroke-linecap:butt;stroke-linejoin:miter;stroke-miterlimit:4;stroke-dasharray:none;stroke-dashoffset:0;stroke-opacity:1;color-rendering:auto;image-rendering:auto;shape-rendering:auto;text-rendering:auto;enable-background:accumulate;stop-color:#000000;stop-opacity:1"
           d="m 127.53112,29.955067 h -11.5316 c 0.23707,2.8448 0.93133,4.758267 2.0828,5.7404 1.15147,0.982133 3.06493,1.4732 5.7404,1.4732 2.81093,0 5.67267,-0.2032 8.5852,-0.6096 l 0.4572,2.8956 c -2.20133,0.9144 -5.40173,1.3716 -9.6012,1.3716 -4.2672,0 -7.3152,-0.982133 -9.144,-2.9464 -1.79493,-1.998133 -2.6924,-5.367867 -2.6924,-10.1092 0,-4.7752 0.88053,-8.111066 2.6416,-10.007599 1.76107,-1.9304 4.6736,-2.8956 8.7376,-2.8956 3.69147,0 6.38387,0.677333 8.0772,2.032 1.69333,1.320799 2.54,3.335866 2.54,6.045199 0.0677,4.6736 -1.89653,7.0104 -5.8928,7.0104 z m -11.5824,-3.3528 h 10.4648 c 1.79493,0 2.6924,-1.2192 2.6924,-3.6576 -0.0339,-1.591733 -0.508,-2.726267 -1.4224,-3.4036 -0.9144,-0.677333 -2.47227,-1.015999 -4.6736,-1.015999 -2.60773,0 -4.4196,0.575733 -5.4356,1.727199 -1.016,1.1176 -1.55787,3.234267 -1.6256,6.35 z"
           id="path1016" />
        <path
           style="color:#000000;font-style:normal;font-variant:normal;font-weight:normal;font-stretch:normal;font-size:medium;line-height:1.25;font-family:'Exo 2';-inkscape-font-specification:'Exo 2, ';font-variant-ligatures:normal;font-variant-position:normal;font-variant-caps:normal;font-variant-numeric:normal;font-variant-alternates:normal;font-variant-east-asian:normal;font-feature-settings:normal;font-variation-settings:normal;text-indent:0;text-align:start;text-decoration:none;text-decoration-line:none;text-decoration-style:solid;text-decoration-color:#000000;letter-spacing:0px;word-spacing:0px;text-transform:none;writing-mode:lr-tb;direction:ltr;text-orientation:mixed;dominant-baseline:auto;baseline-shift:baseline;text-anchor:start;white-space:normal;shape-padding:0;shape-margin:0;inline-size:0;clip-rule:nonzero;display:inline;overflow:visible;visibility:visible;isolation:auto;mix-blend-mode:normal;color-interpolation:sRGB;color-interpolation-filters:linearRGB;solid-color:#000000;solid-opacity:1;vector-effect:none;fill:#ffffff;fill-opacity:1;fill-rule:nonzero;stroke:none;stroke-width:0.264583;stroke-linecap:butt;stroke-linejoin:miter;stroke-miterlimit:4;stroke-dasharray:none;stroke-dashoffset:0;stroke-opacity:1;color-rendering:auto;image-rendering:auto;shape-rendering:auto;text-rendering:auto;enable-background:accumulate;stop-color:#000000;stop-opacity:1"
           d="m 122.80664,14.734375 c -4.08419,0 -7.03867,0.972358 -8.83398,2.939453 -1.79874,1.937103 -2.67774,5.306194 -2.67774,10.097656 0,4.758028 0.89687,8.160434 2.72656,10.197266 l 0.002,0.002 c 1.86376,2.001824 4.95273,2.988281 9.24023,2.988281 4.20907,0 7.42349,-0.45698 9.65235,-1.382812 l 0.0957,-0.03906 -0.49414,-3.126953 -0.12891,0.01758 c -2.90676,0.405595 -5.76185,0.609375 -8.5664,0.609375 -2.65928,0 -4.54132,-0.492102 -5.6543,-1.441406 -1.08428,-0.924829 -1.76055,-2.775221 -2.00977,-5.507812 h 11.37305 c 2.02392,0 3.5617,-0.598555 4.57227,-1.800782 1.01025,-1.201852 1.48693,-2.987236 1.45312,-5.341797 0,-2.735727 -0.86339,-4.800622 -2.58984,-6.148437 -1.72995,-1.383961 -4.45251,-2.0625 -8.16016,-2.0625 z m 0,0.265625 c 3.67528,0 6.33743,0.676581 7.99414,2.001953 l 0.002,0.002 c 1.65875,1.29382 2.48829,3.259634 2.48829,5.941406 v 0.002 c 0.0336,2.317952 -0.43693,4.035348 -1.39063,5.169922 -0.9537,1.134573 -2.39679,1.705078 -4.36914,1.705078 h -11.67578 l 0.0117,0.144531 c 0.23843,2.861209 0.93287,4.809928 2.1289,5.830078 1.18996,1.014963 3.13452,1.503906 5.82618,1.503906 2.77508,0 5.60153,-0.20647 8.47461,-0.601562 l 0.41796,2.658203 c -2.17166,0.880893 -5.31323,1.335937 -9.45117,1.335937 -4.2469,0 -7.25304,-0.977587 -9.04687,-2.904297 -1.75904,-1.959693 -2.65625,-5.294478 -2.65625,-10.017578 0,-4.758937 0.88207,-8.062005 2.60547,-9.917968 v -0.002 C 115.89293,15.958594 118.76359,15 122.80664,15 Z m 0.20313,3.392578 c -2.62635,0 -4.47988,0.578705 -5.53321,1.771484 -1.05617,1.161795 -1.59212,3.305788 -1.66015,6.435547 l -0.002,0.134766 h 0.13477 10.46484 c 0.92742,0 1.65131,-0.325241 2.125,-0.96875 0.4737,-0.643509 0.69922,-1.584882 0.69922,-2.820313 v -0.002 -0.002 c -0.0344,-1.616649 -0.52296,-2.799488 -1.47656,-3.505859 -0.9552,-0.707556 -2.53705,-1.042969 -4.75195,-1.042969 z m 0,0.265625 c 2.18776,0 3.7221,0.341172 4.5957,0.988281 0.8752,0.648296 1.3358,1.733965 1.36914,3.300782 l -0.002,-0.002 c 0,1.20297 -0.22272,2.088372 -0.64649,2.664063 -0.42377,0.575691 -1.04459,0.861328 -1.91211,0.861328 H 116.0957 c 0.0826,-3.013562 0.61724,-5.07408 1.57618,-6.128906 l 0.002,-0.002 c 0.97885,-1.109362 2.74767,-1.681641 5.33594,-1.681641 z"
           id="path1018" />
      </g>
      <g
         id="g1020"
         style="opacity:1;fill:#ffffff;fill-opacity:1;stroke:none">
        <path
           style="color:#000000;font-style:normal;font-variant:normal;font-weight:normal;font-stretch:normal;font-size:medium;line-height:1.25;font-family:'Exo 2';-inkscape-font-specification:'Exo 2, ';font-variant-ligatures:normal;font-variant-position:normal;font-variant-caps:normal;font-variant-numeric:normal;font-variant-alternates:normal;font-variant-east-asian:normal;font-feature-settings:normal;font-variation-settings:normal;text-indent:0;text-align:start;text-decoration:none;text-decoration-line:none;text-decoration-style:solid;text-decoration-color:#000000;letter-spacing:0px;word-spacing:0px;text-transform:none;writing-mode:lr-tb;direction:ltr;text-orientation:mixed;dominant-baseline:auto;baseline-shift:baseline;text-anchor:start;white-space:normal;shape-padding:0;shape-margin:0;inline-size:0;clip-rule:nonzero;display:inline;overflow:visible;visibility:visible;isolation:auto;mix-blend-mode:normal;color-interpolation:sRGB;color-interpolation-filters:linearRGB;solid-color:#000000;solid-opacity:1;vector-effect:none;fill:#ffffff;fill-opacity:1;fill-rule:nonzero;stroke:none;stroke-width:0.264583;stroke-linecap:butt;stroke-linejoin:miter;stroke-miterlimit:4;stroke-dasharray:none;stroke-dashoffset:0;stroke-opacity:1;color-rendering:auto;image-rendering:auto;shape-rendering:auto;text-rendering:auto;enable-background:accumulate;stop-color:#000000;stop-opacity:1"
           d="M 172.38743,4.6566677 V 40.216667 h -3.3528 l -0.4064,-3.556 c -3.1496,2.777067 -6.41773,4.1656 -9.8044,4.1656 -3.048,0 -5.26627,-1.0668 -6.6548,-3.2004 -1.35467,-2.167467 -2.032,-5.452533 -2.032,-9.8552 0,-4.707467 0.74507,-8.0264 2.2352,-9.956799 1.49013,-1.964267 3.8608,-2.9464 7.112,-2.9464 3.21733,0 6.1468,0.762 8.7884,2.286 -0.13547,-1.490133 -0.2032,-3.115733 -0.2032,-4.8768 V 4.6566677 Z m -4.318,29.0067993 v -13.6652 c -3.2512,-0.9144 -5.77427,-1.3716 -7.5692,-1.3716 -2.20133,0 -3.74227,0.626533 -4.6228,1.8796 -0.88053,1.253067 -1.3208,3.6576 -1.3208,7.2136 0,3.556 0.42333,6.011333 1.27,7.366 0.88053,1.3208 2.35373,1.9812 4.4196,1.9812 1.28693,0 2.45533,-0.237067 3.5052,-0.7112 1.04987,-0.508 2.4892,-1.405467 4.318,-2.6924 z"
           id="path1022" />
        <path
           style="color:#000000;font-style:normal;font-variant:normal;font-weight:normal;font-stretch:normal;font-size:medium;line-height:1.25;font-family:'Exo 2';-inkscape-font-specification:'Exo 2, ';font-variant-ligatures:normal;font-variant-position:normal;font-variant-caps:normal;font-variant-numeric:normal;font-variant-alternates:normal;font-variant-east-asian:normal;font-feature-settings:normal;font-variation-settings:normal;text-indent:0;text-align:start;text-decoration:none;text-decoration-line:none;text-decoration-style:solid;text-decoration-color:#000000;letter-spacing:0px;word-spacing:0px;text-transform:none;writing-mode:lr-tb;direction:ltr;text-orientation:mixed;dominant-baseline:auto;baseline-shift:baseline;text-anchor:start;white-space:normal;shape-padding:0;shape-margin:0;inline-size:0;clip-rule:nonzero;display:inline;overflow:visible;visibility:visible;isolation:auto;mix-blend-mode:normal;color-interpolation:sRGB;color-interpolation-filters:linearRGB;solid-color:#000000;solid-opacity:1;vector-effect:none;fill:#ffffff;fill-opacity:1;fill-rule:nonzero;stroke:none;stroke-width:0.264583;stroke-linecap:butt;stroke-linejoin:miter;stroke-miterlimit:4;stroke-dasharray:none;stroke-dashoffset:0;stroke-opacity:1;color-rendering:auto;image-rendering:auto;shape-rendering:auto;text-rendering:auto;enable-background:accumulate;stop-color:#000000;stop-opacity:1"
           d="m 167.9375,4.5234375 v 7.7539065 c 0,1.68831 0.069,3.236308 0.19336,4.677734 -2.61043,-1.461184 -5.48773,-2.220703 -8.64648,-2.220703 -3.27785,0 -5.69867,0.998825 -7.2168,3 -1.52128,1.971734 -2.26367,5.316662 -2.26367,10.037109 0,4.416235 0.67673,7.722224 2.05273,9.923828 v 0.002 h 0.002 c 1.41268,2.17069 3.68676,3.261718 6.76563,3.261718 3.35386,0 6.58657,-1.390663 9.69531,-4.072265 l 0.39649,3.46289 h 3.60351 V 4.5234375 h -0.13281 z m 0.26367,0.265625 h 4.05469 V 40.083984 h -3.10352 l -0.42187,-3.689453 -0.18945,0.166016 c -3.13196,2.76151 -6.36629,4.132812 -9.7168,4.132812 -3.01713,0 -5.18053,-1.044115 -6.54492,-3.140625 -1.332,-2.133391 -2.00977,-5.394358 -2.00977,-9.78125 0,-4.693507 0.74868,-7.987728 2.20703,-9.876953 h 0.002 C 153.94065,15.967173 156.25982,15 159.48438,15 c 3.19644,0 6.10119,0.755196 8.72265,2.267578 l 0.2207,0.128906 -0.0234,-0.255859 c -0.13504,-1.485454 -0.20313,-3.105607 -0.20313,-4.863281 z M 160.5,18.494141 c -2.22643,0 -3.82012,0.640048 -4.73047,1.935547 -0.91438,1.301232 -1.3457,3.724096 -1.3457,7.291015 0,3.566499 0.41677,6.036763 1.29101,7.435547 v 0.002 l 0.002,0.002 c 0.90702,1.360531 2.43523,2.039063 4.52929,2.039063 1.30318,0 2.4922,-0.240178 3.56055,-0.722657 l 0.002,-0.002 c 1.06219,-0.513959 2.50605,-1.414049 4.33789,-2.703125 l 0.0547,-0.03906 v -0.06836 -13.765624 l -0.0957,-0.02734 C 164.84816,18.954976 162.3174,18.494141 160.5,18.494141 Z m 0,0.265625 c 1.74994,0 4.25196,0.458085 7.4375,1.347656 v 13.482422 c -1.79007,1.256671 -3.21655,2.148861 -4.24023,2.644531 -5.6e-4,2.53e-4 -0.001,-2.53e-4 -0.002,0 -5.5e-4,2.67e-4 -0.001,0.0017 -0.002,0.002 -1.03043,0.464675 -2.1781,0.699219 -3.44727,0.699219 -2.03767,0 -3.45454,-0.642759 -4.30859,-1.923828 -0.81793,-1.311241 -1.24805,-3.748103 -1.24805,-7.291016 0,-3.545081 0.45019,-5.93377 1.29688,-7.138672 0.85071,-1.210635 2.33744,-1.822265 4.51367,-1.822265 z"
           id="path1024" />
      </g>
      <g
         id="g1026"
         style="opacity:1;fill:#ffffff;fill-opacity:1;stroke:none">
        <path
           style="color:#000000;font-style:normal;font-variant:normal;font-weight:normal;font-stretch:normal;font-size:medium;line-height:1.25;font-family:'Exo 2';-inkscape-font-specification:'Exo 2, ';font-variant-ligatures:normal;font-variant-position:normal;font-variant-caps:normal;font-variant-numeric:normal;font-variant-alternates:normal;font-variant-east-asian:normal;font-feature-settings:normal;font-variation-settings:normal;text-indent:0;text-align:start;text-decoration:none;text-decoration-line:none;text-decoration-style:solid;text-decoration-color:#000000;letter-spacing:0px;word-spacing:0px;text-transform:none;writing-mode:lr-tb;direction:ltr;text-orientation:mixed;dominant-baseline:auto;baseline-shift:baseline;text-anchor:start;white-space:normal;shape-padding:0;shape-margin:0;inline-size:0;clip-rule:nonzero;display:inline;overflow:visible;visibility:visible;isolation:auto;mix-blend-mode:normal;color-interpolation:sRGB;color-interpolation-filters:linearRGB;solid-color:#000000;solid-opacity:1;vector-effect:none;fill:#ffffff;fill-opacity:1;fill-rule:nonzero;stroke:none;stroke-width:0.264583;stroke-linecap:butt;stroke-linejoin:miter;stroke-miterlimit:4;stroke-dasharray:none;stroke-dashoffset:0;stroke-opacity:1;color-rendering:auto;image-rendering:auto;shape-rendering:auto;text-rendering:auto;enable-background:accumulate;stop-color:#000000;stop-opacity:1"
           d="m 195.24743,29.955067 h -11.5316 c 0.23707,2.8448 0.93133,4.758267 2.0828,5.7404 1.15147,0.982133 3.06493,1.4732 5.7404,1.4732 2.81093,0 5.67267,-0.2032 8.5852,-0.6096 l 0.4572,2.8956 c -2.20133,0.9144 -5.40173,1.3716 -9.6012,1.3716 -4.2672,0 -7.3152,-0.982133 -9.144,-2.9464 -1.79493,-1.998133 -2.6924,-5.367867 -2.6924,-10.1092 0,-4.7752 0.88053,-8.111066 2.6416,-10.007599 1.76107,-1.9304 4.6736,-2.8956 8.7376,-2.8956 3.69147,0 6.38387,0.677333 8.0772,2.032 1.69333,1.320799 2.54,3.335866 2.54,6.045199 0.0677,4.6736 -1.89653,7.0104 -5.8928,7.0104 z m -11.5824,-3.3528 h 10.4648 c 1.79493,0 2.6924,-1.2192 2.6924,-3.6576 -0.0339,-1.591733 -0.508,-2.726267 -1.4224,-3.4036 -0.9144,-0.677333 -2.47227,-1.015999 -4.6736,-1.015999 -2.60773,0 -4.4196,0.575733 -5.4356,1.727199 -1.016,1.1176 -1.55787,3.234267 -1.6256,6.35 z"
           id="path1028" />
        <path
           style="color:#000000;font-style:normal;font-variant:normal;font-weight:normal;font-stretch:normal;font-size:medium;line-height:1.25;font-family:'Exo 2';-inkscape-font-specification:'Exo 2, ';font-variant-ligatures:normal;font-variant-position:normal;font-variant-caps:normal;font-variant-numeric:normal;font-variant-alternates:normal;font-variant-east-asian:normal;font-feature-settings:normal;font-variation-settings:normal;text-indent:0;text-align:start;text-decoration:none;text-decoration-line:none;text-decoration-style:solid;text-decoration-color:#000000;letter-spacing:0px;word-spacing:0px;text-transform:none;writing-mode:lr-tb;direction:ltr;text-orientation:mixed;dominant-baseline:auto;baseline-shift:baseline;text-anchor:start;white-space:normal;shape-padding:0;shape-margin:0;inline-size:0;clip-rule:nonzero;display:inline;overflow:visible;visibility:visible;isolation:auto;mix-blend-mode:normal;color-interpolation:sRGB;color-interpolation-filters:linearRGB;solid-color:#000000;solid-opacity:1;vector-effect:none;fill:#ffffff;fill-opacity:1;fill-rule:nonzero;stroke:none;stroke-width:0.264583;stroke-linecap:butt;stroke-linejoin:miter;stroke-miterlimit:4;stroke-dasharray:none;stroke-dashoffset:0;stroke-opacity:1;color-rendering:auto;image-rendering:auto;shape-rendering:auto;text-rendering:auto;enable-background:accumulate;stop-color:#000000;stop-opacity:1"
           d="m 190.52344,14.734375 c -4.08419,0 -7.03867,0.972358 -8.83399,2.939453 -1.79874,1.937103 -2.67773,5.306194 -2.67773,10.097656 0,4.758028 0.89687,8.160434 2.72656,10.197266 l 0.002,0.002 c 1.86377,2.001824 4.95274,2.988281 9.24024,2.988281 4.20907,0 7.42349,-0.45698 9.65234,-1.382812 l 0.0957,-0.03906 -0.49414,-3.126953 -0.12891,0.01758 c -2.90677,0.405595 -5.76185,0.609375 -8.56641,0.609375 -2.65928,0 -4.54132,-0.492102 -5.65429,-1.441406 -1.08429,-0.924829 -1.76055,-2.775221 -2.00977,-5.507812 h 11.37305 c 2.02392,0 3.55974,-0.598555 4.57031,-1.800782 1.01025,-1.201852 1.48889,-2.987236 1.45508,-5.341797 0,-2.735727 -0.8634,-4.800622 -2.58985,-6.148437 -1.72995,-1.383961 -4.4525,-2.0625 -8.16015,-2.0625 z m 0,0.265625 c 3.67528,0 6.33742,0.676581 7.99414,2.001953 v 0.002 h 0.002 c 1.65875,1.29382 2.48828,3.259634 2.48828,5.941406 v 0.002 c 0.0336,2.317952 -0.43692,4.035348 -1.39062,5.169922 -0.9537,1.134573 -2.3968,1.705078 -4.36914,1.705078 h -11.67578 l 0.0117,0.144531 c 0.23844,2.861209 0.93287,4.809928 2.12891,5.830078 1.18996,1.014963 3.13452,1.503906 5.82617,1.503906 2.77509,0 5.60154,-0.20647 8.47461,-0.601562 l 0.41797,2.658203 c -2.17167,0.880893 -5.31324,1.335937 -9.45117,1.335937 -4.2469,0 -7.25304,-0.977587 -9.04688,-2.904297 -1.75903,-1.959693 -2.6582,-5.294478 -2.6582,-10.017578 0,-4.758937 0.88403,-8.062005 2.60742,-9.917968 v -0.002 C 183.60973,15.958594 186.48038,15 190.52344,15 Z m 0.20312,3.392578 c -2.62634,0 -4.47987,0.578705 -5.5332,1.771484 -1.05618,1.161795 -1.59212,3.305788 -1.66016,6.435547 l -0.004,0.134766 h 0.13476 10.46485 c 0.92742,0 1.65326,-0.325241 2.12695,-0.96875 0.47369,-0.643509 0.69922,-1.584882 0.69922,-2.820313 v -0.002 -0.002 c -0.0344,-1.616649 -0.52296,-2.799488 -1.47656,-3.505859 -0.95521,-0.707556 -2.53706,-1.042969 -4.75196,-1.042969 z m 0,0.265625 c 2.18777,0 3.72015,0.341172 4.59375,0.988281 0.8752,0.648296 1.33581,1.733965 1.36914,3.300782 -3.1e-4,1.201698 -0.223,2.086817 -0.64648,2.662109 -0.42377,0.575691 -1.04655,0.861328 -1.91406,0.861328 H 183.8125 c 0.0826,-3.013562 0.61724,-5.07408 1.57617,-6.128906 v -0.002 h 0.002 c 0.97885,-1.109362 2.74768,-1.681641 5.33594,-1.681641 z"
           id="path1030" />
      </g>
      <g
         id="g1032"
         style="opacity:1;fill:#ffffff;fill-opacity:1;stroke:none">
        <path
           style="color:#000000;font-style:normal;font-variant:normal;font-weight:normal;font-stretch:normal;font-size:medium;line-height:1.25;font-family:'Exo 2';-inkscape-font-specification:'Exo 2, ';font-variant-ligatures:normal;font-variant-position:normal;font-variant-caps:normal;font-variant-numeric:normal;font-variant-alternates:normal;font-variant-east-asian:normal;font-feature-settings:normal;font-variation-settings:normal;text-indent:0;text-align:start;text-decoration:none;text-decoration-line:none;text-decoration-style:solid;text-decoration-color:#000000;letter-spacing:0px;word-spacing:0px;text-transform:none;writing-mode:lr-tb;direction:ltr;text-orientation:mixed;dominant-baseline:auto;baseline-shift:baseline;text-anchor:start;white-space:normal;shape-padding:0;shape-margin:0;inline-size:0;clip-rule:nonzero;display:inline;overflow:visible;visibility:visible;isolation:auto;mix-blend-mode:normal;color-interpolation:sRGB;color-interpolation-filters:linearRGB;solid-color:#000000;solid-opacity:1;vector-effect:none;fill:#ffffff;fill-opacity:1;fill-rule:nonzero;stroke:none;stroke-width:0.264583;stroke-linecap:butt;stroke-linejoin:miter;stroke-miterlimit:4;stroke-dasharray:none;stroke-dashoffset:0;stroke-opacity:1;color-rendering:auto;image-rendering:auto;shape-rendering:auto;text-rendering:auto;enable-background:accumulate;stop-color:#000000;stop-opacity:1"
           d="m 218.92017,30.209067 -7.112,-1.6256 c -2.032,-0.474133 -3.47133,-1.236133 -4.318,-2.286 -0.84667,-1.049867 -1.27,-2.5908 -1.27,-4.6228 0,-2.743199 0.7112,-4.571999 2.1336,-5.486399 1.45627,-0.948267 3.9624,-1.388533 7.5184,-1.3208 3.9624,0.06773 7.43373,0.321733 10.414,0.762 l -0.3556,3.149599 c -5.14773,-0.169333 -8.2804,-0.253999 -9.398,-0.253999 -2.50613,-0.03387 -4.14867,0.118533 -4.9276,0.457199 -0.77893,0.338667 -1.1684,1.236133 -1.1684,2.6924 0,1.185333 0.254,1.998133 0.762,2.4384 0.54187,0.440267 1.49013,0.8128 2.8448,1.1176 l 7.2136,1.6256 c 2.032,0.508 3.48827,1.27 4.3688,2.286 0.9144,0.982133 1.3716,2.4892 1.3716,4.5212 0,2.878667 -0.79587,4.792133 -2.3876,5.7404 -1.59173,0.9144 -4.318,1.3716 -8.1788,1.3716 -3.4544,0 -6.68867,-0.237067 -9.7028,-0.7112 l 0.3048,-3.1496 c 2.87867,0.169333 5.72347,0.237067 8.5344,0.2032 2.87867,0 4.80907,-0.220133 5.7912,-0.6604 0.98213,-0.440267 1.4732,-1.3716 1.4732,-2.794 0,-1.1176 -0.3048,-1.8796 -0.9144,-2.286 -0.57573,-0.440267 -1.5748,-0.829733 -2.9972,-1.1684 z"
           id="path1034" />
        <path
           style="color:#000000;font-style:normal;font-variant:normal;font-weight:normal;font-stretch:normal;font-size:medium;line-height:1.25;font-family:'Exo 2';-inkscape-font-specification:'Exo 2, ';font-variant-ligatures:normal;font-variant-position:normal;font-variant-caps:normal;font-variant-numeric:normal;font-variant-alternates:normal;font-variant-east-asian:normal;font-feature-settings:normal;font-variation-settings:normal;text-indent:0;text-align:start;text-decoration:none;text-decoration-line:none;text-decoration-style:solid;text-decoration-color:#000000;letter-spacing:0px;word-spacing:0px;text-transform:none;writing-mode:lr-tb;direction:ltr;text-orientation:mixed;dominant-baseline:auto;baseline-shift:baseline;text-anchor:start;white-space:normal;shape-padding:0;shape-margin:0;inline-size:0;clip-rule:nonzero;display:inline;overflow:visible;visibility:visible;isolation:auto;mix-blend-mode:normal;color-interpolation:sRGB;color-interpolation-filters:linearRGB;solid-color:#000000;solid-opacity:1;vector-effect:none;fill:#ffffff;fill-opacity:1;fill-rule:nonzero;stroke:none;stroke-width:0.264583;stroke-linecap:butt;stroke-linejoin:miter;stroke-miterlimit:4;stroke-dasharray:none;stroke-dashoffset:0;stroke-opacity:1;color-rendering:auto;image-rendering:auto;shape-rendering:auto;text-rendering:auto;enable-background:accumulate;stop-color:#000000;stop-opacity:1"
           d="m 215.875,14.734375 c -3.56671,-0.06794 -6.09285,0.366676 -7.5918,1.341797 -1.47302,0.94694 -2.19531,2.831592 -2.19531,5.597656 0,2.050374 0.42598,3.6247 1.29883,4.707031 0.87302,1.082548 2.34154,1.853912 4.39062,2.332032 h 0.002 l 7.10937,1.625 h 0.002 c 1.41245,0.336474 2.40061,0.726496 2.94727,1.144531 l 0.002,0.002 0.004,0.0039 c 0.56303,0.375354 0.85547,1.082234 0.85547,2.175781 0,1.391952 -0.46093,2.253362 -1.39453,2.671876 -0.93811,0.420531 -2.86636,0.65039 -5.73828,0.65039 -2.80774,0.03383 -5.64976,-0.03397 -8.52539,-0.203125 l -0.12696,-0.0078 -0.33008,3.40039 0.12305,0.01953 c 3.0218,0.475339 6.26416,0.712891 9.72461,0.712891 3.87124,0 6.61235,-0.451259 8.24414,-1.388672 v -0.002 h 0.002 c 1.6423,-0.978391 2.45118,-2.950466 2.45118,-5.853516 0,-2.051843 -0.46085,-3.595892 -1.40625,-4.611328 -0.90661,-1.044291 -2.38778,-1.812764 -4.4336,-2.324218 h -0.002 l -7.21484,-1.626954 c -1.34423,-0.302451 -2.27728,-0.676435 -2.78907,-1.091796 h -0.002 c -0.4613,-0.402651 -0.71289,-1.172538 -0.71289,-2.335938 0,-0.71634 0.0969,-1.286175 0.28125,-1.710937 0.18433,-0.424763 0.45092,-0.703865 0.80859,-0.859375 0.72988,-0.317338 2.37306,-0.479097 4.87305,-0.445313 h 0.002 c 1.11092,0 4.24516,0.08458 9.39258,0.253906 l 0.12305,0.0039 0.38281,-3.398438 -0.12695,-0.01953 C 223.31701,15.056685 219.84173,14.802182 215.875,14.734375 Z M 215.86914,15 c 3.90899,0.06682 7.32146,0.320815 10.26953,0.75 l -0.32617,2.892578 c -5.02748,-0.164906 -8.16719,-0.249965 -9.27734,-0.25 h -0.002 c -2.51062,-0.0338 -4.1528,0.108896 -4.98047,0.46875 -0.42126,0.183156 -0.74017,0.52339 -0.94531,0.996094 -0.20513,0.472704 -0.30273,1.076479 -0.30273,1.816406 0,1.204232 0.25423,2.060313 0.80664,2.539063 l 0.002,0.002 h 0.002 c 0.57215,0.464868 1.53415,0.837566 2.89844,1.144531 l 7.21094,1.625 c 2.01623,0.504057 3.44609,1.257954 4.30078,2.244141 l 0.002,0.002 0.002,0.002 c 0.88339,0.948831 1.33593,2.419484 1.33593,4.43164 0,2.853496 -0.78194,4.706595 -2.32226,5.625 -1.55168,0.891388 -4.26097,1.353516 -8.11133,1.353516 -3.40382,0 -6.58531,-0.238421 -9.55859,-0.699219 l 0.27929,-2.892578 c 2.83789,0.164015 5.64371,0.23262 8.41602,0.199219 2.88412,-1.14e-4 4.81787,-0.211997 5.84375,-0.671875 1.03066,-0.46202 1.55273,-1.461214 1.55273,-2.914063 0,-1.140913 -0.3193,-1.956877 -0.97461,-2.394531 -1.3e-4,-10e-5 1.4e-4,-0.0019 0,-0.002 -0.60504,-0.46064 -1.61181,-0.847679 -3.03906,-1.1875 h -0.002 l -7.11133,-1.625 c -2.01492,-0.470147 -3.42383,-1.223049 -4.24414,-2.240234 -0.82049,-1.017402 -1.24219,-2.52739 -1.24219,-4.541016 0,-2.720334 0.70244,-4.49314 2.07422,-5.375 1.4138,-0.920612 3.89946,-1.366331 7.44336,-1.298828 z"
           id="path1036" />
      </g>
      <g
         id="g1038"
         style="opacity:1;fill:#ffffff;fill-opacity:1;stroke:none">
        <path
           style="color:#000000;font-style:normal;font-variant:normal;font-weight:normal;font-stretch:normal;font-size:medium;line-height:1.25;font-family:'Exo 2';-inkscape-font-specification:'Exo 2, ';font-variant-ligatures:normal;font-variant-position:normal;font-variant-caps:normal;font-variant-numeric:normal;font-variant-alternates:normal;font-variant-east-asian:normal;font-feature-settings:normal;font-variation-settings:normal;text-indent:0;text-align:start;text-decoration:none;text-decoration-line:none;text-decoration-style:solid;text-decoration-color:#000000;letter-spacing:0px;word-spacing:0px;text-transform:none;writing-mode:lr-tb;direction:ltr;text-orientation:mixed;dominant-baseline:auto;baseline-shift:baseline;text-anchor:start;white-space:normal;shape-padding:0;shape-margin:0;inline-size:0;clip-rule:nonzero;display:inline;overflow:visible;visibility:visible;isolation:auto;mix-blend-mode:normal;color-interpolation:sRGB;color-interpolation-filters:linearRGB;solid-color:#000000;solid-opacity:1;vector-effect:none;fill:#ffffff;fill-opacity:1;fill-rule:nonzero;stroke:none;stroke-width:0.264583;stroke-linecap:butt;stroke-linejoin:miter;stroke-miterlimit:4;stroke-dasharray:none;stroke-dashoffset:0;stroke-opacity:1;color-rendering:auto;image-rendering:auto;shape-rendering:auto;text-rendering:auto;enable-background:accumulate;stop-color:#000000;stop-opacity:1"
           d="m 234.76974,4.9614677 h 2.032 c 0.88053,0 1.3208,0.4402667 1.3208,1.3208 v 2.8955999 c 0,0.8805334 -0.44027,1.3208004 -1.3208,1.3208004 h -2.032 c -0.88053,0 -1.3208,-0.440267 -1.3208,-1.3208004 V 6.2822677 c 0,-0.8805333 0.44027,-1.3208 1.3208,-1.3208 z m 3.1496,35.2551993 h -4.2672 V 15.477068 h 4.2672 z"
           id="path1040" />
        <path
           style="color:#000000;font-style:normal;font-variant:normal;font-weight:normal;font-stretch:normal;font-size:medium;line-height:1.25;font-family:'Exo 2';-inkscape-font-specification:'Exo 2, ';font-variant-ligatures:normal;font-variant-position:normal;font-variant-caps:normal;font-variant-numeric:normal;font-variant-alternates:normal;font-variant-east-asian:normal;font-feature-settings:normal;font-variation-settings:normal;text-indent:0;text-align:start;text-decoration:none;text-decoration-line:none;text-decoration-style:solid;text-decoration-color:#000000;letter-spacing:0px;word-spacing:0px;text-transform:none;writing-mode:lr-tb;direction:ltr;text-orientation:mixed;dominant-baseline:auto;baseline-shift:baseline;text-anchor:start;white-space:normal;shape-padding:0;shape-margin:0;inline-size:0;clip-rule:nonzero;display:inline;overflow:visible;visibility:visible;isolation:auto;mix-blend-mode:normal;color-interpolation:sRGB;color-interpolation-filters:linearRGB;solid-color:#000000;solid-opacity:1;vector-effect:none;fill:#ffffff;fill-opacity:1;fill-rule:nonzero;stroke:none;stroke-width:0.264583;stroke-linecap:butt;stroke-linejoin:miter;stroke-miterlimit:4;stroke-dasharray:none;stroke-dashoffset:0;stroke-opacity:1;color-rendering:auto;image-rendering:auto;shape-rendering:auto;text-rendering:auto;enable-background:accumulate;stop-color:#000000;stop-opacity:1"
           d="m 234.76953,4.8300781 c -0.46231,0 -0.83267,0.1158728 -1.08398,0.3671875 -0.25132,0.2513148 -0.36914,0.6236223 -0.36914,1.0859375 v 2.8945313 c 0,0.4623154 0.11782,0.8326696 0.36914,1.0839846 0.25131,0.251315 0.62167,0.36914 1.08398,0.36914 h 2.03125 c 0.46232,0 0.83462,-0.117825 1.08594,-0.36914 0.25131,-0.251315 0.36719,-0.6216692 0.36719,-1.0839846 V 6.2832031 c 0,-0.4623152 -0.11588,-0.8346227 -0.36719,-1.0859375 -0.25132,-0.2513147 -0.62362,-0.3671875 -1.08594,-0.3671875 z m 0,0.2636719 h 2.03125 c 0.41822,0 0.70949,0.1020637 0.89844,0.2910156 0.18895,0.188952 0.29101,0.4802194 0.29101,0.8984375 v 2.8945313 c 0,0.4182182 -0.10206,0.7075324 -0.29101,0.8964846 -0.18895,0.188952 -0.48022,0.292969 -0.89844,0.292969 h -2.03125 c -0.41822,0 -0.70753,-0.104017 -0.89648,-0.292969 -0.18896,-0.1889522 -0.29102,-0.4782664 -0.29102,-0.8964846 V 6.2832031 c 0,-0.4182181 0.10206,-0.7094855 0.29102,-0.8984375 C 234.062,5.1958137 234.35131,5.09375 234.76953,5.09375 Z m -1.25,10.251953 v 25.003906 h 4.53125 V 40.216797 15.345703 Z m 0.26563,0.263672 h 4.00195 v 24.474609 h -4.00195 z"
           id="path1042" />
      </g>
      <g
         id="g1044"
         style="opacity:1;fill:#ffffff;fill-opacity:1;stroke:none">
        <path
           style="color:#000000;font-style:normal;font-variant:normal;font-weight:normal;font-stretch:normal;font-size:medium;line-height:1.25;font-family:'Exo 2';-inkscape-font-specification:'Exo 2, ';font-variant-ligatures:normal;font-variant-position:normal;font-variant-caps:normal;font-variant-numeric:normal;font-variant-alternates:normal;font-variant-east-asian:normal;font-feature-settings:normal;font-variation-settings:normal;text-indent:0;text-align:start;text-decoration:none;text-decoration-line:none;text-decoration-style:solid;text-decoration-color:#000000;letter-spacing:0px;word-spacing:0px;text-transform:none;writing-mode:lr-tb;direction:ltr;text-orientation:mixed;dominant-baseline:auto;baseline-shift:baseline;text-anchor:start;white-space:normal;shape-padding:0;shape-margin:0;inline-size:0;clip-rule:nonzero;display:inline;overflow:visible;visibility:visible;isolation:auto;mix-blend-mode:normal;color-interpolation:sRGB;color-interpolation-filters:linearRGB;solid-color:#000000;solid-opacity:1;vector-effect:none;fill:#ffffff;fill-opacity:1;fill-rule:nonzero;stroke:none;stroke-width:0.264583;stroke-linecap:butt;stroke-linejoin:miter;stroke-miterlimit:4;stroke-dasharray:none;stroke-dashoffset:0;stroke-opacity:1;color-rendering:auto;image-rendering:auto;shape-rendering:auto;text-rendering:auto;enable-background:accumulate;stop-color:#000000;stop-opacity:1"
           d="m 269.0597,17.864668 -3.6576,0.3048 c 0.67733,1.117599 1.016,2.641599 1.016,4.571999 0,2.777067 -0.79587,4.792133 -2.3876,6.0452 -1.59173,1.2192 -4.33493,1.8288 -8.2296,1.8288 -1.89653,0 -3.6068,-0.169333 -5.1308,-0.508 -0.64347,0.778933 -0.82973,1.642533 -0.5588,2.5908 0.27093,0.9144 1.03293,1.4732 2.286,1.6764 l 9.2456,1.4732 c 2.30293,0.338667 3.9116,1.0668 4.826,2.1844 0.94827,1.083733 1.4224,2.675467 1.4224,4.7752 0,2.878667 -0.8636,4.8768 -2.5908,5.9944 -1.69333,1.1176 -4.75827,1.6764 -9.1948,1.6764 -4.4704,0 -7.58613,-0.5588 -9.3472,-1.6764 -1.7272,-1.083733 -2.5908,-3.031067 -2.5908,-5.842 0,-1.456267 0.3048,-2.624667 0.9144,-3.5052 0.6096,-0.880533 1.64253,-1.710267 3.0988,-2.4892 -1.25307,-0.982133 -1.8288,-2.286 -1.7272,-3.9116 0.1016,-1.6256 0.74507,-2.8956 1.9304,-3.81 -2.09973,-1.1176 -3.1496,-3.268133 -3.1496,-6.4516 0,-2.844799 0.77893,-4.876799 2.3368,-6.095999 1.59173,-1.2192 4.35187,-1.8288 8.2804,-1.8288 2.3368,0 4.25027,0.2032 5.7404,0.6096 h 7.7216 z m -18.3896,8.432799 c 0.98213,0.677333 2.6924,1.016 5.1308,1.016 2.4384,0 4.14867,-0.338667 5.1308,-1.016 0.98213,-0.7112 1.4732,-1.896533 1.4732,-3.556 0,-1.659467 -0.49107,-2.827867 -1.4732,-3.5052 -0.94827,-0.711199 -2.65853,-1.066799 -5.1308,-1.066799 -2.4384,0 -4.14867,0.3556 -5.1308,1.066799 -0.98213,0.677333 -1.4732,1.845733 -1.4732,3.5052 0,1.659467 0.49107,2.8448 1.4732,3.556 z m 8.7376,12.7508 -8.4328,-1.1684 c -1.7272,1.3208 -2.5908,2.8956 -2.5908,4.7244 0,1.7272 0.508,2.861733 1.524,3.4036 1.016,0.541867 3.06493,0.8128 6.1468,0.8128 3.01413,0 5.0292,-0.287867 6.0452,-0.8636 1.04987,-0.541867 1.5748,-1.659467 1.5748,-3.3528 0,-1.2192 -0.27093,-2.048933 -0.8128,-2.4892 -0.508,-0.440267 -1.65947,-0.795867 -3.4544,-1.0668 z"
           id="path1046" />
        <path
           style="color:#000000;font-style:normal;font-variant:normal;font-weight:normal;font-stretch:normal;font-size:medium;line-height:1.25;font-family:'Exo 2';-inkscape-font-specification:'Exo 2, ';font-variant-ligatures:normal;font-variant-position:normal;font-variant-caps:normal;font-variant-numeric:normal;font-variant-alternates:normal;font-variant-east-asian:normal;font-feature-settings:normal;font-variation-settings:normal;text-indent:0;text-align:start;text-decoration:none;text-decoration-line:none;text-decoration-style:solid;text-decoration-color:#000000;letter-spacing:0px;word-spacing:0px;text-transform:none;writing-mode:lr-tb;direction:ltr;text-orientation:mixed;dominant-baseline:auto;baseline-shift:baseline;text-anchor:start;white-space:normal;shape-padding:0;shape-margin:0;inline-size:0;clip-rule:nonzero;display:inline;overflow:visible;visibility:visible;isolation:auto;mix-blend-mode:normal;color-interpolation:sRGB;color-interpolation-filters:linearRGB;solid-color:#000000;solid-opacity:1;vector-effect:none;fill:#ffffff;fill-opacity:1;fill-rule:nonzero;stroke:none;stroke-width:0.264583;stroke-linecap:butt;stroke-linejoin:miter;stroke-miterlimit:4;stroke-dasharray:none;stroke-dashoffset:0;stroke-opacity:1;color-rendering:auto;image-rendering:auto;shape-rendering:auto;text-rendering:auto;enable-background:accumulate;stop-color:#000000;stop-opacity:1"
           d="m 255.85156,14.734375 c -3.94222,0 -6.72788,0.606274 -8.36133,1.857422 -1.59719,1.249978 -2.38867,3.332224 -2.38867,6.201172 0,3.140025 1.04377,5.309102 3.09375,6.472656 -1.12778,0.928436 -1.77347,2.186043 -1.87304,3.779297 -0.10015,1.60231 0.48739,2.906858 1.67773,3.90039 -1.38179,0.759345 -2.42382,1.561834 -3.02734,2.433594 -0.62903,0.908596 -0.9375,2.105352 -0.9375,3.580078 0,2.83803 0.88152,4.843977 2.65234,5.955078 1.80383,1.144736 4.93654,1.697266 9.41797,1.697266 4.44764,0 7.52991,-0.55236 9.26758,-1.699219 1.77069,-1.145743 2.65039,-3.200343 2.65039,-6.105468 0,-2.117661 -0.47883,-3.741912 -1.45313,-4.857422 -0.94443,-1.154305 -2.58621,-1.890938 -4.90625,-2.232422 h -0.002 l -9.24414,-1.472656 c -1.22283,-0.198297 -1.92338,-0.719313 -2.17969,-1.582032 v -0.002 c -0.25383,-0.890475 -0.0799,-1.677969 0.50586,-2.414062 1.51181,0.327618 3.19042,0.501953 5.05664,0.501953 3.90847,0 6.67746,-0.604596 8.31055,-1.855469 v -0.002 h 0.002 c 1.62906,-1.282447 2.4375,-3.346096 2.4375,-6.148437 0,-1.856662 -0.33285,-3.326028 -0.96484,-4.455079 l 3.59375,-0.298828 0.0117,-0.109375 0.26953,-2.533203 h -7.86914 c -1.50294,-0.406 -3.41005,-0.611328 -5.74024,-0.611328 z m 0,0.265625 c 2.32913,0 4.23188,0.203688 5.70508,0.605469 l 0.0176,0.0039 h 7.5918 l -0.22657,2.132813 -3.76172,0.3125 0.11133,0.183593 c 0.65984,1.088727 0.9961,2.588979 0.9961,4.503907 0,2.75106 -0.78235,4.715698 -2.33594,5.939453 -1.55038,1.187527 -4.26758,1.800781 -8.14844,1.800781 -1.88866,0 -3.58891,-0.167761 -5.10156,-0.503906 l -0.0801,-0.01758 -0.0508,0.0625 c -0.66606,0.806283 -0.86515,1.72687 -0.58398,2.710937 v 0.002 c 0.28595,0.965104 1.11004,1.561554 2.39257,1.769531 l 9.2461,1.472657 c 2.2847,0.335985 3.86006,1.056176 4.74414,2.136718 v 0.002 l 0.002,0.002 c 0.92039,1.051868 1.39063,2.607681 1.39063,4.6875 0,2.852208 -0.84755,4.795308 -2.53125,5.884765 -1.64901,1.088342 -4.69763,1.654297 -9.12305,1.654297 -4.45938,0 -7.55708,-0.565785 -9.27539,-1.65625 h -0.002 c -1.68358,-1.056365 -2.52734,-2.946631 -2.52734,-5.730469 0,-1.437807 0.30045,-2.577216 0.89063,-3.429687 0.59193,-0.855009 1.60798,-1.67449 3.05273,-2.447266 l 0.17774,-0.0957 -0.16016,-0.125 c -1.22381,-0.959202 -1.77517,-2.208677 -1.67578,-3.798828 0.0997,-1.595175 0.72214,-2.822485 1.8789,-3.714844 l 0.16211,-0.125 -0.18164,-0.0957 c -2.05374,-1.093122 -3.07812,-3.179603 -3.07812,-6.333984 0,-2.820651 0.76661,-4.803765 2.28515,-5.992188 C 249.20237,15.613529 251.93671,15 255.85156,15 Z m -0.0508,3.037109 c -2.44887,0 -4.18044,0.349629 -5.20508,1.089844 -1.0237,0.706 -1.53125,1.92967 -1.53125,3.615235 0,1.685564 0.50562,2.922241 1.52735,3.662109 l 0.002,0.002 h 0.002 c 1.02426,0.706383 2.75443,1.039063 5.20508,1.039062 2.45065,0 4.18082,-0.332679 5.20508,-1.039062 h 0.002 l 0.002,-0.002 c 1.02172,-0.739868 1.52734,-1.976545 1.52734,-3.662109 0,-1.68431 -0.50713,-2.907039 -1.5293,-3.613282 -0.99289,-0.742797 -2.72453,-1.091797 -5.20703,-1.091797 z m 0,0.265625 c 2.45958,0 4.14666,0.360974 5.05078,1.039063 l 0.002,0.002 0.004,0.002 c 0.94057,0.648667 1.41602,1.763116 1.41602,3.396485 0,1.633368 -0.47738,2.764733 -1.41992,3.447265 h 0.004 c -0.94001,0.648284 -2.63049,0.992188 -5.05664,0.992188 -2.42509,0 -4.11248,-0.344451 -5.05273,-0.992188 -0.94255,-0.682532 -1.41797,-1.813897 -1.41797,-3.447265 0,-1.633369 0.47545,-2.747818 1.41601,-3.396485 v -0.002 h 0.002 c 0.94001,-0.680696 2.62719,-1.041016 5.05273,-1.041016 z m -4.86328,19.439454 -0.043,0.0332 c -1.7506,1.338697 -2.64258,2.957677 -2.64258,4.828125 0,1.753139 0.52626,2.952152 1.59375,3.521484 1.06501,0.568004 3.11937,0.828125 6.20899,0.828125 3.01869,0 5.03956,-0.27711 6.10547,-0.878906 1.09977,-0.567626 1.64648,-1.75003 1.64648,-3.470703 0,-1.236021 -0.2719,-2.109232 -0.85742,-2.587891 -2.8e-4,-2.44e-4 -0.002,2.44e-4 -0.002,0 -0.55646,-0.481591 -1.71688,-0.825557 -3.51954,-1.097656 h -0.002 z m 0.084,0.279296 8.36719,1.158204 c 1.7863,0.269629 2.92685,0.636597 3.38672,1.035156 l 0.002,0.002 h 0.002 c 0.49548,0.402579 0.76367,1.187117 0.76367,2.386719 0,1.665993 -0.50395,2.72022 -1.50391,3.236328 h -0.002 l -0.002,0.002 c -0.96718,0.548069 -2.97476,0.845703 -5.98047,0.845703 -3.07412,0 -5.11699,-0.281145 -6.08399,-0.796875 -0.9645,-0.514401 -1.45508,-1.585849 -1.45508,-3.287109 1e-5,-1.771589 0.8319,-3.286565 2.50586,-4.582032 z"
           id="path1048" />
      </g>
      <g
         id="g1050"
         style="opacity:1;fill:#ffffff;fill-opacity:1;stroke:none">
        <path
           style="color:#000000;font-style:normal;font-variant:normal;font-weight:normal;font-stretch:normal;font-size:medium;line-height:1.25;font-family:'Exo 2';-inkscape-font-specification:'Exo 2, ';font-variant-ligatures:normal;font-variant-position:normal;font-variant-caps:normal;font-variant-numeric:normal;font-variant-alternates:normal;font-variant-east-asian:normal;font-feature-settings:normal;font-variation-settings:normal;text-indent:0;text-align:start;text-decoration:none;text-decoration-line:none;text-decoration-style:solid;text-decoration-color:#000000;letter-spacing:0px;word-spacing:0px;text-transform:none;writing-mode:lr-tb;direction:ltr;text-orientation:mixed;dominant-baseline:auto;baseline-shift:baseline;text-anchor:start;white-space:normal;shape-padding:0;shape-margin:0;inline-size:0;clip-rule:nonzero;display:inline;overflow:visible;visibility:visible;isolation:auto;mix-blend-mode:normal;color-interpolation:sRGB;color-interpolation-filters:linearRGB;solid-color:#000000;solid-opacity:1;vector-effect:none;fill:#ffffff;fill-opacity:1;fill-rule:nonzero;stroke:none;stroke-width:0.264583;stroke-linecap:butt;stroke-linejoin:miter;stroke-miterlimit:4;stroke-dasharray:none;stroke-dashoffset:0;stroke-opacity:1;color-rendering:auto;image-rendering:auto;shape-rendering:auto;text-rendering:auto;enable-background:accumulate;stop-color:#000000;stop-opacity:1"
           d="m 278.05121,15.477068 0.3048,3.911599 c 3.99627,-3.014133 7.68773,-4.521199 11.0744,-4.521199 4.4704,0 6.7056,2.269066 6.7056,6.807199 v 18.542 h -4.318 v -17.3228 c 0,-1.6256 -0.27093,-2.760133 -0.8128,-3.4036 -0.54187,-0.643466 -1.45627,-0.965199 -2.7432,-0.965199 -1.35467,0 -2.72627,0.3048 -4.1148,0.914399 -1.35467,0.6096 -3.16653,1.608667 -5.4356,2.9972 v 17.78 h -4.318 V 15.477068 Z"
           id="path1052" />
        <path
           style="color:#000000;font-style:normal;font-variant:normal;font-weight:normal;font-stretch:normal;font-size:medium;line-height:1.25;font-family:'Exo 2';-inkscape-font-specification:'Exo 2, ';font-variant-ligatures:normal;font-variant-position:normal;font-variant-caps:normal;font-variant-numeric:normal;font-variant-alternates:normal;font-variant-east-asian:normal;font-feature-settings:normal;font-variation-settings:normal;text-indent:0;text-align:start;text-decoration:none;text-decoration-line:none;text-decoration-style:solid;text-decoration-color:#000000;letter-spacing:0px;word-spacing:0px;text-transform:none;writing-mode:lr-tb;direction:ltr;text-orientation:mixed;dominant-baseline:auto;baseline-shift:baseline;text-anchor:start;white-space:normal;shape-padding:0;shape-margin:0;inline-size:0;clip-rule:nonzero;display:inline;overflow:visible;visibility:visible;isolation:auto;mix-blend-mode:normal;color-interpolation:sRGB;color-interpolation-filters:linearRGB;solid-color:#000000;solid-opacity:1;vector-effect:none;fill:#ffffff;fill-opacity:1;fill-rule:nonzero;stroke:none;stroke-width:0.264583;stroke-linecap:butt;stroke-linejoin:miter;stroke-miterlimit:4;stroke-dasharray:none;stroke-dashoffset:0;stroke-opacity:1;color-rendering:auto;image-rendering:auto;shape-rendering:auto;text-rendering:auto;enable-background:accumulate;stop-color:#000000;stop-opacity:1"
           d="m 289.42969,14.734375 c -3.36772,0 -7.02434,1.510195 -10.95703,4.433594 l -0.29883,-3.822266 h -0.12305 -3.78906 v 25.003906 h 4.58203 V 22.513672 c 2.22968,-1.361915 4.02742,-2.354623 5.35742,-2.953125 1.37404,-0.603234 2.72573,-0.902344 4.06055,-0.902344 1.26488,0 2.13395,0.313973 2.64258,0.917969 0.50651,0.601481 0.78125,1.707458 0.78125,3.318359 v 17.455078 h 4.58203 V 21.673828 c 0,-2.290786 -0.56435,-4.031321 -1.71289,-5.197266 -1.14855,-1.165944 -2.86742,-1.742187 -5.125,-1.742187 z m 0,0.265625 c 2.21281,0 3.84889,0.558988 4.93554,1.662109 1.08666,1.103122 1.63868,2.764372 1.63868,5.011719 v 18.410156 h -4.05274 V 22.894531 c 0,-1.640299 -0.26848,-2.804782 -0.8457,-3.490234 -0.57511,-0.682937 -1.53477,-1.011719 -2.84375,-1.011719 -1.37451,0 -2.76494,0.309816 -4.16797,0.925781 -1.36374,0.613682 -3.17946,1.615707 -5.45117,3.00586 l -0.0625,0.03906 v 17.720703 h -4.05469 V 15.609375 h 3.4043 l 0.3125,4.03125 0.19336,-0.146484 C 282.41747,16.490826 286.08227,15 289.42969,15 Z"
           id="path1054" />
      </g>
    </g>
  </g>
</svg>
