<?xml version="1.0" encoding="UTF-8" standalone="no"?>
<svg
   xmlns:dc="http://purl.org/dc/elements/1.1/"
   xmlns:cc="http://creativecommons.org/ns#"
   xmlns:rdf="http://www.w3.org/1999/02/22-rdf-syntax-ns#"
   xmlns:svg="http://www.w3.org/2000/svg"
   xmlns="http://www.w3.org/2000/svg"
   xmlns:sodipodi="http://sodipodi.sourceforge.net/DTD/sodipodi-0.dtd"
   xmlns:inkscape="http://www.inkscape.org/namespaces/inkscape"
   sodipodi:docname="name.svg"
   width="300mm"
   height="180mm"
   viewBox="0 0 300 180"
   version="1.1"
   id="svg8"
   inkscape:version="1.0.1 (3bc2e813f5, 2020-09-07)">
  <defs
     id="defs2">
    <clipPath
       id="clipPath905"
       clipPathUnits="userSpaceOnUse">
      <path
         d="M 270.00015,23.000146 C 246.01447,23.000146 230,43.6054 230,65.000166 c 0,44.073344 75.00008,89.999674 75.00008,89.999674 0,0 75.00006,-45.92633 75.00006,-89.999674 0,-21.394766 -16.01446,-42.00002 -40.00013,-42.00002 -27.95442,0 -34.99993,21.99969 -34.99993,21.99969 0,0 -7.04551,-21.99969 -34.99993,-21.99969 z"
         style="fill:#000000;fill-opacity:1;stroke-width:3.96899"
         id="path907" />
    </clipPath>
  </defs>
  <sodipodi:namedview
     inkscape:window-maximized="1"
     inkscape:window-y="-8"
     inkscape:window-x="-8"
     inkscape:window-height="1017"
     inkscape:window-width="1920"
     id="base"
     pagecolor="#000000"
     bordercolor="#666666"
     borderopacity="1.0"
     inkscape:pageopacity="0"
     inkscape:pageshadow="2"
     inkscape:zoom="0.7"
     inkscape:cx="566.69411"
     inkscape:cy="507.28431"
     inkscape:document-units="mm"
     inkscape:current-layer="layer2"
     inkscape:document-rotation="0"
     showgrid="false"
     inkscape:pagecheckerboard="true" />
  <metadata
     id="metadata5">
    <rdf:RDF>
      <cc:Work
         rdf:about="">
        <dc:format>image/svg+xml</dc:format>
        <dc:type
           rdf:resource="http://purl.org/dc/dcmitype/StillImage" />
        <dc:title />
      </cc:Work>
    </rdf:RDF>
  </metadata>
  <g
     style="display:inline"
     inkscape:label="Layer 2"
     id="layer2"
     inkscape:groupmode="layer">
    <g
       aria-label="Lightling"
       id="g884"
       style="font-style:normal;font-variant:normal;font-weight:normal;font-stretch:normal;font-size:95.0271px;line-height:1.25;font-family:Dosis;-inkscape-font-specification:Dosis;letter-spacing:0px;word-spacing:0px;writing-mode:lr-tb;fill:#37505c;fill-opacity:1;stroke:none;stroke-width:0.494932"
       transform="translate(0,5.000001)">
      <path
         d="M -1.5640259e-7,113.03497 V 48.321517 q 0,-2.280651 3.13589425640259,-2.280651 3.1358943,0 3.1358943,2.280651 V 109.70902 H 33.354512 q 2.090596,0 2.090596,2.85082 0,2.94584 -2.090596,2.94584 H 2.8508128 q -1.1403252,0 -1.99556906,-0.66519 Q -1.5640259e-7,114.1753 -1.5640259e-7,113.03497 Z"
         style="font-style:normal;font-variant:normal;font-weight:normal;font-stretch:normal;font-family:Dosis;-inkscape-font-specification:Dosis;fill:#37505c;fill-opacity:1;stroke:none;stroke-width:0.494932"
         id="path866" />
      <path
         d="m 42.762134,56.113739 q -1.235353,-1.235352 -1.235353,-2.850813 0,-1.615461 1.235353,-2.755786 1.235352,-1.140325 3.040867,-1.140325 1.710488,0 2.850813,1.140325 1.235352,1.140325 1.235352,2.755786 0,1.615461 -1.235352,2.850813 -1.140325,1.140325 -2.850813,1.140325 -1.805515,0 -3.040867,-1.140325 z m 0,56.921231 V 72.838509 q 0,-0.950271 0.855244,-1.615461 0.855243,-0.66519 2.185623,-0.66519 1.330379,0 2.185623,0.66519 0.950271,0.66519 0.950271,1.615461 v 40.196461 q 0,0.95027 -0.950271,1.71049 -0.950271,0.76022 -2.185623,0.76022 -1.235352,0 -2.185623,-0.76022 -0.855244,-0.76022 -0.855244,-1.71049 z"
         style="font-style:normal;font-variant:normal;font-weight:normal;font-stretch:normal;font-family:Dosis;-inkscape-font-specification:Dosis;fill:#37505c;fill-opacity:1;stroke:none;stroke-width:0.494932"
         id="path868" />
      <path
         d="m 57.301277,124.91336 q 0,-7.12703 8.077304,-10.35795 -5.226491,-1.80552 -5.226491,-6.55687 0,-4.27622 4.751355,-6.84196 -5.22649,-4.371242 -5.22649,-11.97341 v -3.61103 q 0,-6.936978 4.466273,-11.213198 4.561301,-4.371246 11.878388,-4.371246 6.651897,0 11.11817,3.991138 1.425407,-2.755786 3.230922,-4.371247 1.805515,-1.615461 3.516002,-1.615461 1.33038,0 2.090597,0.760217 0.760216,0.760217 0.760216,1.710488 0,1.710488 -1.61546,2.090596 -3.325949,0.66519 -5.321518,4.086166 2.660759,3.516002 2.660759,8.932547 v 3.61103 q 0,6.841951 -4.656328,11.30822 -4.656328,4.46628 -11.878387,4.46628 -3.896111,0 -7.317087,-1.61546 -2.94584,1.61546 -2.94584,3.70605 0,1.99557 2.185623,3.04087 2.185623,1.0453 5.416545,1.33038 3.325948,0.28508 7.127032,0.95027 3.896111,0.57016 7.127033,1.52044 3.325948,0.95027 5.511572,3.516 2.185623,2.56573 2.185623,6.6519 0,6.46184 -5.131464,9.97784 -5.131463,3.516 -13.493848,3.516 -8.552439,0 -13.968983,-3.42097 -5.321518,-3.42098 -5.321518,-9.21763 z m 5.986707,-0.57016 q 0,3.89611 3.516003,6.27179 3.61103,2.37567 9.692764,2.37567 5.986707,0 9.312656,-2.37567 3.420976,-2.37568 3.420976,-6.36682 0,-1.90054 -0.950271,-3.32595 -0.950271,-1.42541 -2.280651,-2.18562 -1.235352,-0.76022 -3.325948,-1.33038 -2.090597,-0.57016 -3.706057,-0.76022 -1.520434,-0.19005 -3.896111,-0.38011 l -3.325949,-0.38011 q -8.457412,2.66076 -8.457412,8.45742 z m 2.375678,-35.255057 q 0,4.941409 2.755786,8.077303 2.850813,3.135894 7.697195,3.135894 4.656328,0 7.412114,-3.135894 2.850813,-3.135894 2.850813,-7.982276 v -3.61103 q 0,-4.751355 -2.850813,-7.792222 -2.755786,-3.135895 -7.507141,-3.135895 -4.751355,0 -7.602168,3.135895 -2.755786,3.040867 -2.755786,7.792222 z"
         style="font-style:normal;font-variant:normal;font-weight:normal;font-stretch:normal;font-family:Dosis;-inkscape-font-specification:Dosis;fill:#37505c;fill-opacity:1;stroke:none;stroke-width:0.494932"
         id="path870" />
      <path
         d="M 103.86452,113.03497 V 45.28065 q 0,-0.950271 0.85525,-1.615461 0.85524,-0.66519 2.18562,-0.66519 1.33038,0 2.18562,0.66519 0.95028,0.66519 0.95028,1.615461 v 31.929105 q 1.61546,-3.040867 4.84638,-5.131463 3.32595,-2.090596 7.69719,-2.090596 6.84195,0 11.78336,5.22649 5.03644,5.226491 5.03644,12.543577 v 25.277207 q 0,1.14033 -0.95027,1.80552 -0.85525,0.66519 -2.18563,0.66519 -1.14032,0 -2.09059,-0.66519 -0.95027,-0.66519 -0.95027,-1.80552 V 87.757763 q 0,-4.656328 -3.516,-8.362385 -3.51601,-3.706056 -8.26736,-3.706056 -4.46628,0 -7.98228,3.325948 -3.42097,3.325949 -3.42097,8.742493 v 25.277207 q 0,0.95027 -0.95028,1.71049 -0.95027,0.76022 -2.18562,0.76022 -1.23535,0 -2.18562,-0.76022 -0.85525,-0.76022 -0.85525,-1.71049 z"
         style="font-style:normal;font-variant:normal;font-weight:normal;font-stretch:normal;font-family:Dosis;-inkscape-font-specification:Dosis;fill:#37505c;fill-opacity:1;stroke:none;stroke-width:0.494932"
         id="path872" />
      <path
         d="M 150.80776,101.53669 V 51.457411 q 0,-0.950271 0.95027,-1.615461 0.95027,-0.665189 2.0906,-0.665189 1.23535,0 2.18562,0.665189 0.95027,0.66519 0.95027,1.615461 v 19.100447 h 12.2585 q 0.95027,0 1.52043,0.760217 0.66519,0.760217 0.66519,1.805515 0,1.045298 -0.66519,1.805515 -0.57016,0.760217 -1.52043,0.760217 h -12.2585 v 25.847368 q 0,4.65633 1.90055,6.55687 1.99557,1.80552 6.93697,1.80552 h 2.66076 q 1.23536,0 1.99557,0.85524 0.85525,0.76022 0.85525,1.90054 0,1.14033 -0.85525,1.99557 -0.76021,0.85525 -1.99557,0.85525 h -2.66076 q -15.01428,0 -15.01428,-13.96899 z"
         style="font-style:normal;font-variant:normal;font-weight:normal;font-stretch:normal;font-family:Dosis;-inkscape-font-specification:Dosis;fill:#37505c;fill-opacity:1;stroke:none;stroke-width:0.494932"
         id="path874" />
      <path
         d="M 179.98098,113.03497 V 45.28065 q 0,-0.950271 0.85524,-1.615461 0.85525,-0.66519 2.18563,-0.66519 1.33038,0 2.18562,0.66519 0.95027,0.66519 0.95027,1.615461 v 67.75432 q 0,0.95027 -0.95027,1.71049 -0.85524,0.76022 -2.18562,0.76022 -1.23536,0 -2.18563,-0.76022 -0.85524,-0.76022 -0.85524,-1.71049 z"
         style="font-style:normal;font-variant:normal;font-weight:normal;font-stretch:normal;font-family:Dosis;-inkscape-font-specification:Dosis;fill:#37505c;fill-opacity:1;stroke:none;stroke-width:0.494932"
         id="path876" />
      <path
         d="m 198.89126,56.113739 q -1.23535,-1.235352 -1.23535,-2.850813 0,-1.615461 1.23535,-2.755786 1.23536,-1.140325 3.04087,-1.140325 1.71049,0 2.85082,1.140325 1.23535,1.140325 1.23535,2.755786 0,1.615461 -1.23535,2.850813 -1.14033,1.140325 -2.85082,1.140325 -1.80551,0 -3.04087,-1.140325 z m 0,56.921231 V 72.838509 q 0,-0.950271 0.85525,-1.615461 0.85524,-0.66519 2.18562,-0.66519 1.33038,0 2.18563,0.66519 0.95027,0.66519 0.95027,1.615461 v 40.196461 q 0,0.95027 -0.95027,1.71049 -0.95028,0.76022 -2.18563,0.76022 -1.23535,0 -2.18562,-0.76022 -0.85525,-0.76022 -0.85525,-1.71049 z"
         style="font-style:normal;font-variant:normal;font-weight:normal;font-stretch:normal;font-family:Dosis;-inkscape-font-specification:Dosis;fill:#37505c;fill-opacity:1;stroke:none;stroke-width:0.494932"
         id="path878" />
      <path
         d="M 217.04144,113.03497 V 72.838509 q 0,-1.045299 0.85525,-1.615461 0.85524,-0.66519 2.18562,-0.66519 1.14032,0 1.99557,0.66519 0.85524,0.66519 0.85524,1.615461 v 4.371246 q 1.61546,-3.040867 4.94141,-5.131463 3.32595,-2.090596 7.79222,-2.090596 6.84195,0 11.87839,5.22649 5.03644,5.226491 5.03644,12.543577 v 25.277207 q 0,1.14033 -0.95027,1.80552 -0.95027,0.66519 -2.18563,0.66519 -1.14032,0 -2.09059,-0.66519 -0.95027,-0.66519 -0.95027,-1.80552 V 87.757763 q 0,-4.656328 -3.51601,-8.362385 -3.516,-3.706056 -8.36238,-3.706056 -4.46628,0 -7.88725,3.325948 -3.42098,3.325949 -3.42098,8.742493 v 25.277207 q 0,0.95027 -0.95027,1.71049 -0.95027,0.76022 -2.18562,0.76022 -1.33038,0 -2.18562,-0.76022 -0.85525,-0.76022 -0.85525,-1.71049 z"
         style="font-style:normal;font-variant:normal;font-weight:normal;font-stretch:normal;font-family:Dosis;-inkscape-font-specification:Dosis;fill:#37505c;fill-opacity:1;stroke:none;stroke-width:0.494932"
         id="path880" />
      <path
         d="m 260.56371,124.91336 q 0,-7.12703 8.07731,-10.35795 -5.22649,-1.80552 -5.22649,-6.55687 0,-4.27622 4.75135,-6.84196 -5.22649,-4.371242 -5.22649,-11.97341 v -3.61103 q 0,-6.936978 4.46627,-11.213198 4.5613,-4.371246 11.87839,-4.371246 6.6519,0 11.11817,3.991138 1.42541,-2.755786 3.23092,-4.371247 1.80552,-1.615461 3.51601,-1.615461 1.33038,0 2.09059,0.760217 0.76022,0.760217 0.76022,1.710488 0,1.710488 -1.61546,2.090596 -3.32595,0.66519 -5.32152,4.086166 2.66076,3.516002 2.66076,8.932547 v 3.61103 q 0,6.841951 -4.65633,11.30822 -4.65633,4.46628 -11.87839,4.46628 -3.89611,0 -7.31708,-1.61546 -2.94584,1.61546 -2.94584,3.70605 0,1.99557 2.18562,3.04087 2.18562,1.0453 5.41655,1.33038 3.32594,0.28508 7.12703,0.95027 3.89611,0.57016 7.12703,1.52044 3.32595,0.95027 5.51157,3.516 2.18563,2.56573 2.18563,6.6519 0,6.46184 -5.13147,9.97784 -5.13146,3.516 -13.49385,3.516 -8.55243,0 -13.96898,-3.42097 -5.32152,-3.42098 -5.32152,-9.21763 z m 5.98671,-0.57016 q 0,3.89611 3.516,6.27179 3.61103,2.37567 9.69277,2.37567 5.9867,0 9.31265,-2.37567 3.42098,-2.37568 3.42098,-6.36682 0,-1.90054 -0.95027,-3.32595 -0.95027,-1.42541 -2.28065,-2.18562 -1.23536,-0.76022 -3.32595,-1.33038 -2.0906,-0.57016 -3.70606,-0.76022 -1.52043,-0.19005 -3.89611,-0.38011 l -3.32595,-0.38011 q -8.45741,2.66076 -8.45741,8.45742 z m 2.37568,-35.255057 q 0,4.941409 2.75578,8.077303 2.85082,3.135894 7.6972,3.135894 4.65633,0 7.41211,-3.135894 2.85082,-3.135894 2.85082,-7.982276 v -3.61103 q 0,-4.751355 -2.85082,-7.792222 -2.75578,-3.135895 -7.50714,-3.135895 -4.75135,0 -7.60217,3.135895 -2.75578,3.040867 -2.75578,7.792222 z"
         style="font-style:normal;font-variant:normal;font-weight:normal;font-stretch:normal;font-family:Dosis;-inkscape-font-specification:Dosis;fill:#37505c;fill-opacity:1;stroke:none;stroke-width:0.494932"
         id="path882" />
    </g>
    <g
       aria-label="Lightling"
       id="text845"
       style="font-style:normal;font-variant:normal;font-weight:normal;font-stretch:normal;font-size:95.0271px;line-height:1.25;font-family:Dosis;-inkscape-font-specification:Dosis;letter-spacing:0px;word-spacing:0px;writing-mode:lr-tb;fill:#aa4465;fill-opacity:1;stroke:none;stroke-width:0.494932"
       transform="translate(0,1.000001)">
      <path
         d="M -1.5640259e-7,113.03497 V 48.321517 q 0,-2.280651 3.13589425640259,-2.280651 3.1358943,0 3.1358943,2.280651 V 109.70902 H 33.354512 q 2.090596,0 2.090596,2.85082 0,2.94584 -2.090596,2.94584 H 2.8508128 q -1.1403252,0 -1.99556906,-0.66519 Q -1.5640259e-7,114.1753 -1.5640259e-7,113.03497 Z"
         style="font-style:normal;font-variant:normal;font-weight:normal;font-stretch:normal;font-family:Dosis;-inkscape-font-specification:Dosis;fill:#aa4465;fill-opacity:1;stroke:none;stroke-width:0.494932"
         id="path847" />
      <path
         d="m 42.762134,56.113739 q -1.235353,-1.235352 -1.235353,-2.850813 0,-1.615461 1.235353,-2.755786 1.235352,-1.140325 3.040867,-1.140325 1.710488,0 2.850813,1.140325 1.235352,1.140325 1.235352,2.755786 0,1.615461 -1.235352,2.850813 -1.140325,1.140325 -2.850813,1.140325 -1.805515,0 -3.040867,-1.140325 z m 0,56.921231 V 72.838509 q 0,-0.950271 0.855244,-1.615461 0.855243,-0.66519 2.185623,-0.66519 1.330379,0 2.185623,0.66519 0.950271,0.66519 0.950271,1.615461 v 40.196461 q 0,0.95027 -0.950271,1.71049 -0.950271,0.76022 -2.185623,0.76022 -1.235352,0 -2.185623,-0.76022 -0.855244,-0.76022 -0.855244,-1.71049 z"
         style="font-style:normal;font-variant:normal;font-weight:normal;font-stretch:normal;font-family:Dosis;-inkscape-font-specification:Dosis;fill:#aa4465;fill-opacity:1;stroke:none;stroke-width:0.494932"
         id="path849" />
      <path
         d="m 57.301277,124.91336 q 0,-7.12703 8.077304,-10.35795 -5.226491,-1.80552 -5.226491,-6.55687 0,-4.27622 4.751355,-6.84196 -5.22649,-4.371242 -5.22649,-11.97341 v -3.61103 q 0,-6.936978 4.466273,-11.213198 4.561301,-4.371246 11.878388,-4.371246 6.651897,0 11.11817,3.991138 1.425407,-2.755786 3.230922,-4.371247 1.805515,-1.615461 3.516002,-1.615461 1.33038,0 2.090597,0.760217 0.760216,0.760217 0.760216,1.710488 0,1.710488 -1.61546,2.090596 -3.325949,0.66519 -5.321518,4.086166 2.660759,3.516002 2.660759,8.932547 v 3.61103 q 0,6.841951 -4.656328,11.30822 -4.656328,4.46628 -11.878387,4.46628 -3.896111,0 -7.317087,-1.61546 -2.94584,1.61546 -2.94584,3.70605 0,1.99557 2.185623,3.04087 2.185623,1.0453 5.416545,1.33038 3.325948,0.28508 7.127032,0.95027 3.896111,0.57016 7.127033,1.52044 3.325948,0.95027 5.511572,3.516 2.185623,2.56573 2.185623,6.6519 0,6.46184 -5.131464,9.97784 -5.131463,3.516 -13.493848,3.516 -8.552439,0 -13.968983,-3.42097 -5.321518,-3.42098 -5.321518,-9.21763 z m 5.986707,-0.57016 q 0,3.89611 3.516003,6.27179 3.61103,2.37567 9.692764,2.37567 5.986707,0 9.312656,-2.37567 3.420976,-2.37568 3.420976,-6.36682 0,-1.90054 -0.950271,-3.32595 -0.950271,-1.42541 -2.280651,-2.18562 -1.235352,-0.76022 -3.325948,-1.33038 -2.090597,-0.57016 -3.706057,-0.76022 -1.520434,-0.19005 -3.896111,-0.38011 l -3.325949,-0.38011 q -8.457412,2.66076 -8.457412,8.45742 z m 2.375678,-35.255057 q 0,4.941409 2.755786,8.077303 2.850813,3.135894 7.697195,3.135894 4.656328,0 7.412114,-3.135894 2.850813,-3.135894 2.850813,-7.982276 v -3.61103 q 0,-4.751355 -2.850813,-7.792222 -2.755786,-3.135895 -7.507141,-3.135895 -4.751355,0 -7.602168,3.135895 -2.755786,3.040867 -2.755786,7.792222 z"
         style="font-style:normal;font-variant:normal;font-weight:normal;font-stretch:normal;font-family:Dosis;-inkscape-font-specification:Dosis;fill:#aa4465;fill-opacity:1;stroke:none;stroke-width:0.494932"
         id="path851" />
      <path
         d="M 103.86452,113.03497 V 45.28065 q 0,-0.950271 0.85525,-1.615461 0.85524,-0.66519 2.18562,-0.66519 1.33038,0 2.18562,0.66519 0.95028,0.66519 0.95028,1.615461 v 31.929105 q 1.61546,-3.040867 4.84638,-5.131463 3.32595,-2.090596 7.69719,-2.090596 6.84195,0 11.78336,5.22649 5.03644,5.226491 5.03644,12.543577 v 25.277207 q 0,1.14033 -0.95027,1.80552 -0.85525,0.66519 -2.18563,0.66519 -1.14032,0 -2.09059,-0.66519 -0.95027,-0.66519 -0.95027,-1.80552 V 87.757763 q 0,-4.656328 -3.516,-8.362385 -3.51601,-3.706056 -8.26736,-3.706056 -4.46628,0 -7.98228,3.325948 -3.42097,3.325949 -3.42097,8.742493 v 25.277207 q 0,0.95027 -0.95028,1.71049 -0.95027,0.76022 -2.18562,0.76022 -1.23535,0 -2.18562,-0.76022 -0.85525,-0.76022 -0.85525,-1.71049 z"
         style="font-style:normal;font-variant:normal;font-weight:normal;font-stretch:normal;font-family:Dosis;-inkscape-font-specification:Dosis;fill:#aa4465;fill-opacity:1;stroke:none;stroke-width:0.494932"
         id="path853" />
      <path
         d="M 150.80776,101.53669 V 51.457411 q 0,-0.950271 0.95027,-1.615461 0.95027,-0.665189 2.0906,-0.665189 1.23535,0 2.18562,0.665189 0.95027,0.66519 0.95027,1.615461 v 19.100447 h 12.2585 q 0.95027,0 1.52043,0.760217 0.66519,0.760217 0.66519,1.805515 0,1.045298 -0.66519,1.805515 -0.57016,0.760217 -1.52043,0.760217 h -12.2585 v 25.847368 q 0,4.65633 1.90055,6.55687 1.99557,1.80552 6.93697,1.80552 h 2.66076 q 1.23536,0 1.99557,0.85524 0.85525,0.76022 0.85525,1.90054 0,1.14033 -0.85525,1.99557 -0.76021,0.85525 -1.99557,0.85525 h -2.66076 q -15.01428,0 -15.01428,-13.96899 z"
         style="font-style:normal;font-variant:normal;font-weight:normal;font-stretch:normal;font-family:Dosis;-inkscape-font-specification:Dosis;fill:#aa4465;fill-opacity:1;stroke:none;stroke-width:0.494932"
         id="path855" />
      <path
         d="M 179.98098,113.03497 V 45.28065 q 0,-0.950271 0.85524,-1.615461 0.85525,-0.66519 2.18563,-0.66519 1.33038,0 2.18562,0.66519 0.95027,0.66519 0.95027,1.615461 v 67.75432 q 0,0.95027 -0.95027,1.71049 -0.85524,0.76022 -2.18562,0.76022 -1.23536,0 -2.18563,-0.76022 -0.85524,-0.76022 -0.85524,-1.71049 z"
         style="font-style:normal;font-variant:normal;font-weight:normal;font-stretch:normal;font-family:Dosis;-inkscape-font-specification:Dosis;fill:#aa4465;fill-opacity:1;stroke:none;stroke-width:0.494932"
         id="path857" />
      <path
         d="m 198.89126,56.113739 q -1.23535,-1.235352 -1.23535,-2.850813 0,-1.615461 1.23535,-2.755786 1.23536,-1.140325 3.04087,-1.140325 1.71049,0 2.85082,1.140325 1.23535,1.140325 1.23535,2.755786 0,1.615461 -1.23535,2.850813 -1.14033,1.140325 -2.85082,1.140325 -1.80551,0 -3.04087,-1.140325 z m 0,56.921231 V 72.838509 q 0,-0.950271 0.85525,-1.615461 0.85524,-0.66519 2.18562,-0.66519 1.33038,0 2.18563,0.66519 0.95027,0.66519 0.95027,1.615461 v 40.196461 q 0,0.95027 -0.95027,1.71049 -0.95028,0.76022 -2.18563,0.76022 -1.23535,0 -2.18562,-0.76022 -0.85525,-0.76022 -0.85525,-1.71049 z"
         style="font-style:normal;font-variant:normal;font-weight:normal;font-stretch:normal;font-family:Dosis;-inkscape-font-specification:Dosis;fill:#aa4465;fill-opacity:1;stroke:none;stroke-width:0.494932"
         id="path859" />
      <path
         d="M 217.04144,113.03497 V 72.838509 q 0,-1.045299 0.85525,-1.615461 0.85524,-0.66519 2.18562,-0.66519 1.14032,0 1.99557,0.66519 0.85524,0.66519 0.85524,1.615461 v 4.371246 q 1.61546,-3.040867 4.94141,-5.131463 3.32595,-2.090596 7.79222,-2.090596 6.84195,0 11.87839,5.22649 5.03644,5.226491 5.03644,12.543577 v 25.277207 q 0,1.14033 -0.95027,1.80552 -0.95027,0.66519 -2.18563,0.66519 -1.14032,0 -2.09059,-0.66519 -0.95027,-0.66519 -0.95027,-1.80552 V 87.757763 q 0,-4.656328 -3.51601,-8.362385 -3.516,-3.706056 -8.36238,-3.706056 -4.46628,0 -7.88725,3.325948 -3.42098,3.325949 -3.42098,8.742493 v 25.277207 q 0,0.95027 -0.95027,1.71049 -0.95027,0.76022 -2.18562,0.76022 -1.33038,0 -2.18562,-0.76022 -0.85525,-0.76022 -0.85525,-1.71049 z"
         style="font-style:normal;font-variant:normal;font-weight:normal;font-stretch:normal;font-family:Dosis;-inkscape-font-specification:Dosis;fill:#aa4465;fill-opacity:1;stroke:none;stroke-width:0.494932"
         id="path861" />
      <path
         d="m 260.56371,124.91336 q 0,-7.12703 8.07731,-10.35795 -5.22649,-1.80552 -5.22649,-6.55687 0,-4.27622 4.75135,-6.84196 -5.22649,-4.371242 -5.22649,-11.97341 v -3.61103 q 0,-6.936978 4.46627,-11.213198 4.5613,-4.371246 11.87839,-4.371246 6.6519,0 11.11817,3.991138 1.42541,-2.755786 3.23092,-4.371247 1.80552,-1.615461 3.51601,-1.615461 1.33038,0 2.09059,0.760217 0.76022,0.760217 0.76022,1.710488 0,1.710488 -1.61546,2.090596 -3.32595,0.66519 -5.32152,4.086166 2.66076,3.516002 2.66076,8.932547 v 3.61103 q 0,6.841951 -4.65633,11.30822 -4.65633,4.46628 -11.87839,4.46628 -3.89611,0 -7.31708,-1.61546 -2.94584,1.61546 -2.94584,3.70605 0,1.99557 2.18562,3.04087 2.18562,1.0453 5.41655,1.33038 3.32594,0.28508 7.12703,0.95027 3.89611,0.57016 7.12703,1.52044 3.32595,0.95027 5.51157,3.516 2.18563,2.56573 2.18563,6.6519 0,6.46184 -5.13147,9.97784 -5.13146,3.516 -13.49385,3.516 -8.55243,0 -13.96898,-3.42097 -5.32152,-3.42098 -5.32152,-9.21763 z m 5.98671,-0.57016 q 0,3.89611 3.516,6.27179 3.61103,2.37567 9.69277,2.37567 5.9867,0 9.31265,-2.37567 3.42098,-2.37568 3.42098,-6.36682 0,-1.90054 -0.95027,-3.32595 -0.95027,-1.42541 -2.28065,-2.18562 -1.23536,-0.76022 -3.32595,-1.33038 -2.0906,-0.57016 -3.70606,-0.76022 -1.52043,-0.19005 -3.89611,-0.38011 l -3.32595,-0.38011 q -8.45741,2.66076 -8.45741,8.45742 z m 2.37568,-35.255057 q 0,4.941409 2.75578,8.077303 2.85082,3.135894 7.6972,3.135894 4.65633,0 7.41211,-3.135894 2.85082,-3.135894 2.85082,-7.982276 v -3.61103 q 0,-4.751355 -2.85082,-7.792222 -2.75578,-3.135895 -7.50714,-3.135895 -4.75135,0 -7.60217,3.135895 -2.75578,3.040867 -2.75578,7.792222 z"
         style="font-style:normal;font-variant:normal;font-weight:normal;font-stretch:normal;font-family:Dosis;-inkscape-font-specification:Dosis;fill:#aa4465;fill-opacity:1;stroke:none;stroke-width:0.494932"
         id="path863" />
    </g>
  </g>
  <g
     inkscape:label="Layer 1"
     id="layer3"
     inkscape:groupmode="layer"
     style="display:inline" />
</svg>
