<?xml version="1.0" encoding="UTF-8" standalone="no"?>
<svg
   xmlns:dc="http://purl.org/dc/elements/1.1/"
   xmlns:cc="http://creativecommons.org/ns#"
   xmlns:rdf="http://www.w3.org/1999/02/22-rdf-syntax-ns#"
   xmlns:svg="http://www.w3.org/2000/svg"
   xmlns="http://www.w3.org/2000/svg"
   xmlns:sodipodi="http://sodipodi.sourceforge.net/DTD/sodipodi-0.dtd"
   xmlns:inkscape="http://www.inkscape.org/namespaces/inkscape"
   sodipodi:docname="pride_transenby.svg"
   width="300mm"
   height="180mm"
   viewBox="0 0 300 180"
   version="1.1"
   id="svg8"
   inkscape:version="1.0.1 (3bc2e813f5, 2020-09-07)">
  <defs
     id="defs2">
    <clipPath
       id="clipPath905"
       clipPathUnits="userSpaceOnUse">
      <path
         d="M 270.00015,23.000146 C 246.01447,23.000146 230,43.6054 230,65.000166 c 0,44.073344 75.00008,89.999674 75.00008,89.999674 0,0 75.00006,-45.92633 75.00006,-89.999674 0,-21.394766 -16.01446,-42.00002 -40.00013,-42.00002 -27.95442,0 -34.99993,21.99969 -34.99993,21.99969 0,0 -7.04551,-21.99969 -34.99993,-21.99969 z"
         style="fill:#000000;fill-opacity:1;stroke-width:3.96899"
         id="path907" />
    </clipPath>
  </defs>
  <sodipodi:namedview
     inkscape:window-maximized="1"
     inkscape:window-y="-8"
     inkscape:window-x="-8"
     inkscape:window-height="1017"
     inkscape:window-width="1920"
     id="base"
     pagecolor="#000000"
     bordercolor="#666666"
     borderopacity="1.0"
     inkscape:pageopacity="0"
     inkscape:pageshadow="2"
     inkscape:zoom="0.98994949"
     inkscape:cx="486.60755"
     inkscape:cy="346.21381"
     inkscape:document-units="mm"
     inkscape:current-layer="layer3"
     inkscape:document-rotation="0"
     showgrid="false"
     inkscape:pagecheckerboard="true" />
  <metadata
     id="metadata5">
    <rdf:RDF>
      <cc:Work
         rdf:about="">
        <dc:format>image/svg+xml</dc:format>
        <dc:type
           rdf:resource="http://purl.org/dc/dcmitype/StillImage" />
        <dc:title />
      </cc:Work>
    </rdf:RDF>
  </metadata>
  <g
     inkscape:label="Layer 1"
     id="layer3"
     inkscape:groupmode="layer"
     style="display:inline">
    <rect
       style="fill:#5bcefa;fill-opacity:1;stroke-width:0.447;stroke-linecap:round;stroke-linejoin:round;stroke-opacity:0"
       id="rect845"
       width="300"
       height="35"
       x="0"
       y="0" />
    <rect
       style="fill:#f5a9b8;fill-opacity:1;stroke-width:0.447;stroke-linecap:round;stroke-linejoin:round;stroke-opacity:0"
       id="rect847"
       width="300"
       height="35"
       x="0"
       y="30" />
    <rect
       style="fill:#fff433;fill-opacity:1;stroke-width:0.447;stroke-linecap:round;stroke-linejoin:round;stroke-opacity:0"
       id="rect849"
       width="300"
       height="35"
       x="0"
       y="60" />
    <rect
       style="fill:#f2f2f2;fill-opacity:1;stroke-width:0.447;stroke-linecap:round;stroke-linejoin:round;stroke-opacity:0"
       id="rect851"
       width="300"
       height="35"
       x="0"
       y="90" />
    <rect
       style="fill:#9b59d0;fill-opacity:1;stroke-width:0.447;stroke-linecap:round;stroke-linejoin:round;stroke-opacity:0"
       id="rect853"
       width="300"
       height="35"
       x="0"
       y="120" />
    <rect
       style="fill:#2d2d2d;fill-opacity:1;stroke-width:0.413842;stroke-linecap:round;stroke-linejoin:round;stroke-opacity:0"
       id="rect855"
       width="300"
       height="30"
       x="0"
       y="150" />
    <g
       aria-label="They/Them"
       id="text859"
       style="font-style:normal;font-variant:normal;font-weight:normal;font-stretch:normal;font-size:50.6188px;line-height:1.25;font-family:Dosis;-inkscape-font-specification:Dosis;letter-spacing:0px;word-spacing:0px;writing-mode:lr-tb;fill:#412745;fill-opacity:1;stroke:none;stroke-width:0.264;stroke-miterlimit:4;stroke-dasharray:none">
      <g
         id="g880"
         style="opacity:1;fill:#412745;fill-opacity:1;stroke:none;stroke-width:0.264;stroke-miterlimit:4;stroke-dasharray:none">
        <path
           style="color:#000000;font-style:normal;font-variant:normal;font-weight:normal;font-stretch:normal;font-size:medium;line-height:1.25;font-family:Dosis;-inkscape-font-specification:Dosis;font-variant-ligatures:normal;font-variant-position:normal;font-variant-caps:normal;font-variant-numeric:normal;font-variant-alternates:normal;font-variant-east-asian:normal;font-feature-settings:normal;font-variation-settings:normal;text-indent:0;text-align:start;text-decoration:none;text-decoration-line:none;text-decoration-style:solid;text-decoration-color:#000000;letter-spacing:0px;word-spacing:0px;text-transform:none;writing-mode:lr-tb;direction:ltr;text-orientation:mixed;dominant-baseline:auto;baseline-shift:baseline;text-anchor:start;white-space:normal;shape-padding:0;shape-margin:0;inline-size:0;clip-rule:nonzero;display:inline;overflow:visible;visibility:visible;isolation:auto;mix-blend-mode:normal;color-interpolation:sRGB;color-interpolation-filters:linearRGB;solid-color:#000000;solid-opacity:1;vector-effect:none;fill:#412745;fill-opacity:1;fill-rule:nonzero;stroke:none;stroke-width:0.264;stroke-linecap:butt;stroke-linejoin:miter;stroke-miterlimit:4;stroke-dasharray:none;stroke-dashoffset:0;stroke-opacity:1;color-rendering:auto;image-rendering:auto;shape-rendering:auto;text-rendering:auto;enable-background:accumulate;stop-color:#000000;stop-opacity:1"
           d="m 40.000001,68.492697 c 0,-0.404951 0.101238,-0.759282 0.303713,-1.062995 0.236221,-0.337459 0.556806,-0.506188 0.961757,-0.506188 H 61.56361 c 0.404951,0 0.708664,0.151856 0.911139,0.455569 0.236221,0.303713 0.354331,0.658044 0.354331,1.062995 0,0.438696 -0.11811,0.826773 -0.354331,1.164232 -0.202475,0.303713 -0.506188,0.45557 -0.911139,0.45557 h -8.45334 v 32.54789 c 0,0.40495 -0.168729,0.72553 -0.506188,0.96176 -0.337459,0.23622 -0.725536,0.35433 -1.164232,0.35433 -0.472442,0 -0.877392,-0.11811 -1.214851,-0.35433 -0.303713,-0.23623 -0.45557,-0.55681 -0.45557,-0.96176 V 70.06188 h -8.503958 c -0.371205,0 -0.674918,-0.151857 -0.911139,-0.45557 -0.236221,-0.303713 -0.354331,-0.674917 -0.354331,-1.113613 z"
           id="path882" />
        <path
           style="color:#000000;font-style:normal;font-variant:normal;font-weight:normal;font-stretch:normal;font-size:medium;line-height:1.25;font-family:Dosis;-inkscape-font-specification:Dosis;font-variant-ligatures:normal;font-variant-position:normal;font-variant-caps:normal;font-variant-numeric:normal;font-variant-alternates:normal;font-variant-east-asian:normal;font-feature-settings:normal;font-variation-settings:normal;text-indent:0;text-align:start;text-decoration:none;text-decoration-line:none;text-decoration-style:solid;text-decoration-color:#000000;letter-spacing:0px;word-spacing:0px;text-transform:none;writing-mode:lr-tb;direction:ltr;text-orientation:mixed;dominant-baseline:auto;baseline-shift:baseline;text-anchor:start;white-space:normal;shape-padding:0;shape-margin:0;inline-size:0;clip-rule:nonzero;display:inline;overflow:visible;visibility:visible;isolation:auto;mix-blend-mode:normal;color-interpolation:sRGB;color-interpolation-filters:linearRGB;solid-color:#000000;solid-opacity:1;vector-effect:none;fill:#412745;fill-opacity:1;fill-rule:nonzero;stroke:none;stroke-width:0.264;stroke-linecap:butt;stroke-linejoin:miter;stroke-miterlimit:4;stroke-dasharray:none;stroke-dashoffset:0;stroke-opacity:1;color-rendering:auto;image-rendering:auto;shape-rendering:auto;text-rendering:auto;enable-background:accumulate;stop-color:#000000;stop-opacity:1"
           d="m 41.265625,66.791016 c -0.441567,0 -0.813798,0.19605 -1.070313,0.5625 v 0.002 l -0.002,0.002 c -0.217474,0.326211 -0.324218,0.707845 -0.324218,1.134766 0,0.462355 0.125755,0.867321 0.380859,1.195312 0.256765,0.330127 0.60847,0.505859 1.015625,0.505859 h 8.371094 v 32.416017 c 0,0.4379 0.175286,0.80776 0.507812,1.0664 l 0.002,0.002 0.002,0.002 c 0.361134,0.25279 0.796603,0.3789 1.291015,0.3789 0.462356,0 0.880791,-0.12729 1.240235,-0.3789 0.366448,-0.25652 0.5625,-0.62875 0.5625,-1.07031 V 70.193359 h 8.322265 c 0.4369,0 0.792512,-0.175769 1.017578,-0.511718 v -0.002 c 0.250888,-0.359095 0.378906,-0.776592 0.378907,-1.238282 0,-0.428375 -0.129785,-0.811644 -0.38086,-1.136718 -0.225126,-0.334947 -0.579393,-0.513672 -1.015625,-0.513672 z m 0,0.263672 h 20.298828 c 0.371996,0 0.620805,0.128472 0.800781,0.398437 l 0.002,0.0039 0.0039,0.0039 c 0.218789,0.281301 0.326172,0.601149 0.326172,0.980468 0,0.415036 -0.109247,0.77437 -0.330078,1.089844 h -0.002 v 0.002 c -0.179976,0.269966 -0.428785,0.396485 -0.800781,0.396485 H 52.97851 v 32.679688 c 0,0.36832 -0.14075,0.63758 -0.449219,0.85351 -0.315474,0.22083 -0.674808,0.33203 -1.089844,0.33203 -0.44884,0 -0.821677,-0.11201 -1.134765,-0.33008 -0.273353,-0.21354 -0.404297,-0.48449 -0.404297,-0.85546 V 69.929688 h -8.634766 c -0.335254,0 -0.590963,-0.126997 -0.806641,-0.404297 -0.217337,-0.279434 -0.328125,-0.618167 -0.328125,-1.033203 0,-0.381385 0.09533,-0.705917 0.28125,-0.986329 9.8e-5,-1.46e-4 0.0019,1.47e-4 0.002,0 0.215733,-0.30732 0.483888,-0.451172 0.851563,-0.451171 z"
           id="path884" />
      </g>
      <g
         id="g886"
         style="opacity:1;fill:#412745;fill-opacity:1;stroke:none;stroke-width:0.264;stroke-miterlimit:4;stroke-dasharray:none">
        <path
           style="color:#000000;font-style:normal;font-variant:normal;font-weight:normal;font-stretch:normal;font-size:medium;line-height:1.25;font-family:Dosis;-inkscape-font-specification:Dosis;font-variant-ligatures:normal;font-variant-position:normal;font-variant-caps:normal;font-variant-numeric:normal;font-variant-alternates:normal;font-variant-east-asian:normal;font-feature-settings:normal;font-variation-settings:normal;text-indent:0;text-align:start;text-decoration:none;text-decoration-line:none;text-decoration-style:solid;text-decoration-color:#000000;letter-spacing:0px;word-spacing:0px;text-transform:none;writing-mode:lr-tb;direction:ltr;text-orientation:mixed;dominant-baseline:auto;baseline-shift:baseline;text-anchor:start;white-space:normal;shape-padding:0;shape-margin:0;inline-size:0;clip-rule:nonzero;display:inline;overflow:visible;visibility:visible;isolation:auto;mix-blend-mode:normal;color-interpolation:sRGB;color-interpolation-filters:linearRGB;solid-color:#000000;solid-opacity:1;vector-effect:none;fill:#412745;fill-opacity:1;fill-rule:nonzero;stroke:none;stroke-width:0.264;stroke-linecap:butt;stroke-linejoin:miter;stroke-miterlimit:4;stroke-dasharray:none;stroke-dashoffset:0;stroke-opacity:1;color-rendering:auto;image-rendering:auto;shape-rendering:auto;text-rendering:auto;enable-background:accumulate;stop-color:#000000;stop-opacity:1"
           d="M 66.777297,102.60977 V 66.518564 c 0,-0.337459 0.151856,-0.624299 0.455569,-0.86052 0.303713,-0.236221 0.69179,-0.354332 1.164232,-0.354332 0.472442,0 0.86052,0.118111 1.164233,0.354332 0.337459,0.236221 0.506188,0.523061 0.506188,0.86052 v 17.007917 c 0.573679,-1.079868 1.434199,-1.991007 2.581559,-2.733416 1.181105,-0.742409 2.547813,-1.113613 4.100122,-1.113613 2.429703,0 4.521947,0.928011 6.276732,2.784034 1.788531,1.856023 2.682796,4.08325 2.682796,6.681682 v 13.464602 c 0,0.40495 -0.168729,0.72553 -0.506188,0.96176 -0.303713,0.23622 -0.69179,0.35433 -1.164232,0.35433 -0.404951,0 -0.776155,-0.11811 -1.113614,-0.35433 -0.337459,-0.23623 -0.506188,-0.55681 -0.506188,-0.96176 V 89.145168 c 0,-1.653548 -0.624298,-3.138366 -1.872895,-4.454455 -1.248597,-1.316089 -2.716543,-1.974133 -4.403836,-1.974133 -1.586056,0 -3.003382,0.590553 -4.251979,1.771658 -1.214851,1.181105 -1.822277,2.733415 -1.822277,4.65693 v 13.464602 c 0,0.33746 -0.168729,0.64117 -0.506188,0.91114 -0.337459,0.26997 -0.725536,0.40495 -1.164233,0.40495 -0.438696,0 -0.826773,-0.13498 -1.164232,-0.40495 -0.303713,-0.26997 -0.455569,-0.57368 -0.455569,-0.91114 z"
           id="path888" />
        <path
           style="color:#000000;font-style:normal;font-variant:normal;font-weight:normal;font-stretch:normal;font-size:medium;line-height:1.25;font-family:Dosis;-inkscape-font-specification:Dosis;font-variant-ligatures:normal;font-variant-position:normal;font-variant-caps:normal;font-variant-numeric:normal;font-variant-alternates:normal;font-variant-east-asian:normal;font-feature-settings:normal;font-variation-settings:normal;text-indent:0;text-align:start;text-decoration:none;text-decoration-line:none;text-decoration-style:solid;text-decoration-color:#000000;letter-spacing:0px;word-spacing:0px;text-transform:none;writing-mode:lr-tb;direction:ltr;text-orientation:mixed;dominant-baseline:auto;baseline-shift:baseline;text-anchor:start;white-space:normal;shape-padding:0;shape-margin:0;inline-size:0;clip-rule:nonzero;display:inline;overflow:visible;visibility:visible;isolation:auto;mix-blend-mode:normal;color-interpolation:sRGB;color-interpolation-filters:linearRGB;solid-color:#000000;solid-opacity:1;vector-effect:none;fill:#412745;fill-opacity:1;fill-rule:nonzero;stroke:none;stroke-width:0.264;stroke-linecap:butt;stroke-linejoin:miter;stroke-miterlimit:4;stroke-dasharray:none;stroke-dashoffset:0;stroke-opacity:1;color-rendering:auto;image-rendering:auto;shape-rendering:auto;text-rendering:auto;enable-background:accumulate;stop-color:#000000;stop-opacity:1"
           d="m 68.396484,65.171875 c -0.494412,0 -0.914281,0.126255 -1.24414,0.382813 -0.327725,0.254897 -0.507813,0.587839 -0.507813,0.964843 v 36.089849 c 0,0.377 0.175903,0.72167 0.5,1.00976 l 0.0039,0.002 0.002,0.002 c 0.359217,0.28737 0.780357,0.43554 1.246093,0.43554 0.465737,0 0.88883,-0.14817 1.248047,-0.43554 0.358381,-0.28671 0.554688,-0.63228 0.554688,-1.01367 V 89.144531 c 0,-1.895763 0.593995,-3.406326 1.783203,-4.5625 1.227821,-1.160611 2.607715,-1.734375 4.160156,-1.734375 1.65302,0 3.078449,0.639014 4.306641,1.933594 1.229624,1.296091 1.83789,2.742912 1.83789,4.363281 v 13.464849 c 0,0.44156 0.196052,0.81379 0.5625,1.07031 0.357753,0.25042 0.758871,0.3789 1.189453,0.3789 0.492776,0 0.910867,-0.12601 1.240235,-0.38086 0.364907,-0.25646 0.560547,-0.62775 0.560547,-1.06835 V 89.144531 c 0,-2.628098 -0.909685,-4.893571 -2.71875,-6.771484 -1.775652,-1.878093 -3.907826,-2.826172 -6.371094,-2.826172 -1.573324,0 -2.968741,0.37851 -4.171875,1.134766 -1.053374,0.681594 -1.79919,1.552273 -2.378906,2.519531 V 66.519531 c 0,-0.380489 -0.200556,-0.713883 -0.560547,-0.966797 -0.329369,-0.254846 -0.749409,-0.380859 -1.242188,-0.380859 z m 0,0.263672 c 0.450472,0 0.806418,0.110286 1.083985,0.326172 l 0.002,0.002 0.0039,0.002 c 0.3133,0.21931 0.449219,0.460387 0.449219,0.753906 v 17.007813 l 0.248047,0.06055 c 0.562469,-1.058767 1.40581,-1.951577 2.537109,-2.683594 1.158728,-0.727926 2.498672,-1.09375 4.029297,-1.09375 2.396138,0 4.445768,0.910188 6.179688,2.744141 h 0.002 c 1.767202,1.833889 2.644531,4.021656 2.644531,6.589843 v 13.464852 c 0,0.36832 -0.14075,0.63758 -0.449219,0.85351 l -0.002,0.002 -0.0039,0.002 c -0.277566,0.21588 -0.631559,0.32812 -1.082032,0.32812 -0.379319,0 -0.721897,-0.11001 -1.039062,-0.33203 -0.308469,-0.21593 -0.449219,-0.48519 -0.449219,-0.85351 V 89.144531 c 0,-1.686727 -0.642587,-3.208836 -1.910156,-4.544922 -1.269003,-1.337597 -2.77648,-2.015625 -4.498047,-2.015625 -1.618777,0 -3.07491,0.60834 -4.34375,1.808594 v 0.002 c -1.240495,1.206037 -1.863281,2.798734 -1.863281,4.75 v 13.464852 c 0,0.29352 -0.140494,0.55536 -0.457031,0.80859 -0.315701,0.25256 -0.670375,0.37695 -1.082032,0.37695 -0.4101,0 -0.763325,-0.12436 -1.078125,-0.375 -0.281619,-0.25118 -0.410156,-0.51349 -0.410156,-0.81054 V 66.519531 c 0,-0.297913 0.126549,-0.540267 0.40625,-0.757812 0.277566,-0.215885 0.631559,-0.326172 1.082031,-0.326172 z"
           id="path890" />
      </g>
      <g
         id="g892"
         style="opacity:1;fill:#412745;fill-opacity:1;stroke:none;stroke-width:0.264;stroke-miterlimit:4;stroke-dasharray:none">
        <path
           style="color:#000000;font-style:normal;font-variant:normal;font-weight:normal;font-stretch:normal;font-size:medium;line-height:1.25;font-family:Dosis;-inkscape-font-specification:Dosis;font-variant-ligatures:normal;font-variant-position:normal;font-variant-caps:normal;font-variant-numeric:normal;font-variant-alternates:normal;font-variant-east-asian:normal;font-feature-settings:normal;font-variation-settings:normal;text-indent:0;text-align:start;text-decoration:none;text-decoration-line:none;text-decoration-style:solid;text-decoration-color:#000000;letter-spacing:0px;word-spacing:0px;text-transform:none;writing-mode:lr-tb;direction:ltr;text-orientation:mixed;dominant-baseline:auto;baseline-shift:baseline;text-anchor:start;white-space:normal;shape-padding:0;shape-margin:0;inline-size:0;clip-rule:nonzero;display:inline;overflow:visible;visibility:visible;isolation:auto;mix-blend-mode:normal;color-interpolation:sRGB;color-interpolation-filters:linearRGB;solid-color:#000000;solid-opacity:1;vector-effect:none;fill:#412745;fill-opacity:1;fill-rule:nonzero;stroke:none;stroke-width:0.264;stroke-linecap:butt;stroke-linejoin:miter;stroke-miterlimit:4;stroke-dasharray:none;stroke-dashoffset:0;stroke-opacity:1;color-rendering:auto;image-rendering:auto;shape-rendering:auto;text-rendering:auto;enable-background:accumulate;stop-color:#000000;stop-opacity:1"
           d="m 90.973002,94.662617 v -5.669306 c 0,-2.53094 0.944884,-4.707548 2.834653,-6.529825 1.889769,-1.856023 4.167614,-2.784034 6.833535,-2.784034 2.56469,0 4.77504,0.877392 6.63107,2.632177 1.88977,1.754785 2.83465,3.948267 2.83465,6.580445 0,0.944884 -0.11811,1.704166 -0.35433,2.277846 -0.20248,0.573679 -0.55681,0.97863 -1.063,1.214851 -0.47244,0.236221 -0.91114,0.388077 -1.31609,0.455569 -0.40495,0.06749 -0.96175,0.101238 -1.67042,0.101238 H 94.263224 v 1.872895 c 0,1.991007 0.708663,3.593935 2.12599,4.808786 1.451072,1.181111 3.307094,1.771661 5.568066,1.771661 1.14736,0 2.14286,-0.16873 2.98651,-0.50619 0.87739,-0.33746 1.53544,-0.67492 1.97413,-1.012377 0.47245,-0.337459 0.84365,-0.506188 1.11362,-0.506188 0.3712,0 0.69179,0.185602 0.96176,0.556807 0.30371,0.337458 0.45556,0.674918 0.45556,1.012378 0,0.70866 -0.72553,1.45107 -2.1766,2.22723 -1.45107,0.74241 -3.25648,1.11361 -5.41622,1.11361 -3.205855,0 -5.821158,-0.87739 -7.84591,-2.63218 -2.024752,-1.78853 -3.037128,-4.116994 -3.037128,-6.985393 z m 3.290222,-4.150742 h 10.123756 c 1.01238,0 1.6873,-0.101238 2.02476,-0.303713 0.33745,-0.236221 0.50618,-0.708663 0.50618,-1.417326 0,-1.687293 -0.60742,-3.172111 -1.82227,-4.454454 -1.18111,-1.282343 -2.6828,-1.923515 -4.50508,-1.923515 -1.754782,0 -3.256472,0.607426 -4.505069,1.822277 -1.214851,1.214851 -1.822277,2.665924 -1.822277,4.353217 z"
           id="path894" />
        <path
           style="color:#000000;font-style:normal;font-variant:normal;font-weight:normal;font-stretch:normal;font-size:medium;line-height:1.25;font-family:Dosis;-inkscape-font-specification:Dosis;font-variant-ligatures:normal;font-variant-position:normal;font-variant-caps:normal;font-variant-numeric:normal;font-variant-alternates:normal;font-variant-east-asian:normal;font-feature-settings:normal;font-variation-settings:normal;text-indent:0;text-align:start;text-decoration:none;text-decoration-line:none;text-decoration-style:solid;text-decoration-color:#000000;letter-spacing:0px;word-spacing:0px;text-transform:none;writing-mode:lr-tb;direction:ltr;text-orientation:mixed;dominant-baseline:auto;baseline-shift:baseline;text-anchor:start;white-space:normal;shape-padding:0;shape-margin:0;inline-size:0;clip-rule:nonzero;display:inline;overflow:visible;visibility:visible;isolation:auto;mix-blend-mode:normal;color-interpolation:sRGB;color-interpolation-filters:linearRGB;solid-color:#000000;solid-opacity:1;vector-effect:none;fill:#412745;fill-opacity:1;fill-rule:nonzero;stroke:none;stroke-width:0.264;stroke-linecap:butt;stroke-linejoin:miter;stroke-miterlimit:4;stroke-dasharray:none;stroke-dashoffset:0;stroke-opacity:1;color-rendering:auto;image-rendering:auto;shape-rendering:auto;text-rendering:auto;enable-background:accumulate;stop-color:#000000;stop-opacity:1"
           d="m 100.64062,79.546875 c -2.695933,0 -5.012181,0.945327 -6.923823,2.822266 -1.911719,1.843443 -2.875,4.061251 -2.875,6.625 v 5.667968 c 0,2.899415 1.031073,5.272306 3.082031,7.083981 v 0.002 c 2.050772,1.77733 4.701735,2.66406 7.931642,2.66406 2.17484,0 4.00188,-0.37442 5.47656,-1.12891 h 0.002 c 0.73289,-0.39201 1.28665,-0.77786 1.66407,-1.16406 0.37742,-0.3862 0.58203,-0.78037 0.58203,-1.17969 0,-0.37371 -0.17138,-0.7409 -0.48438,-1.091794 -0.28642,-0.391793 -0.65078,-0.609375 -1.06445,-0.609375 -0.32489,0 -0.70734,0.186889 -1.18945,0.53125 h -0.002 l -0.002,0.002 c -0.42186,0.324519 -1.07088,0.659329 -1.94141,0.994139 h -0.002 c -0.82451,0.32981 -1.80306,0.49805 -2.9375,0.49805 -2.236947,0 -4.057647,-0.58139 -5.482421,-1.740235 l -0.002,-0.002 c -1.388836,-1.19145 -2.078125,-2.748339 -2.078125,-4.707031 V 93.07426 h 11.308586 c 0.71286,0 1.27416,-0.03397 1.69141,-0.103516 0.42062,-0.0701 0.87108,-0.226793 1.35156,-0.466797 l 0.002,-0.002 c 0.53532,-0.250652 0.91707,-0.68803 1.1289,-1.287109 0.24463,-0.596613 0.36133,-1.368868 0.36133,-2.322266 0,-2.662743 -0.96255,-4.89895 -2.875,-6.675781 -1.87805,-1.775609 -4.1279,-2.669922 -6.72266,-2.669922 z m 0,0.263672 c 2.53463,0 4.70702,0.863695 6.54102,2.597656 1.86568,1.732423 2.79297,3.883744 2.79297,6.484375 0,0.933899 -0.11723,1.676443 -0.34375,2.226563 l -0.002,0.0039 v 0.0039 c -0.1929,0.546524 -0.51891,0.916895 -0.99414,1.138672 h -0.002 l -0.002,0.002 c -0.46346,0.231729 -0.89074,0.378601 -1.2793,0.44336 -0.39264,0.06544 -0.94395,0.09961 -1.64844,0.09961 H 94.130859 v 2.003906 c 0,2.022286 0.727532,3.670196 2.171875,4.908203 l 0.002,0.002 h 0.002 c 1.477068,1.202268 3.366465,1.802728 5.650386,1.802728 1.15956,0 2.17078,-0.17094 3.0332,-0.51562 0.88427,-0.3401 1.55229,-0.68085 2.00782,-1.031248 l -0.004,0.0039 c 0.46278,-0.330556 0.82207,-0.482422 1.03711,-0.482422 0.32726,0 0.6024,0.15399 0.85547,0.50196 l 0.004,0.006 0.004,0.006 c 0.28909,0.32122 0.42188,0.62592 0.42188,0.92383 0,0.30935 -0.15775,0.63989 -0.50586,0.9961 -0.34812,0.35621 -0.88144,0.73109 -1.59961,1.11523 -1.42712,0.72962 -3.21188,1.09766 -5.35547,1.09766 -3.181118,0 -5.759259,-0.86812 -7.757811,-2.59961 -1.998546,-1.765387 -2.992187,-4.049341 -2.992187,-6.886724 v -5.667968 c 0,-2.498132 0.92515,-4.634437 2.792969,-6.435547 h 0.002 v -0.002 c 1.86766,-1.834309 4.104904,-2.746094 6.740229,-2.746094 z m -0.0508,2.470703 c -1.785198,0 -3.32498,0.623 -4.595699,1.859375 h -0.002 v 0.002 c -1.236428,1.236428 -1.861329,2.726383 -1.861329,4.445313 v 2.05664 h 0.132813 10.123045 c 1.02117,0 1.70642,-0.09182 2.09375,-0.324219 l 0.004,-0.002 0.004,-0.002 c 0.38819,-0.271735 0.56055,-0.795804 0.56055,-1.52539 0,-1.718013 -0.62208,-3.240133 -1.85547,-4.542969 -1.20399,-1.307192 -2.75032,-1.966797 -4.60352,-1.966797 z m 0,0.263672 c 1.79136,0 3.24999,0.623364 4.40821,1.880859 H 105 v 0.002 c 1.19499,1.261388 1.78516,2.707625 1.78516,4.363282 0,0.686506 -0.16151,1.105505 -0.44727,1.30664 -0.28902,0.171655 -0.95066,0.283203 -1.95117,0.283203 h -9.992189 v -1.792968 c 0,-1.655657 0.591882,-3.066491 1.785157,-4.259766 1.226053,-1.191989 2.686757,-1.783203 4.410152,-1.783203 z"
           id="path896" />
      </g>
      <g
         id="g898"
         style="opacity:1;fill:#412745;fill-opacity:1;stroke:none;stroke-width:0.264;stroke-miterlimit:4;stroke-dasharray:none">
        <path
           style="color:#000000;font-style:normal;font-variant:normal;font-weight:normal;font-stretch:normal;font-size:medium;line-height:1.25;font-family:Dosis;-inkscape-font-specification:Dosis;font-variant-ligatures:normal;font-variant-position:normal;font-variant-caps:normal;font-variant-numeric:normal;font-variant-alternates:normal;font-variant-east-asian:normal;font-feature-settings:normal;font-variation-settings:normal;text-indent:0;text-align:start;text-decoration:none;text-decoration-line:none;text-decoration-style:solid;text-decoration-color:#000000;letter-spacing:0px;word-spacing:0px;text-transform:none;writing-mode:lr-tb;direction:ltr;text-orientation:mixed;dominant-baseline:auto;baseline-shift:baseline;text-anchor:start;white-space:normal;shape-padding:0;shape-margin:0;inline-size:0;clip-rule:nonzero;display:inline;overflow:visible;visibility:visible;isolation:auto;mix-blend-mode:normal;color-interpolation:sRGB;color-interpolation-filters:linearRGB;solid-color:#000000;solid-opacity:1;vector-effect:none;fill:#412745;fill-opacity:1;fill-rule:nonzero;stroke:none;stroke-width:0.264;stroke-linecap:butt;stroke-linejoin:miter;stroke-miterlimit:4;stroke-dasharray:none;stroke-dashoffset:0;stroke-opacity:1;color-rendering:auto;image-rendering:auto;shape-rendering:auto;text-rendering:auto;enable-background:accumulate;stop-color:#000000;stop-opacity:1"
           d="m 112.58714,81.248635 c 0,-0.404951 0.21935,-0.759282 0.65804,-1.062995 0.4387,-0.337459 0.89427,-0.506188 1.36671,-0.506188 0.64117,0 1.02925,0.236221 1.16423,0.708663 l 6.93478,18.627719 6.52982,-18.627719 c 0.20248,-0.472442 0.57369,-0.708663 1.11362,-0.708663 0.43869,0 0.87739,0.168729 1.31609,0.506188 0.47244,0.303713 0.70866,0.674917 0.70866,1.113613 0,0.202475 -0.0337,0.337459 -0.10124,0.404951 l -7.84591,21.259896 -0.91114,2.48032 c -0.16873,0.4387 -0.50619,1.23173 -1.01238,2.37909 -0.47244,1.14735 -0.87739,1.97413 -1.21485,2.48032 l -1.31609,2.02475 c -0.57368,0.84365 -1.13049,1.45107 -1.67042,1.82228 -0.50619,0.3712 -1.13048,0.70866 -1.87289,1.01237 -0.74241,0.33746 -1.5017,0.50619 -2.27785,0.50619 -1.01237,0 -1.51856,-0.48932 -1.51856,-1.46795 0,-1.01237 0.33746,-1.51856 1.01237,-1.51856 1.55231,0 2.98651,-0.94488 4.3026,-2.83465 1.34983,-1.85603 2.36221,-4.16762 3.03713,-6.93478 l -8.25087,-21.209276 c -0.10123,-0.168729 -0.15185,-0.320586 -0.15185,-0.455569 z"
           id="path900" />
        <path
           style="color:#000000;font-style:normal;font-variant:normal;font-weight:normal;font-stretch:normal;font-size:medium;line-height:1.25;font-family:Dosis;-inkscape-font-specification:Dosis;font-variant-ligatures:normal;font-variant-position:normal;font-variant-caps:normal;font-variant-numeric:normal;font-variant-alternates:normal;font-variant-east-asian:normal;font-feature-settings:normal;font-variation-settings:normal;text-indent:0;text-align:start;text-decoration:none;text-decoration-line:none;text-decoration-style:solid;text-decoration-color:#000000;letter-spacing:0px;word-spacing:0px;text-transform:none;writing-mode:lr-tb;direction:ltr;text-orientation:mixed;dominant-baseline:auto;baseline-shift:baseline;text-anchor:start;white-space:normal;shape-padding:0;shape-margin:0;inline-size:0;clip-rule:nonzero;display:inline;overflow:visible;visibility:visible;isolation:auto;mix-blend-mode:normal;color-interpolation:sRGB;color-interpolation-filters:linearRGB;solid-color:#000000;solid-opacity:1;vector-effect:none;fill:#412745;fill-opacity:1;fill-rule:nonzero;stroke:none;stroke-width:0.264;stroke-linecap:butt;stroke-linejoin:miter;stroke-miterlimit:4;stroke-dasharray:none;stroke-dashoffset:0;stroke-opacity:1;color-rendering:auto;image-rendering:auto;shape-rendering:auto;text-rendering:auto;enable-background:accumulate;stop-color:#000000;stop-opacity:1"
           d="m 114.61133,79.546875 c -0.50241,0 -0.98765,0.18374 -1.44336,0.533203 -0.45952,0.319008 -0.71289,0.716303 -0.71289,1.167969 0,0.167937 0.0607,0.34141 0.16992,0.523437 l -0.01,-0.01953 8.23438,21.164066 c -0.67171,2.73791 -1.67216,5.0243 -3.00391,6.85546 l -0.002,0.002 c -1.3022,1.86982 -2.69454,2.77734 -4.19336,2.77734 -0.37041,0 -0.67791,0.15261 -0.86914,0.43945 -0.19123,0.28685 -0.27539,0.69011 -0.27539,1.21094 0,0.51205 0.13525,0.92013 0.41992,1.19531 0.28467,0.27518 0.70305,0.4043 1.23047,0.4043 0.79385,0 1.57123,-0.17222 2.32813,-0.51562 l 0.004,-0.002 c 0.74661,-0.30576 1.37706,-0.64588 1.89258,-1.02343 0.56039,-0.38528 1.12564,-1.00531 1.70508,-1.85743 h 0.002 l 1.31445,-2.02539 0.002,-0.002 c 0.34645,-0.52009 0.75196,-1.35067 1.22461,-2.49805 l 0.002,-0.004 c 0.50509,-1.14497 0.8432,-1.93762 1.01367,-2.38086 v -0.002 l 0.91016,-2.48046 7.84765,-21.259769 -0.0312,0.04687 c 0.1141,-0.114097 0.14063,-0.280925 0.14063,-0.498047 0,-0.48365 -0.27349,-0.900013 -0.76563,-1.21875 -0.45428,-0.348417 -0.92145,-0.533203 -1.39257,-0.533203 -0.57839,0 -1.01519,0.277627 -1.23438,0.789063 l -0.002,0.0039 -6.41016,18.289062 -6.80664,-18.287109 0.002,0.0098 c -0.0751,-0.262726 -0.22763,-0.472546 -0.44922,-0.607421 -0.22158,-0.134876 -0.50502,-0.197266 -0.84179,-0.197266 z m 0,0.263672 c 0.3044,0 0.53663,0.05686 0.70312,0.158203 0.1665,0.101346 0.27407,0.245363 0.33399,0.455078 l 0.002,0.0059 7.06445,18.974609 6.64649,-18.964844 h 0.002 c 0.18584,-0.432171 0.48945,-0.628906 0.99024,-0.628906 0.40489,0 0.81445,0.155957 1.23632,0.480469 l 0.004,0.002 0.006,0.0039 c 0.44815,0.288101 0.64844,0.610577 0.64844,1.001953 0,0.187829 -0.0416,0.291613 -0.0625,0.3125 l -0.0215,0.01953 -7.85547,21.287111 -0.91211,2.48047 c -0.16686,0.43369 -0.50244,1.2256 -1.00781,2.37109 l -0.002,0.002 v 0.002 c -0.47083,1.14344 -0.87542,1.96546 -1.20313,2.45703 l -1.3164,2.02539 c -0.56723,0.83368 -1.11588,1.43037 -1.63477,1.78711 h -0.002 l -0.002,0.002 c -0.49523,0.36317 -1.10905,0.69553 -1.84375,0.9961 l -0.002,0.002 h -0.004 c -0.72666,0.3303 -1.46561,0.49414 -2.22266,0.49414 -0.48495,0 -0.82536,-0.11594 -1.04687,-0.33008 -0.22152,-0.21414 -0.33985,-0.53927 -0.33985,-1.00586 0,-0.49154 0.0842,-0.84706 0.23047,-1.0664 0.14623,-0.21935 0.34589,-0.32032 0.65039,-0.32032 1.60507,0 3.0787,-0.98068 4.4082,-2.88867 l 0.002,-0.002 c 1.36126,-1.87242 2.37878,-4.19932 3.05664,-6.97852 l 0.01,-0.041 -8.26953,-21.257816 -0.006,-0.0098 c -0.0933,-0.155432 -0.13281,-0.286642 -0.13281,-0.388672 0,-0.35735 0.18541,-0.665019 0.60156,-0.953125 l 0.002,-0.002 0.004,-0.002 c 0.42058,-0.323516 0.8441,-0.480469 1.28516,-0.480469 z"
           id="path902" />
      </g>
      <g
         id="g904"
         style="opacity:1;fill:#412745;fill-opacity:1;stroke:none;stroke-width:0.264;stroke-miterlimit:4;stroke-dasharray:none">
        <path
           style="color:#000000;font-style:normal;font-variant:normal;font-weight:normal;font-stretch:normal;font-size:medium;line-height:1.25;font-family:Dosis;-inkscape-font-specification:Dosis;font-variant-ligatures:normal;font-variant-position:normal;font-variant-caps:normal;font-variant-numeric:normal;font-variant-alternates:normal;font-variant-east-asian:normal;font-feature-settings:normal;font-variation-settings:normal;text-indent:0;text-align:start;text-decoration:none;text-decoration-line:none;text-decoration-style:solid;text-decoration-color:#000000;letter-spacing:0px;word-spacing:0px;text-transform:none;writing-mode:lr-tb;direction:ltr;text-orientation:mixed;dominant-baseline:auto;baseline-shift:baseline;text-anchor:start;white-space:normal;shape-padding:0;shape-margin:0;inline-size:0;clip-rule:nonzero;display:inline;overflow:visible;visibility:visible;isolation:auto;mix-blend-mode:normal;color-interpolation:sRGB;color-interpolation-filters:linearRGB;solid-color:#000000;solid-opacity:1;vector-effect:none;fill:#412745;fill-opacity:1;fill-rule:nonzero;stroke:none;stroke-width:0.264;stroke-linecap:butt;stroke-linejoin:miter;stroke-miterlimit:4;stroke-dasharray:none;stroke-dashoffset:0;stroke-opacity:1;color-rendering:auto;image-rendering:auto;shape-rendering:auto;text-rendering:auto;enable-background:accumulate;stop-color:#000000;stop-opacity:1"
           d="m 132.88511,104.0271 c 0,-0.20248 0.0506,-0.40496 0.15186,-0.60743 l 19.28576,-37.812245 c 0.16873,-0.404951 0.50619,-0.607426 1.01238,-0.607426 0.33746,0 0.65805,0.134984 0.96176,0.404951 0.33745,0.269967 0.50618,0.590552 0.50618,0.961757 0,0.269967 -0.0675,0.489316 -0.20247,0.658045 l -19.18453,37.508528 c -0.20247,0.50619 -0.60742,0.75929 -1.21485,0.75929 -0.33746,0 -0.64117,-0.13499 -0.91114,-0.40496 -0.26997,-0.23622 -0.40495,-0.52306 -0.40495,-0.86051 z"
           id="path906" />
        <path
           style="color:#000000;font-style:normal;font-variant:normal;font-weight:normal;font-stretch:normal;font-size:medium;line-height:1.25;font-family:Dosis;-inkscape-font-specification:Dosis;font-variant-ligatures:normal;font-variant-position:normal;font-variant-caps:normal;font-variant-numeric:normal;font-variant-alternates:normal;font-variant-east-asian:normal;font-feature-settings:normal;font-variation-settings:normal;text-indent:0;text-align:start;text-decoration:none;text-decoration-line:none;text-decoration-style:solid;text-decoration-color:#000000;letter-spacing:0px;word-spacing:0px;text-transform:none;writing-mode:lr-tb;direction:ltr;text-orientation:mixed;dominant-baseline:auto;baseline-shift:baseline;text-anchor:start;white-space:normal;shape-padding:0;shape-margin:0;inline-size:0;clip-rule:nonzero;display:inline;overflow:visible;visibility:visible;isolation:auto;mix-blend-mode:normal;color-interpolation:sRGB;color-interpolation-filters:linearRGB;solid-color:#000000;solid-opacity:1;vector-effect:none;fill:#412745;fill-opacity:1;fill-rule:nonzero;stroke:none;stroke-width:0.264;stroke-linecap:butt;stroke-linejoin:miter;stroke-miterlimit:4;stroke-dasharray:none;stroke-dashoffset:0;stroke-opacity:1;color-rendering:auto;image-rendering:auto;shape-rendering:auto;text-rendering:auto;enable-background:accumulate;stop-color:#000000;stop-opacity:1"
           d="m 153.33594,64.869141 c -0.54134,0 -0.94803,0.23935 -1.13477,0.6875 l -19.28125,37.802739 v 0.002 c -0.1091,0.21819 -0.16601,0.44156 -0.16601,0.66601 0,0.37107 0.15622,0.69883 0.44726,0.95508 0.28866,0.28717 0.62887,0.44141 1,0.44141 0.64405,0 1.11854,-0.2934 1.33789,-0.8418 l 19.17969,-37.498046 -0.0156,0.02344 c 0.15641,-0.195509 0.23243,-0.448298 0.23243,-0.740234 0,-0.410248 -0.19574,-0.774419 -0.55469,-1.0625 -0.32085,-0.283954 -0.67374,-0.435547 -1.04492,-0.435547 z m 0,0.261718 c 0.30231,0 0.58745,0.119186 0.87304,0.373047 l 0.002,0.002 0.004,0.002 c 0.31444,0.251556 0.45704,0.528115 0.45704,0.859376 -1e-5,0.247998 -0.0603,0.434222 -0.17383,0.576171 l -0.008,0.0098 -19.19335,37.525397 -0.004,0.006 c -0.18559,0.46398 -0.52099,0.67578 -1.0918,0.67578 -0.30231,0 -0.56781,-0.11468 -0.81836,-0.36524 l -0.002,-0.004 -0.004,-0.002 c -0.24655,-0.21573 -0.35937,-0.45942 -0.35937,-0.76172 0,-0.1799 0.044,-0.36078 0.13672,-0.54687 v -0.002 l 19.28906,-37.816413 0.002,-0.0039 c 0.15074,-0.361751 0.41959,-0.527344 0.89063,-0.527344 z"
           id="path908" />
      </g>
      <g
         id="g910"
         style="opacity:1;fill:#412745;fill-opacity:1;stroke:none;stroke-width:0.264;stroke-miterlimit:4;stroke-dasharray:none">
        <path
           style="color:#000000;font-style:normal;font-variant:normal;font-weight:normal;font-stretch:normal;font-size:medium;line-height:1.25;font-family:Dosis;-inkscape-font-specification:Dosis;font-variant-ligatures:normal;font-variant-position:normal;font-variant-caps:normal;font-variant-numeric:normal;font-variant-alternates:normal;font-variant-east-asian:normal;font-feature-settings:normal;font-variation-settings:normal;text-indent:0;text-align:start;text-decoration:none;text-decoration-line:none;text-decoration-style:solid;text-decoration-color:#000000;letter-spacing:0px;word-spacing:0px;text-transform:none;writing-mode:lr-tb;direction:ltr;text-orientation:mixed;dominant-baseline:auto;baseline-shift:baseline;text-anchor:start;white-space:normal;shape-padding:0;shape-margin:0;inline-size:0;clip-rule:nonzero;display:inline;overflow:visible;visibility:visible;isolation:auto;mix-blend-mode:normal;color-interpolation:sRGB;color-interpolation-filters:linearRGB;solid-color:#000000;solid-opacity:1;vector-effect:none;fill:#412745;fill-opacity:1;fill-rule:nonzero;stroke:none;stroke-width:0.264;stroke-linecap:butt;stroke-linejoin:miter;stroke-miterlimit:4;stroke-dasharray:none;stroke-dashoffset:0;stroke-opacity:1;color-rendering:auto;image-rendering:auto;shape-rendering:auto;text-rendering:auto;enable-background:accumulate;stop-color:#000000;stop-opacity:1"
           d="m 156.62528,68.492697 c 0,-0.404951 0.10124,-0.759282 0.30372,-1.062995 0.23622,-0.337459 0.5568,-0.506188 0.96175,-0.506188 h 20.29814 c 0.40495,0 0.70867,0.151856 0.91114,0.455569 0.23622,0.303713 0.35433,0.658044 0.35433,1.062995 0,0.438696 -0.11811,0.826773 -0.35433,1.164232 -0.20247,0.303713 -0.50619,0.45557 -0.91114,0.45557 h -8.45334 v 32.54789 c 0,0.40495 -0.16873,0.72553 -0.50619,0.96176 -0.33745,0.23622 -0.72553,0.35433 -1.16423,0.35433 -0.47244,0 -0.87739,-0.11811 -1.21485,-0.35433 -0.30371,-0.23623 -0.45557,-0.55681 -0.45557,-0.96176 V 70.06188 h -8.50396 c -0.3712,0 -0.67491,-0.151857 -0.91114,-0.45557 -0.23622,-0.303713 -0.35433,-0.674917 -0.35433,-1.113613 z"
           id="path912" />
        <path
           style="color:#000000;font-style:normal;font-variant:normal;font-weight:normal;font-stretch:normal;font-size:medium;line-height:1.25;font-family:Dosis;-inkscape-font-specification:Dosis;font-variant-ligatures:normal;font-variant-position:normal;font-variant-caps:normal;font-variant-numeric:normal;font-variant-alternates:normal;font-variant-east-asian:normal;font-feature-settings:normal;font-variation-settings:normal;text-indent:0;text-align:start;text-decoration:none;text-decoration-line:none;text-decoration-style:solid;text-decoration-color:#000000;letter-spacing:0px;word-spacing:0px;text-transform:none;writing-mode:lr-tb;direction:ltr;text-orientation:mixed;dominant-baseline:auto;baseline-shift:baseline;text-anchor:start;white-space:normal;shape-padding:0;shape-margin:0;inline-size:0;clip-rule:nonzero;display:inline;overflow:visible;visibility:visible;isolation:auto;mix-blend-mode:normal;color-interpolation:sRGB;color-interpolation-filters:linearRGB;solid-color:#000000;solid-opacity:1;vector-effect:none;fill:#412745;fill-opacity:1;fill-rule:nonzero;stroke:none;stroke-width:0.264;stroke-linecap:butt;stroke-linejoin:miter;stroke-miterlimit:4;stroke-dasharray:none;stroke-dashoffset:0;stroke-opacity:1;color-rendering:auto;image-rendering:auto;shape-rendering:auto;text-rendering:auto;enable-background:accumulate;stop-color:#000000;stop-opacity:1"
           d="m 157.89062,66.791016 c -0.44156,0 -0.81379,0.19605 -1.07031,0.5625 v 0.002 l -0.002,0.002 c -0.21748,0.326211 -0.32422,0.707844 -0.32422,1.134766 0,0.462355 0.12576,0.867321 0.38086,1.195312 0.25677,0.330126 0.60847,0.505859 1.01562,0.505859 h 8.37305 v 32.416017 c 0,0.4379 0.17333,0.80776 0.50586,1.0664 l 0.002,0.002 0.004,0.002 c 0.36114,0.25279 0.79465,0.3789 1.28906,0.3789 0.46236,0 0.8808,-0.12729 1.24024,-0.3789 0.36645,-0.25652 0.5625,-0.62875 0.5625,-1.07031 V 70.193359 h 8.32226 c 0.43791,0 0.79456,-0.17621 1.01953,-0.513671 0.25089,-0.359094 0.37696,-0.776592 0.37696,-1.238282 0,-0.428375 -0.12979,-0.811644 -0.38086,-1.136718 -0.22513,-0.334948 -0.57939,-0.513672 -1.01563,-0.513672 z m 0,0.263672 h 20.29883 c 0.372,0 0.62081,0.128473 0.80078,0.398437 l 0.002,0.0039 0.004,0.0039 c 0.21879,0.281301 0.32618,0.601149 0.32618,0.980468 0,0.415036 -0.10925,0.77437 -0.33008,1.089844 h -0.002 v 0.002 c -0.17997,0.269965 -0.42878,0.396485 -0.80078,0.396485 h -8.58593 v 32.679688 c 0,0.36832 -0.14075,0.63758 -0.44922,0.85351 -0.31547,0.22083 -0.67481,0.33203 -1.08985,0.33203 -0.44884,0 -0.82167,-0.11201 -1.13476,-0.33008 -0.27335,-0.21354 -0.40235,-0.48449 -0.40235,-0.85546 V 69.929688 h -8.63672 c -0.33524,0 -0.59095,-0.126996 -0.80664,-0.404297 -0.21733,-0.279434 -0.32617,-0.618167 -0.32617,-1.033203 0,-0.381384 0.0934,-0.705917 0.2793,-0.986329 1e-4,-1.46e-4 0.002,1.46e-4 0.002,0 0.21573,-0.30732 0.48389,-0.451172 0.85156,-0.451171 z"
           id="path914" />
      </g>
      <g
         id="g916"
         style="opacity:1;fill:#412745;fill-opacity:1;stroke:none;stroke-width:0.264;stroke-miterlimit:4;stroke-dasharray:none">
        <path
           style="color:#000000;font-style:normal;font-variant:normal;font-weight:normal;font-stretch:normal;font-size:medium;line-height:1.25;font-family:Dosis;-inkscape-font-specification:Dosis;font-variant-ligatures:normal;font-variant-position:normal;font-variant-caps:normal;font-variant-numeric:normal;font-variant-alternates:normal;font-variant-east-asian:normal;font-feature-settings:normal;font-variation-settings:normal;text-indent:0;text-align:start;text-decoration:none;text-decoration-line:none;text-decoration-style:solid;text-decoration-color:#000000;letter-spacing:0px;word-spacing:0px;text-transform:none;writing-mode:lr-tb;direction:ltr;text-orientation:mixed;dominant-baseline:auto;baseline-shift:baseline;text-anchor:start;white-space:normal;shape-padding:0;shape-margin:0;inline-size:0;clip-rule:nonzero;display:inline;overflow:visible;visibility:visible;isolation:auto;mix-blend-mode:normal;color-interpolation:sRGB;color-interpolation-filters:linearRGB;solid-color:#000000;solid-opacity:1;vector-effect:none;fill:#412745;fill-opacity:1;fill-rule:nonzero;stroke:none;stroke-width:0.264;stroke-linecap:butt;stroke-linejoin:miter;stroke-miterlimit:4;stroke-dasharray:none;stroke-dashoffset:0;stroke-opacity:1;color-rendering:auto;image-rendering:auto;shape-rendering:auto;text-rendering:auto;enable-background:accumulate;stop-color:#000000;stop-opacity:1"
           d="M 183.40257,102.60977 V 66.518564 c 0,-0.337459 0.15186,-0.624299 0.45557,-0.86052 0.30371,-0.236221 0.69179,-0.354332 1.16423,-0.354332 0.47245,0 0.86053,0.118111 1.16424,0.354332 0.33746,0.236221 0.50619,0.523061 0.50619,0.86052 v 17.007917 c 0.57367,-1.079868 1.43419,-1.991007 2.58155,-2.733416 1.18111,-0.742409 2.54782,-1.113613 4.10013,-1.113613 2.4297,0 4.52194,0.928011 6.27673,2.784034 1.78853,1.856023 2.68279,4.08325 2.68279,6.681682 v 13.464602 c 0,0.40495 -0.16873,0.72553 -0.50618,0.96176 -0.30371,0.23622 -0.69179,0.35433 -1.16424,0.35433 -0.40495,0 -0.77615,-0.11811 -1.11361,-0.35433 -0.33746,-0.23623 -0.50619,-0.55681 -0.50619,-0.96176 V 89.145168 c 0,-1.653548 -0.6243,-3.138366 -1.87289,-4.454455 -1.2486,-1.316089 -2.71655,-1.974133 -4.40384,-1.974133 -1.58605,0 -3.00338,0.590553 -4.25198,1.771658 -1.21485,1.181105 -1.82227,2.733415 -1.82227,4.65693 v 13.464602 c 0,0.33746 -0.16873,0.64117 -0.50619,0.91114 -0.33746,0.26997 -0.72554,0.40495 -1.16424,0.40495 -0.43869,0 -0.82677,-0.13498 -1.16423,-0.40495 -0.30371,-0.26997 -0.45557,-0.57368 -0.45557,-0.91114 z"
           id="path918" />
        <path
           style="color:#000000;font-style:normal;font-variant:normal;font-weight:normal;font-stretch:normal;font-size:medium;line-height:1.25;font-family:Dosis;-inkscape-font-specification:Dosis;font-variant-ligatures:normal;font-variant-position:normal;font-variant-caps:normal;font-variant-numeric:normal;font-variant-alternates:normal;font-variant-east-asian:normal;font-feature-settings:normal;font-variation-settings:normal;text-indent:0;text-align:start;text-decoration:none;text-decoration-line:none;text-decoration-style:solid;text-decoration-color:#000000;letter-spacing:0px;word-spacing:0px;text-transform:none;writing-mode:lr-tb;direction:ltr;text-orientation:mixed;dominant-baseline:auto;baseline-shift:baseline;text-anchor:start;white-space:normal;shape-padding:0;shape-margin:0;inline-size:0;clip-rule:nonzero;display:inline;overflow:visible;visibility:visible;isolation:auto;mix-blend-mode:normal;color-interpolation:sRGB;color-interpolation-filters:linearRGB;solid-color:#000000;solid-opacity:1;vector-effect:none;fill:#412745;fill-opacity:1;fill-rule:nonzero;stroke:none;stroke-width:0.264;stroke-linecap:butt;stroke-linejoin:miter;stroke-miterlimit:4;stroke-dasharray:none;stroke-dashoffset:0;stroke-opacity:1;color-rendering:auto;image-rendering:auto;shape-rendering:auto;text-rendering:auto;enable-background:accumulate;stop-color:#000000;stop-opacity:1"
           d="m 185.02148,65.171875 c -0.49441,0 -0.91428,0.126255 -1.24414,0.382813 -0.32772,0.254897 -0.50586,0.587839 -0.50586,0.964843 v 36.089849 c 0,0.377 0.17591,0.72167 0.5,1.00976 l 0.002,0.002 0.002,0.002 c 0.35922,0.28737 0.78036,0.43554 1.24609,0.43554 0.46574,0 0.88883,-0.14817 1.24805,-0.43554 0.35838,-0.28671 0.55469,-0.63228 0.55469,-1.01367 V 89.144531 c 0,-1.895763 0.594,-3.406326 1.7832,-4.5625 1.22783,-1.160611 2.60772,-1.734375 4.16016,-1.734375 1.65302,0 3.0804,0.639014 4.30859,1.933594 1.22962,1.296091 1.83594,2.742912 1.83594,4.363281 v 13.464849 c 0,0.44156 0.19605,0.81379 0.5625,1.07031 0.35775,0.25042 0.75887,0.3789 1.18945,0.3789 0.49371,0 0.91254,-0.127 1.24219,-0.38281 0.36389,-0.25642 0.55859,-0.62644 0.55859,-1.0664 V 89.144531 c 0,-2.628098 -0.90968,-4.893571 -2.71875,-6.771484 -1.77565,-1.878093 -3.90782,-2.826172 -6.37109,-2.826172 -1.57333,0 -2.96679,0.37851 -4.16992,1.134766 h -0.002 c -1.05337,0.681594 -1.79919,1.552273 -2.3789,2.519531 V 66.519531 c 0,-0.380489 -0.20056,-0.713883 -0.56055,-0.966797 -0.32937,-0.254846 -0.7494,-0.380859 -1.24219,-0.380859 z m 0,0.263672 c 0.45048,0 0.80642,0.110287 1.08399,0.326172 l 0.002,0.002 0.004,0.002 c 0.3133,0.21931 0.44922,0.460388 0.44922,0.753906 v 17.007813 l 0.24804,0.06055 c 0.56247,-1.058767 1.40581,-1.951577 2.53711,-2.683594 1.15873,-0.727926 2.49867,-1.09375 4.0293,-1.09375 2.39613,0 4.44577,0.910188 6.17969,2.744141 h 0.002 c 1.7672,1.833889 2.64649,4.021655 2.64648,6.589843 v 13.464852 c 0,0.36833 -0.1427,0.63758 -0.45117,0.85351 l -0.002,0.002 -0.004,0.002 c -0.27756,0.21588 -0.63155,0.32812 -1.08203,0.32812 -0.37931,0 -0.72189,-0.11001 -1.03906,-0.33203 -0.30847,-0.21593 -0.44922,-0.48519 -0.44922,-0.85351 V 89.144531 c 0,-1.686727 -0.64259,-3.208836 -1.91016,-4.544922 -1.269,-1.337597 -2.77648,-2.015625 -4.49804,-2.015625 -1.61878,0 -3.07491,0.60834 -4.34375,1.808594 v 0.002 c -1.24049,1.206037 -1.86328,2.798734 -1.86328,4.75 v 13.464852 c 0,0.29352 -0.1405,0.55536 -0.45703,0.80859 -0.31571,0.25256 -0.67038,0.37695 -1.08204,0.37695 -0.41099,0 -0.7628,-0.12521 -1.07812,-0.37695 -0.28049,-0.25075 -0.4082,-0.51211 -0.4082,-0.80859 V 66.519531 c 0,-0.297912 0.12459,-0.540267 0.40429,-0.757812 0.27757,-0.215886 0.63156,-0.326172 1.08203,-0.326172 z"
           id="path920" />
      </g>
      <g
         id="g922"
         style="opacity:1;fill:#412745;fill-opacity:1;stroke:none;stroke-width:0.264;stroke-miterlimit:4;stroke-dasharray:none">
        <path
           style="color:#000000;font-style:normal;font-variant:normal;font-weight:normal;font-stretch:normal;font-size:medium;line-height:1.25;font-family:Dosis;-inkscape-font-specification:Dosis;font-variant-ligatures:normal;font-variant-position:normal;font-variant-caps:normal;font-variant-numeric:normal;font-variant-alternates:normal;font-variant-east-asian:normal;font-feature-settings:normal;font-variation-settings:normal;text-indent:0;text-align:start;text-decoration:none;text-decoration-line:none;text-decoration-style:solid;text-decoration-color:#000000;letter-spacing:0px;word-spacing:0px;text-transform:none;writing-mode:lr-tb;direction:ltr;text-orientation:mixed;dominant-baseline:auto;baseline-shift:baseline;text-anchor:start;white-space:normal;shape-padding:0;shape-margin:0;inline-size:0;clip-rule:nonzero;display:inline;overflow:visible;visibility:visible;isolation:auto;mix-blend-mode:normal;color-interpolation:sRGB;color-interpolation-filters:linearRGB;solid-color:#000000;solid-opacity:1;vector-effect:none;fill:#412745;fill-opacity:1;fill-rule:nonzero;stroke:none;stroke-width:0.264;stroke-linecap:butt;stroke-linejoin:miter;stroke-miterlimit:4;stroke-dasharray:none;stroke-dashoffset:0;stroke-opacity:1;color-rendering:auto;image-rendering:auto;shape-rendering:auto;text-rendering:auto;enable-background:accumulate;stop-color:#000000;stop-opacity:1"
           d="m 207.59828,94.662617 v -5.669306 c 0,-2.53094 0.94488,-4.707548 2.83465,-6.529825 1.88977,-1.856023 4.16761,-2.784034 6.83354,-2.784034 2.56469,0 4.77504,0.877392 6.63106,2.632177 1.88977,1.754785 2.83465,3.948267 2.83465,6.580445 0,0.944884 -0.11811,1.704166 -0.35433,2.277846 -0.20247,0.573679 -0.5568,0.97863 -1.06299,1.214851 -0.47245,0.236221 -0.91114,0.388077 -1.31609,0.455569 -0.40495,0.06749 -0.96176,0.101238 -1.67042,0.101238 H 210.8885 v 1.872895 c 0,1.991007 0.70866,3.593935 2.12599,4.808786 1.45107,1.181111 3.3071,1.771661 5.56807,1.771661 1.14736,0 2.14286,-0.16873 2.98651,-0.50619 0.87739,-0.33746 1.53543,-0.67492 1.97413,-1.012377 0.47244,-0.337459 0.84364,-0.506188 1.11361,-0.506188 0.37121,0 0.69179,0.185602 0.96176,0.556807 0.30371,0.337458 0.45557,0.674918 0.45557,1.012378 0,0.70866 -0.72554,1.45107 -2.17661,2.22723 -1.45107,0.74241 -3.25648,1.11361 -5.41621,1.11361 -3.20586,0 -5.82117,-0.87739 -7.84592,-2.63218 -2.02475,-1.78853 -3.03712,-4.116994 -3.03712,-6.985393 z m 3.29022,-4.150742 h 10.12376 c 1.01237,0 1.68729,-0.101238 2.02475,-0.303713 0.33746,-0.236221 0.50619,-0.708663 0.50619,-1.417326 0,-1.687293 -0.60743,-3.172111 -1.82228,-4.454454 -1.18111,-1.282343 -2.6828,-1.923515 -4.50507,-1.923515 -1.75479,0 -3.25648,0.607426 -4.50507,1.822277 -1.21485,1.214851 -1.82228,2.665924 -1.82228,4.353217 z"
           id="path924" />
        <path
           style="color:#000000;font-style:normal;font-variant:normal;font-weight:normal;font-stretch:normal;font-size:medium;line-height:1.25;font-family:Dosis;-inkscape-font-specification:Dosis;font-variant-ligatures:normal;font-variant-position:normal;font-variant-caps:normal;font-variant-numeric:normal;font-variant-alternates:normal;font-variant-east-asian:normal;font-feature-settings:normal;font-variation-settings:normal;text-indent:0;text-align:start;text-decoration:none;text-decoration-line:none;text-decoration-style:solid;text-decoration-color:#000000;letter-spacing:0px;word-spacing:0px;text-transform:none;writing-mode:lr-tb;direction:ltr;text-orientation:mixed;dominant-baseline:auto;baseline-shift:baseline;text-anchor:start;white-space:normal;shape-padding:0;shape-margin:0;inline-size:0;clip-rule:nonzero;display:inline;overflow:visible;visibility:visible;isolation:auto;mix-blend-mode:normal;color-interpolation:sRGB;color-interpolation-filters:linearRGB;solid-color:#000000;solid-opacity:1;vector-effect:none;fill:#412745;fill-opacity:1;fill-rule:nonzero;stroke:none;stroke-width:0.264;stroke-linecap:butt;stroke-linejoin:miter;stroke-miterlimit:4;stroke-dasharray:none;stroke-dashoffset:0;stroke-opacity:1;color-rendering:auto;image-rendering:auto;shape-rendering:auto;text-rendering:auto;enable-background:accumulate;stop-color:#000000;stop-opacity:1"
           d="m 217.26562,79.546875 c -2.69594,0 -5.01218,0.945327 -6.92382,2.822266 -1.91172,1.843443 -2.875,4.061251 -2.875,6.625 v 5.667968 c 0,2.899415 1.03108,5.272306 3.08203,7.083981 v 0.002 c 2.05077,1.77733 4.70173,2.66406 7.93164,2.66406 2.17484,0 4.00188,-0.37442 5.47656,-1.12891 h 0.002 c 0.7329,-0.39201 1.2886,-0.77786 1.66602,-1.16406 0.37742,-0.3862 0.58008,-0.78037 0.58008,-1.17969 0,-0.37371 -0.17137,-0.7409 -0.48438,-1.091794 -0.28641,-0.391794 -0.65077,-0.609375 -1.06445,-0.609375 -0.32489,0 -0.70735,0.186889 -1.18945,0.53125 h -0.002 l -0.002,0.002 c -0.42187,0.324519 -1.07089,0.659329 -1.94141,0.994139 h -0.002 c -0.82451,0.32981 -1.80306,0.49805 -2.9375,0.49805 -2.23695,0 -4.05765,-0.58139 -5.48242,-1.740235 l -0.002,-0.002 c -1.38884,-1.19145 -2.07813,-2.748339 -2.07813,-4.707031 V 93.07426 h 11.30859 c 0.71285,0 1.27416,-0.03397 1.69141,-0.103516 0.42062,-0.0701 0.87108,-0.226793 1.35156,-0.466797 l 0.002,-0.002 c 0.53532,-0.250652 0.91708,-0.68803 1.1289,-1.287109 0.24463,-0.596613 0.36133,-1.368868 0.36133,-2.322266 0,-2.662743 -0.96255,-4.89895 -2.875,-6.675781 -1.87804,-1.775609 -4.1279,-2.669922 -6.72266,-2.669922 z m 0,0.263672 c 2.53463,0 4.70703,0.863695 6.54102,2.597656 h 0.002 c 1.86569,1.732423 2.79102,3.883744 2.79102,6.484375 0,0.933899 -0.11723,1.676443 -0.34375,2.226563 l -0.002,0.0039 v 0.0039 c -0.19289,0.546524 -0.51891,0.916895 -0.99414,1.138672 h -0.002 l -0.002,0.002 c -0.46346,0.231729 -0.89075,0.378601 -1.2793,0.44336 -0.39265,0.06544 -0.94396,0.09961 -1.64844,0.09961 h -11.57226 v 2.003906 c 0,2.022286 0.72753,3.670196 2.17187,4.908203 l 0.002,0.002 h 0.002 c 1.47707,1.202268 3.36646,1.802728 5.65039,1.802728 1.16028,0 2.17238,-0.17051 3.03516,-0.51562 0.88425,-0.3401 1.55033,-0.68085 2.00586,-1.031248 l -0.004,0.0039 c 0.46278,-0.330556 0.82207,-0.482422 1.03711,-0.482422 0.32727,0 0.60241,0.153991 0.85547,0.50196 l 0.004,0.006 0.006,0.006 c 0.2891,0.32122 0.41993,0.62592 0.41993,0.92383 0,0.30935 -0.15775,0.63989 -0.50586,0.9961 -0.34812,0.35621 -0.88143,0.73109 -1.59961,1.11523 -1.42712,0.72962 -3.21189,1.09766 -5.35547,1.09766 -3.18181,0 -5.75908,-0.86738 -7.75781,-2.59961 -1.99854,-1.765387 -2.99219,-4.049341 -2.99219,-6.886724 v -5.667968 c 0,-2.498132 0.9271,-4.634437 2.79492,-6.435547 v -0.002 c 1.86766,-1.834309 4.1049,-2.746094 6.74023,-2.746094 z m -0.0488,2.470703 c -1.78521,0 -3.32694,0.623 -4.59766,1.859375 l -0.002,0.002 c -1.23643,1.236428 -1.86133,2.726383 -1.86133,4.445313 v 2.05664 h 0.13281 10.12305 c 1.02116,0 1.70642,-0.09182 2.09375,-0.324219 l 0.004,-0.002 0.004,-0.002 c 0.3882,-0.271734 0.5625,-0.795803 0.5625,-1.52539 0,-1.718013 -0.62403,-3.240133 -1.85742,-4.542969 -1.20399,-1.307192 -2.74837,-1.966797 -4.60156,-1.966797 z m 0,0.263672 c 1.79135,0 3.24803,0.623364 4.40625,1.880859 h 0.002 v 0.002 c 1.195,1.261388 1.78711,2.707625 1.78711,4.363282 0,0.686505 -0.16345,1.105505 -0.44922,1.30664 -0.28903,0.171655 -0.95067,0.283203 -1.95117,0.283203 h -9.99219 v -1.792968 c 0,-1.655657 0.59188,-3.066491 1.78516,-4.259766 1.22605,-1.191989 2.6887,-1.783203 4.41211,-1.783203 z"
           id="path926" />
      </g>
      <g
         id="g928"
         style="opacity:1;fill:#412745;fill-opacity:1;stroke:none;stroke-width:0.264;stroke-miterlimit:4;stroke-dasharray:none">
        <path
           style="color:#000000;font-style:normal;font-variant:normal;font-weight:normal;font-stretch:normal;font-size:medium;line-height:1.25;font-family:Dosis;-inkscape-font-specification:Dosis;font-variant-ligatures:normal;font-variant-position:normal;font-variant-caps:normal;font-variant-numeric:normal;font-variant-alternates:normal;font-variant-east-asian:normal;font-feature-settings:normal;font-variation-settings:normal;text-indent:0;text-align:start;text-decoration:none;text-decoration-line:none;text-decoration-style:solid;text-decoration-color:#000000;letter-spacing:0px;word-spacing:0px;text-transform:none;writing-mode:lr-tb;direction:ltr;text-orientation:mixed;dominant-baseline:auto;baseline-shift:baseline;text-anchor:start;white-space:normal;shape-padding:0;shape-margin:0;inline-size:0;clip-rule:nonzero;display:inline;overflow:visible;visibility:visible;isolation:auto;mix-blend-mode:normal;color-interpolation:sRGB;color-interpolation-filters:linearRGB;solid-color:#000000;solid-opacity:1;vector-effect:none;fill:#412745;fill-opacity:1;fill-rule:nonzero;stroke:none;stroke-width:0.264;stroke-linecap:butt;stroke-linejoin:miter;stroke-miterlimit:4;stroke-dasharray:none;stroke-dashoffset:0;stroke-opacity:1;color-rendering:auto;image-rendering:auto;shape-rendering:auto;text-rendering:auto;enable-background:accumulate;stop-color:#000000;stop-opacity:1"
           d="M 231.69275,102.60977 V 81.198016 c 0,-0.337459 0.15186,-0.624299 0.45557,-0.86052 0.30371,-0.236221 0.69179,-0.354331 1.16423,-0.354331 0.4387,0 0.8099,0.11811 1.11361,0.354331 0.30371,0.236221 0.45557,0.523061 0.45557,0.86052 v 2.328465 c 0.60743,-1.113614 1.48482,-2.024753 2.63218,-2.733416 1.18111,-0.742409 2.54781,-1.113613 4.10012,-1.113613 1.61981,0 3.07088,0.472442 4.35322,1.417326 1.28235,0.911139 2.22723,2.12599 2.83465,3.644554 0.84365,-1.653547 1.95726,-2.902144 3.34085,-3.745791 1.38358,-0.877393 2.83465,-1.316089 4.35321,-1.316089 2.29472,0 4.28573,0.86052 5.97302,2.581559 1.68729,1.721039 2.53094,4.015758 2.53094,6.884157 v 13.464602 c 0,0.33746 -0.16873,0.64117 -0.50619,0.91114 -0.30371,0.26997 -0.69179,0.40495 -1.16423,0.40495 -0.43869,0 -0.82677,-0.13498 -1.16423,-0.40495 -0.30371,-0.26997 -0.45557,-0.57368 -0.45557,-0.91114 V 89.145168 c 0,-1.991007 -0.59055,-3.56019 -1.77166,-4.707549 -1.14736,-1.147359 -2.48032,-1.721039 -3.99888,-1.721039 -1.55231,0 -2.9359,0.590553 -4.15075,1.771658 -1.1811,1.147359 -1.77165,2.632177 -1.77165,4.454454 v 13.717698 c 0,0.84365 -0.55681,1.26547 -1.67042,1.26547 -1.07987,0 -1.61981,-0.42182 -1.61981,-1.26547 V 88.993311 c 0,-1.788531 -0.57368,-3.273349 -1.72104,-4.454454 -1.11361,-1.214851 -2.46345,-1.822277 -4.0495,-1.822277 -1.58605,0 -2.98651,0.590553 -4.20136,1.771658 -1.18111,1.147359 -1.77166,2.699669 -1.77166,4.65693 v 13.464602 c 0,0.33746 -0.16873,0.64117 -0.50619,0.91114 -0.33745,0.26997 -0.72553,0.40495 -1.16423,0.40495 -0.43869,0 -0.82677,-0.13498 -1.16423,-0.40495 -0.30371,-0.26997 -0.45557,-0.57368 -0.45557,-0.91114 z"
           id="path930" />
        <path
           style="color:#000000;font-style:normal;font-variant:normal;font-weight:normal;font-stretch:normal;font-size:medium;line-height:1.25;font-family:Dosis;-inkscape-font-specification:Dosis;font-variant-ligatures:normal;font-variant-position:normal;font-variant-caps:normal;font-variant-numeric:normal;font-variant-alternates:normal;font-variant-east-asian:normal;font-feature-settings:normal;font-variation-settings:normal;text-indent:0;text-align:start;text-decoration:none;text-decoration-line:none;text-decoration-style:solid;text-decoration-color:#000000;letter-spacing:0px;word-spacing:0px;text-transform:none;writing-mode:lr-tb;direction:ltr;text-orientation:mixed;dominant-baseline:auto;baseline-shift:baseline;text-anchor:start;white-space:normal;shape-padding:0;shape-margin:0;inline-size:0;clip-rule:nonzero;display:inline;overflow:visible;visibility:visible;isolation:auto;mix-blend-mode:normal;color-interpolation:sRGB;color-interpolation-filters:linearRGB;solid-color:#000000;solid-opacity:1;vector-effect:none;fill:#412745;fill-opacity:1;fill-rule:nonzero;stroke:none;stroke-width:0.264;stroke-linecap:butt;stroke-linejoin:miter;stroke-miterlimit:4;stroke-dasharray:none;stroke-dashoffset:0;stroke-opacity:1;color-rendering:auto;image-rendering:auto;shape-rendering:auto;text-rendering:auto;enable-background:accumulate;stop-color:#000000;stop-opacity:1"
           d="m 241.61328,79.546875 c -1.57332,0 -2.96679,0.37851 -4.16992,1.134766 -1.0369,0.640694 -1.82521,1.473643 -2.42969,2.443359 v -1.927734 c 0,-0.377005 -0.17813,-0.707994 -0.50586,-0.962891 -0.32798,-0.255105 -0.73295,-0.382813 -1.19531,-0.382813 -0.49441,0 -0.91428,0.126256 -1.24414,0.382813 -0.32773,0.254897 -0.50781,0.585886 -0.50781,0.962891 v 21.412114 c 0,0.377 0.1759,0.72167 0.5,1.00976 l 0.002,0.002 0.004,0.002 c 0.35921,0.28737 0.78036,0.43554 1.24609,0.43554 0.46574,0 0.88688,-0.14817 1.24609,-0.43554 0.35839,-0.28671 0.55664,-0.63228 0.55664,-1.01367 V 89.144531 c 0,-1.930745 0.57624,-3.441244 1.73047,-4.5625 1.1943,-1.161119 2.55605,-1.734375 4.10938,-1.734375 1.5524,0 2.86057,0.589378 3.95312,1.78125 h 0.002 v 0.002 c 1.12418,1.157253 1.68359,2.602939 1.68359,4.363282 v 13.666022 c 0,0.44994 0.15347,0.81557 0.45703,1.05273 0.30357,0.23716 0.73782,0.3457 1.29492,0.3457 0.57345,0 1.02187,-0.10729 1.33399,-0.34375 0.31212,-0.23645 0.46875,-0.60386 0.46875,-1.05468 V 88.943359 c 0,-1.793797 0.57634,-3.238271 1.73242,-4.361328 1.19473,-1.161544 2.53971,-1.734375 4.05859,-1.734375 1.48536,0 2.77945,0.556796 3.90625,1.683594 1.15378,1.120806 1.73242,2.648341 1.73242,4.613281 v 13.464849 c 0,0.377 0.17591,0.72167 0.5,1.00976 l 0.002,0.002 0.002,0.002 c 0.35922,0.28737 0.78231,0.43554 1.24805,0.43554 0.49592,0 0.91941,-0.14689 1.24804,-0.4375 0.35683,-0.28631 0.55274,-0.63119 0.55274,-1.01171 V 89.144531 c 0,-2.894245 -0.85544,-5.229381 -2.56836,-6.976562 -1.70821,-1.742371 -3.73873,-2.621094 -6.06641,-2.621094 -1.54394,0 -3.02182,0.448817 -4.42382,1.337891 -1.34477,0.820588 -2.42318,2.041511 -3.26172,3.607422 -0.6178,-1.43804 -1.52608,-2.620908 -2.76563,-3.501954 h -0.002 c -1.30333,-0.9599 -2.78486,-1.443359 -4.42969,-1.443359 z m 0,0.263672 c 1.59418,0 3.01439,0.463417 4.27539,1.392578 h 0.002 v 0.002 c 1.26218,0.896803 2.19015,2.088632 2.78907,3.585938 l 0.10742,0.269531 0.13281,-0.259766 c 0.83452,-1.635646 1.92995,-2.863442 3.29102,-3.693359 h 0.002 c 1.36516,-0.865712 2.79003,-1.296875 4.2832,-1.296875 2.26177,0 4.21253,0.843261 5.87891,2.542969 1.66166,1.694897 2.49219,3.948464 2.49219,6.791015 v 13.464852 c 0,0.29352 -0.13854,0.55536 -0.45508,0.80859 l -0.004,0.002 -0.002,0.002 c -0.27835,0.24741 -0.62884,0.37304 -1.07617,0.37304 -0.41099,0 -0.76476,-0.12521 -1.08008,-0.37695 -0.28049,-0.25075 -0.4082,-0.51211 -0.4082,-0.80859 V 89.144531 c 0,-2.017072 -0.60406,-3.626868 -1.8125,-4.800781 -1.16766,-1.167115 -2.53863,-1.759766 -4.08985,-1.759766 -1.58574,0 -3.00721,0.609881 -4.24218,1.810547 -1.20612,1.171663 -1.8125,2.698072 -1.8125,4.548828 v 13.716801 c 0,0.39282 -0.12055,0.65838 -0.36524,0.84375 -0.24469,0.18537 -0.63366,0.29101 -1.17383,0.29101 -0.52277,0 -0.89644,-0.1044 -1.13281,-0.28906 -0.23637,-0.18466 -0.35547,-0.452 -0.35547,-0.8457 V 88.994141 c 0,-1.816719 -0.58728,-3.341917 -1.75781,-4.546875 -1.13411,-1.235582 -2.5263,-1.863282 -4.14453,-1.863282 -1.61878,0 -3.05756,0.609456 -4.29297,1.810547 -1.20798,1.173463 -1.81055,2.766224 -1.81055,4.75 v 13.464849 c 0,0.29352 -0.14049,0.55536 -0.45703,0.80859 -0.31569,0.25256 -0.67037,0.37695 -1.08203,0.37695 -0.4101,0 -0.76332,-0.12436 -1.07812,-0.375 -0.28163,-0.25118 -0.41016,-0.51349 -0.41016,-0.81054 V 81.197266 c 0,-0.297913 0.12459,-0.538314 0.4043,-0.75586 0.27756,-0.215885 0.63351,-0.326172 1.08398,-0.326172 0.41504,0 0.75378,0.108836 1.0332,0.326172 0.2797,0.217546 0.4043,0.457947 0.4043,0.75586 v 2.330078 l 0.24805,0.0625 c 0.59634,-1.093303 1.45599,-1.987641 2.58593,-2.685547 1.15908,-0.728562 2.49801,-1.09375 4.0293,-1.09375 z"
           id="path932" />
      </g>
    </g>
  </g>
</svg>
